SplineFontDB: 3.0
FontName: BVTest2
FullName: BV Test 2
FamilyName: BV Test 2
Weight: Book
Copyright: Copyright (c) 2016 by Athinkra. Original version of font copyright (c) 2012 by GlavyFonts.
Version: 0.2
ItalicAngle: 0
UnderlinePosition: -152
UnderlineWidth: 20
Ascent: 800
Descent: 200
InvalidEm: 0
sfntRevision: 0x00010000
LayerCount: 2
Layer: 0 1 "Back" 1
Layer: 1 1 "Fore" 0
XUID: [1021 984 -1507811681 11188627]
StyleMap: 0x0000
FSType: 0
OS2Version: 3
OS2_WeightWidthSlopeOnly: 0
OS2_UseTypoMetrics: 0
CreationTime: 1333915717
ModificationTime: 1467164857
PfmFamily: 81
TTFWeight: 400
TTFWidth: 5
LineGap: 0
VLineGap: 0
Panose: 0 0 0 0 0 0 0 0 0 0
OS2TypoAscent: 800
OS2TypoAOffset: 0
OS2TypoDescent: -200
OS2TypoDOffset: 0
OS2TypoLinegap: 0
OS2WinAscent: 800
OS2WinAOffset: 0
OS2WinDescent: 200
OS2WinDOffset: 0
HheadAscent: 800
HheadAOffset: 0
HheadDescent: -200
HheadDOffset: 0
OS2SubXSize: 700
OS2SubYSize: 650
OS2SubXOff: 0
OS2SubYOff: 140
OS2SupXSize: 700
OS2SupYSize: 650
OS2SupXOff: 0
OS2SupYOff: 477
OS2StrikeYSize: 50
OS2StrikeYPos: 250
OS2CapHeight: 688
OS2XHeight: 465
OS2Vendor: 'pyrs'
OS2CodePages: 20000101.40000000
OS2UnicodeRanges: 8000002f.0200000a.00000000.00000000
Lookup: 4 0 1 "'rlig' Required Ligatures lookup 0" { "'rlig' Required Ligatures lookup 0 subtable"  } ['rlig' ('DFLT' <'dflt' > ) ]
Lookup: 258 0 0 "'kern' Horizontal Kerning in Latin lookup 0" { "'kern' Horizontal Kerning in Latin lookup 0 subtable"  } ['kern' ('latn' <'dflt' > ) ]
MarkAttachClasses: 1
DEI: 91125
TtTable: prep
PUSHW_1
 10
CALL
PUSHW_1
 0
CALL
SVTCA[y-axis]
PUSHW_3
 1
 5
 2
CALL
SVTCA[x-axis]
PUSHW_3
 6
 4
 2
CALL
SVTCA[x-axis]
PUSHW_8
 6
 123
 100
 71
 51
 31
 0
 8
CALL
PUSHW_8
 7
 99
 81
 71
 51
 31
 0
 8
CALL
PUSHW_8
 8
 65
 53
 37
 26
 16
 0
 8
CALL
PUSHW_8
 9
 53
 43
 37
 26
 16
 0
 8
CALL
SVTCA[y-axis]
PUSHW_8
 1
 123
 100
 71
 51
 31
 0
 8
CALL
PUSHW_8
 2
 290
 237
 185
 132
 79
 0
 8
CALL
PUSHW_8
 3
 149
 122
 95
 68
 41
 0
 8
CALL
PUSHW_8
 4
 99
 81
 71
 51
 31
 0
 8

StartChar: .notdef
Encoding: 1114112 -1 0
Width: 364
Flags: W
LayerCount: 2
Fore
SplineSet
33 0 m 1,0,-1
 33 666 l 1,1,-1
 298 666 l 1,2,-1
 298 0 l 1,3,-1
 33 0 l 1,0,-1
66 33 m 1,4,-1
 265 33 l 1,5,-1
 265 633 l 1,6,-1
 66 633 l 1,7,-1
 66 33 l 1,4,-1
EndSplineSet
Validated: 1
EndChar

StartChar: exclam
Encoding: 33 33 5
Width: 346
GlyphClass: 2
Flags: W
LayerCount: 2
Fore
SplineSet
231 628 m 0,0,1
 231 620 231 620 230.5 611.5 c 128,-1,2
 230 603 230 603 229 594 c 2,3,-1
 183 182 l 1,4,-1
 163 182 l 1,5,-1
 119 594 l 2,6,7
 117 613 117 613 116 622.5 c 128,-1,8
 115 632 115 632 115 633 c 0,9,10
 115 666 115 666 131.5 685 c 128,-1,11
 148 704 148 704 174 704 c 0,12,13
 195 704 195 704 212 687 c 0,14,15
 231 667 231 667 231 628 c 0,0,1
229 43 m 256,16,17
 229 19 229 19 212.5 2.5 c 128,-1,18
 196 -14 196 -14 173 -14 c 0,19,20
 153 -14 153 -14 136 0 c 0,21,22
 116 15 116 15 116 43 c 0,23,24
 116 68 116 68 135 84 c 0,25,26
 152 98 152 98 173 98 c 256,27,28
 194 98 194 98 211.5 82.5 c 128,-1,29
 229 67 229 67 229 43 c 256,16,17
EndSplineSet
Validated: 1
EndChar

StartChar: quotedbl
Encoding: 34 34 6
Width: 424
GlyphClass: 2
Flags: W
LayerCount: 2
Fore
SplineSet
356 650 m 0,0,1
 356 632 356 632 353 608.5 c 128,-1,2
 350 585 350 585 345 556 c 2,3,-1
 317 408 l 1,4,-1
 292 408 l 1,5,-1
 265 556 l 2,6,7
 253 622 253 622 253 643 c 0,8,9
 253 704 253 704 305 704 c 0,10,11
 328 704 328 704 342 688.5 c 128,-1,12
 356 673 356 673 356 650 c 0,0,1
170 649 m 0,13,14
 170 641 170 641 166.5 618 c 128,-1,15
 163 595 163 595 156 557 c 2,16,-1
 128 408 l 1,17,-1
 107 408 l 1,18,-1
 79 558 l 2,19,20
 68 619 68 619 68 643 c 0,21,22
 68 704 68 704 118 704 c 0,23,24
 141 704 141 704 155.5 689 c 128,-1,25
 170 674 170 674 170 649 c 0,13,14
EndSplineSet
Validated: 1
EndChar

StartChar: numbersign
Encoding: 35 35 7
Width: 520
GlyphClass: 2
Flags: W
LayerCount: 2
Fore
SplineSet
502 217 m 1,0,-1
 363 217 l 1,1,-1
 316 -14 l 1,2,-1
 275 -14 l 1,3,-1
 321 217 l 1,4,-1
 149 217 l 1,5,-1
 101 -14 l 1,6,-1
 58 -14 l 1,7,-1
 105 217 l 1,8,-1
 18 217 l 1,9,-1
 18 259 l 1,10,-1
 113 259 l 1,11,-1
 149 433 l 1,12,-1
 18 433 l 1,13,-1
 18 473 l 1,14,-1
 159 473 l 1,15,-1
 205 704 l 1,16,-1
 246 704 l 1,17,-1
 201 473 l 1,18,-1
 372 473 l 1,19,-1
 421 704 l 1,20,-1
 463 704 l 1,21,-1
 415 473 l 1,22,-1
 502 473 l 1,23,-1
 502 433 l 1,24,-1
 408 433 l 1,25,-1
 372 259 l 1,26,-1
 502 259 l 1,27,-1
 502 217 l 1,0,-1
365 433 m 1,28,-1
 192 433 l 1,29,-1
 156 259 l 1,30,-1
 329 259 l 1,31,-1
 365 433 l 1,28,-1
EndSplineSet
Validated: 1
EndChar

StartChar: dollar
Encoding: 36 36 8
Width: 520
GlyphClass: 2
Flags: W
LayerCount: 2
Fore
SplineSet
468 171 m 0,0,1
 468 91 468 91 407 39 c 0,2,3
 350 -9 350 -9 267 -14 c 1,4,-1
 267 -78 l 1,5,-1
 235 -78 l 1,6,-1
 235 -14 l 1,7,8
 136 -9 136 -9 55 26 c 1,9,-1
 55 170 l 1,10,-1
 77 170 l 1,11,12
 87 32 87 32 235 19 c 1,13,-1
 235 315 l 1,14,15
 184 347 184 347 151.5 372.5 c 128,-1,16
 119 398 119 398 102 415 c 0,17,18
 55 467 55 467 55 535 c 0,19,20
 55 614 55 614 119 660 c 0,21,22
 169 695 169 695 235 700 c 1,23,-1
 235 747 l 1,24,-1
 267 747 l 1,25,-1
 267 700 l 1,26,27
 299 699 299 699 337 691 c 1,28,-1
 435 655 l 1,29,-1
 435 503 l 1,30,-1
 415 503 l 1,31,32
 402 653 402 653 267 666 c 1,33,-1
 267 408 l 1,34,35
 330 363 330 363 368.5 332 c 128,-1,36
 407 301 407 301 424 284 c 0,37,38
 468 235 468 235 468 171 c 0,0,1
235 430 m 1,39,-1
 235 666 l 1,40,41
 134 651 134 651 134 567 c 0,42,43
 134 493 134 493 235 430 c 1,39,-1
387 146 m 0,44,45
 387 188 387 188 356 222 c 0,46,47
 345 234 345 234 323 252 c 128,-1,48
 301 270 301 270 267 293 c 1,49,-1
 267 19 l 1,50,51
 306 22 306 22 341 49 c 0,52,53
 387 85 387 85 387 146 c 0,44,45
EndSplineSet
Validated: 1
EndChar

StartChar: percent
Encoding: 37 37 9
Width: 899
GlyphClass: 2
Flags: W
LayerCount: 2
Fore
SplineSet
821 258 m 0,0,1
 821 142 821 142 752 60 c 0,2,3
 690 -14 690 -14 616 -14 c 0,4,5
 484 -14 484 -14 484 128 c 0,6,7
 484 215 484 215 554 294 c 256,8,9
 624 373 624 373 710 373 c 0,10,11
 761 373 761 373 792 336 c 0,12,13
 821 302 821 302 821 258 c 0,0,1
677 706 m 1,14,-1
 275 -14 l 1,15,-1
 225 -14 l 1,16,-1
 589 638 l 1,17,18
 524 611 524 611 460 611 c 0,19,20
 429 611 429 611 408 619 c 1,21,22
 408 615 408 615 409 607.5 c 128,-1,23
 410 600 410 600 411.5 591.5 c 128,-1,24
 413 583 413 583 414.5 575 c 128,-1,25
 416 567 416 567 416 563 c 0,26,27
 416 461 416 461 344 379 c 0,28,29
 276 301 276 301 203 301 c 0,30,31
 79 301 79 301 79 444 c 0,32,33
 79 530 79 530 148 610 c 0,34,35
 218 691 218 691 304 691 c 0,36,37
 344 691 344 691 384 662 c 256,38,39
 424 633 424 633 471 634 c 0,40,41
 574 635 574 635 627 706 c 1,42,-1
 677 706 l 1,14,-1
794 252 m 0,43,44
 794 285 794 285 776 311 c 0,45,46
 755 339 755 339 722 339 c 0,47,48
 659 339 659 339 610 249 c 0,49,50
 563 166 563 166 563 89 c 0,51,52
 563 17 563 17 628 17 c 0,53,54
 695 17 695 17 748 103 c 0,55,56
 794 179 794 179 794 252 c 0,43,44
389 578 m 1,57,-1
 380 626 l 1,58,59
 357 633 357 633 336 648 c 0,60,61
 317 661 317 661 308 661 c 0,62,63
 271 661 271 661 219 591 c 0,64,65
 158 511 158 511 158 414 c 0,66,67
 158 337 158 337 223 337 c 0,68,69
 289 337 289 337 341 419 c 0,70,71
 389 495 389 495 389 578 c 1,57,-1
EndSplineSet
Validated: 33
EndChar

StartChar: ampersand
Encoding: 38 38 10
Width: 809
GlyphClass: 2
Flags: W
LayerCount: 2
Fore
SplineSet
777 124 m 1,0,1
 767 74 767 74 734 35 c 0,2,3
 691 -15 691 -15 620 -15 c 0,4,5
 533 -15 533 -15 442 83 c 1,6,7
 389 37 389 37 357 20 c 0,8,9
 292 -15 292 -15 220 -15 c 0,10,11
 134 -15 134 -15 84 32 c 0,12,13
 38 75 38 75 38 136 c 0,14,15
 38 273 38 273 249 385 c 1,16,17
 207 476 207 476 207 536 c 0,18,19
 207 617 207 617 264 664 c 0,20,21
 313 704 313 704 384 704 c 0,22,23
 448 704 448 704 486 666 c 0,24,25
 521 631 521 631 521 580 c 0,26,27
 521 516 521 516 461 464 c 0,28,29
 429 437 429 437 354 397 c 1,30,31
 417 283 417 283 489 187 c 1,32,33
 578 294 578 294 578 367 c 0,34,35
 578 389 578 389 564.5 406.5 c 128,-1,36
 551 424 551 424 530 424 c 1,37,-1
 530 443 l 1,38,-1
 744 443 l 1,39,-1
 744 424 l 1,40,41
 697 418 697 418 680 404 c 0,42,43
 668 394 668 394 651.5 370.5 c 128,-1,44
 635 347 635 347 615 309 c 0,45,46
 574 232 574 232 513 157 c 1,47,48
 597 62 597 62 665 62 c 0,49,50
 740 62 740 62 758 137 c 1,51,-1
 777 124 l 1,0,1
462 582 m 0,52,53
 462 620 462 620 439 644 c 128,-1,54
 416 668 416 668 384 668 c 0,55,56
 335 668 335 668 311 630 c 0,57,58
 294 604 294 604 294 576 c 0,59,60
 294 523 294 523 337 431 c 1,61,62
 462 488 462 488 462 582 c 0,52,53
415 112 m 1,63,64
 398 134 398 134 373 166 c 128,-1,65
 348 198 348 198 322 246 c 2,66,-1
 265 350 l 1,67,68
 144 283 144 283 144 182 c 0,69,70
 144 128 144 128 177 89 c 0,71,72
 211 46 211 46 272 46 c 0,73,74
 335 46 335 46 415 112 c 1,63,64
EndSplineSet
Validated: 1
EndChar

StartChar: quotesingle
Encoding: 39 39 11
Width: 188
GlyphClass: 2
Flags: W
LayerCount: 2
Fore
SplineSet
145 650 m 0,0,1
 145 636 145 636 131 557 c 2,2,-1
 104 408 l 1,3,-1
 81 408 l 1,4,-1
 54 558 l 2,5,6
 49 589 49 589 46 610 c 128,-1,7
 43 631 43 631 43 643 c 0,8,9
 43 704 43 704 91 704 c 0,10,11
 117 704 117 704 131 687.5 c 128,-1,12
 145 671 145 671 145 650 c 0,0,1
EndSplineSet
Validated: 1
EndChar

StartChar: parenleft
Encoding: 40 40 12
Width: 346
GlyphClass: 2
Flags: W
LayerCount: 2
Fore
SplineSet
322 -222 m 1,0,1
 195 -163 195 -163 119 -33 c 0,2,3
 43 95 43 95 43 250 c 0,4,5
 43 404 43 404 120 534 c 0,6,7
 197 663 197 663 322 722 c 1,8,-1
 322 701 l 1,9,10
 235 654 235 654 189 544 c 0,11,12
 140 431 140 431 140 263 c 0,13,14
 140 -90 140 -90 322 -203 c 1,15,-1
 322 -222 l 1,0,1
EndSplineSet
Validated: 1
EndChar

StartChar: parenright
Encoding: 41 41 13
Width: 346
GlyphClass: 2
Flags: W
LayerCount: 2
Fore
SplineSet
304 248 m 0,0,1
 304 91 304 91 225 -37 c 0,2,3
 146 -168 146 -168 23 -222 c 1,4,-1
 23 -203 l 1,5,6
 207 -106 207 -106 207 235 c 0,7,8
 207 382 207 382 181 475 c 0,9,10
 139 625 139 625 23 702 c 1,11,-1
 23 722 l 1,12,13
 157 656 157 656 230 529 c 0,14,15
 304 402 304 402 304 248 c 0,0,1
EndSplineSet
Validated: 1
EndChar

StartChar: asterisk
Encoding: 42 42 14
Width: 520
GlyphClass: 2
Flags: W
LayerCount: 2
Fore
SplineSet
447 596 m 0,0,1
 447 578 447 578 431 562.5 c 128,-1,2
 415 547 415 547 381 538 c 2,3,-1
 283 511 l 1,4,5
 308 504 308 504 332 497 c 128,-1,6
 356 490 356 490 381 482 c 0,7,8
 446 461 446 461 446 426 c 0,9,10
 446 389 446 389 408 389 c 0,11,12
 380 389 380 389 337 431 c 2,13,-1
 271 493 l 1,14,15
 271 468 271 468 286 423 c 0,16,17
 302 379 302 379 302 355 c 0,18,19
 302 301 302 301 258 301 c 0,20,21
 240 301 240 301 229.5 317.5 c 128,-1,22
 219 334 219 334 219 353 c 0,23,24
 219 381 219 381 232 424 c 0,25,26
 252 493 252 493 252 494 c 1,27,28
 250 492 250 492 233 476.5 c 128,-1,29
 216 461 216 461 184 431 c 0,30,31
 140 388 140 388 115 388 c 0,32,33
 99 388 99 388 86.5 398.5 c 128,-1,34
 74 409 74 409 74 424 c 0,35,36
 74 441 74 441 90 457 c 128,-1,37
 106 473 106 473 141 483 c 2,38,-1
 240 511 l 1,39,40
 227 518 227 518 178 530 c 0,41,42
 131 541 131 541 108 553 c 0,43,44
 74 569 74 569 74 597 c 0,45,46
 74 634 74 634 112 634 c 0,47,48
 126 634 126 634 144 624 c 128,-1,49
 162 614 162 614 185 592 c 2,50,-1
 251 529 l 1,51,52
 250 539 250 539 245.5 557.5 c 128,-1,53
 241 576 241 576 233 603 c 0,54,55
 225 628 225 628 222 644 c 128,-1,56
 219 660 219 660 219 668 c 0,57,58
 219 722 219 722 263 722 c 0,59,60
 281 722 281 722 291.5 705.5 c 128,-1,61
 302 689 302 689 302 670 c 0,62,63
 302 645 302 645 290 600 c 0,64,65
 282 571 282 571 277 553.5 c 128,-1,66
 272 536 272 536 271 529 c 1,67,68
 275 531 275 531 291.5 547 c 128,-1,69
 308 563 308 563 339 592 c 0,70,71
 383 633 383 633 407 633 c 0,72,73
 422 633 422 633 434.5 622 c 128,-1,74
 447 611 447 611 447 596 c 0,0,1
EndSplineSet
Validated: 1
EndChar

StartChar: plus
Encoding: 43 43 15
Width: 1000
GlyphClass: 2
Flags: W
LayerCount: 2
Fore
SplineSet
800 269 m 1,0,-1
 531 269 l 1,1,-1
 531 0 l 1,2,-1
 469 0 l 1,3,-1
 469 269 l 1,4,-1
 200 269 l 1,5,-1
 200 331 l 1,6,-1
 469 331 l 1,7,-1
 469 600 l 1,8,-1
 531 600 l 1,9,-1
 531 331 l 1,10,-1
 800 331 l 1,11,-1
 800 269 l 1,0,-1
EndSplineSet
Validated: 1
EndChar

StartChar: comma
Encoding: 44 44 16
Width: 260
GlyphClass: 2
Flags: W
LayerCount: 2
Fore
SplineSet
207 -4 m 0,0,1
 207 -121 207 -121 56 -173 c 1,2,-1
 56 -150 l 1,3,4
 99 -137 99 -137 130 -104 c 0,5,6
 165 -66 165 -66 165 -19 c 0,7,8
 165 0 165 0 154 0 c 0,9,10
 146 0 146 0 132 -7 c 128,-1,11
 118 -14 118 -14 110 -14 c 0,12,13
 56 -14 56 -14 56 42 c 0,14,15
 56 68 56 68 75.5 84.5 c 128,-1,16
 95 101 95 101 122 101 c 0,17,18
 153 101 153 101 179 74 c 0,19,20
 207 45 207 45 207 -4 c 0,0,1
EndSplineSet
Validated: 1
EndChar

StartChar: hyphen
Encoding: 45 45 17
Width: 346
GlyphClass: 2
Flags: W
LayerCount: 2
Fore
SplineSet
304 194 m 1,0,-1
 42 194 l 1,1,-1
 42 271 l 1,2,-1
 304 271 l 1,3,-1
 304 194 l 1,0,-1
EndSplineSet
Validated: 1
EndChar

StartChar: period
Encoding: 46 46 18
Width: 260
GlyphClass: 2
Flags: W
LayerCount: 2
Fore
SplineSet
186 43 m 256,0,1
 186 19 186 19 170 2.5 c 128,-1,2
 154 -14 154 -14 130 -14 c 0,3,4
 105 -14 105 -14 89.5 2.5 c 128,-1,5
 74 19 74 19 74 43 c 256,6,7
 74 67 74 67 90 83 c 128,-1,8
 106 99 106 99 130 99 c 0,9,10
 153 99 153 99 169.5 83 c 128,-1,11
 186 67 186 67 186 43 c 256,0,1
EndSplineSet
Validated: 1
EndChar

StartChar: slash
Encoding: 47 47 19
Width: 289
GlyphClass: 2
Flags: W
LayerCount: 2
Fore
SplineSet
291 722 m 1,0,-1
 43 -14 l 1,1,-1
 1 -14 l 1,2,-1
 251 722 l 1,3,-1
 291 722 l 1,0,-1
EndSplineSet
Validated: 1
EndChar

StartChar: zero
Encoding: 48 48 20
Width: 520
GlyphClass: 2
Flags: W
LayerCount: 2
Fore
SplineSet
483 350 m 0,0,1
 483 201 483 201 425 100 c 0,2,3
 363 -11 363 -11 257 -11 c 0,4,5
 160 -11 160 -11 96 97 c 0,6,7
 37 200 37 200 37 340 c 0,8,9
 37 498 37 498 105 604 c 0,10,11
 169 703 169 703 262 703 c 0,12,13
 353 703 353 703 416 608 c 0,14,15
 483 508 483 508 483 350 c 0,0,1
384 373 m 0,16,17
 384 512 384 512 352 591 c 128,-1,18
 320 670 320 670 261 670 c 0,19,20
 209 670 209 670 178 603 c 0,21,22
 137 515 137 515 137 328 c 0,23,24
 137 178 137 178 170 97 c 0,25,26
 202 20 202 20 259 20 c 0,27,28
 384 20 384 20 384 373 c 0,16,17
EndSplineSet
Validated: 1
EndChar

StartChar: one
Encoding: 49 49 21
Width: 520
GlyphClass: 2
Flags: W
LayerCount: 2
Fore
SplineSet
393 0 m 1,0,-1
 134 0 l 1,1,-1
 134 19 l 1,2,3
 196 19 196 19 211 38 c 0,4,5
 223 54 223 54 223 122 c 2,6,-1
 223 493 l 2,7,8
 223 566 223 566 220 583 c 0,9,10
 213 620 213 620 182 620 c 0,11,12
 162 620 162 620 129 605 c 1,13,-1
 122 621 l 1,14,-1
 289 703 l 1,15,-1
 307 703 l 1,16,-1
 307 122 l 2,17,18
 307 52 307 52 318 38 c 0,19,20
 331 19 331 19 393 19 c 1,21,-1
 393 0 l 1,0,-1
EndSplineSet
Validated: 1
EndChar

StartChar: two
Encoding: 50 50 22
Width: 520
GlyphClass: 2
Flags: W
LayerCount: 2
Fore
SplineSet
477 132 m 1,0,-1
 428 0 l 1,1,-1
 23 0 l 1,2,-1
 23 19 l 1,3,4
 70 62 70 62 103 94 c 128,-1,5
 136 126 136 126 156 146 c 0,6,7
 193 183 193 183 222.5 218 c 128,-1,8
 252 253 252 253 275 286 c 0,9,10
 348 390 348 390 348 475 c 0,11,12
 348 554 348 554 296 594 c 0,13,14
 258 625 258 625 212 625 c 0,15,16
 102 625 102 625 61 509 c 1,17,-1
 43 509 l 1,18,19
 52 579 52 579 87 629 c 0,20,21
 140 703 140 703 238 703 c 0,22,23
 316 703 316 703 373 655 c 0,24,25
 435 602 435 602 435 522 c 0,26,27
 435 403 435 403 288 243 c 0,28,29
 155 99 155 99 131 77 c 1,30,-1
 311 77 l 2,31,32
 343 77 343 77 364 78 c 128,-1,33
 385 79 385 79 395 82 c 0,34,35
 429 91 429 91 458 132 c 1,36,-1
 477 132 l 1,0,-1
EndSplineSet
Validated: 1
EndChar

StartChar: three
Encoding: 51 51 23
Width: 520
GlyphClass: 2
Flags: W
LayerCount: 2
Fore
SplineSet
434 228 m 0,0,1
 434 122 434 122 360 54 c 0,2,3
 288 -11 288 -11 162 -11 c 0,4,5
 43 -11 43 -11 43 43 c 0,6,7
 43 58 43 58 55 68.5 c 128,-1,8
 67 79 67 79 83 79 c 0,9,10
 105 79 105 79 149 55 c 0,11,12
 193 32 193 32 230 32 c 0,13,14
 277 32 277 32 318 70 c 256,15,16
 359 108 359 108 359 166 c 0,17,18
 359 280 359 280 259 322 c 0,19,20
 218 339 218 339 158 341 c 1,21,-1
 158 357 l 1,22,23
 201 361 201 361 246 391 c 0,24,25
 315 436 315 436 315 517 c 0,26,27
 315 577 315 577 275 608 c 0,28,29
 244 633 244 633 202 633 c 0,30,31
 122 633 122 633 70 549 c 1,32,-1
 53 557 l 1,33,34
 82 619 82 619 107 646 c 0,35,36
 158 703 158 703 239 703 c 0,37,38
 325 703 325 703 369 647 c 0,39,40
 399 606 399 606 399 563 c 0,41,42
 399 489 399 489 306 408 c 1,43,44
 434 361 434 361 434 228 c 0,0,1
EndSplineSet
Validated: 1
EndChar

StartChar: four
Encoding: 52 52 24
Width: 520
GlyphClass: 2
Flags: W
LayerCount: 2
Fore
SplineSet
483 182 m 1,0,-1
 392 182 l 1,1,-1
 392 0 l 1,2,-1
 308 0 l 1,3,-1
 308 182 l 1,4,-1
 16 182 l 1,5,-1
 16 246 l 1,6,-1
 336 703 l 1,7,-1
 392 703 l 1,8,-1
 392 254 l 1,9,-1
 483 254 l 1,10,-1
 483 182 l 1,0,-1
308 254 m 1,11,-1
 308 596 l 1,12,-1
 66 254 l 1,13,-1
 308 254 l 1,11,-1
EndSplineSet
Validated: 1
EndChar

StartChar: five
Encoding: 53 53 25
Width: 520
GlyphClass: 2
Flags: W
LayerCount: 2
Fore
SplineSet
451 688 m 1,0,-1
 412 602 l 1,1,-1
 205 602 l 1,2,-1
 159 510 l 1,3,4
 243 502 243 502 324 450 c 0,5,6
 440 373 440 373 440 248 c 0,7,8
 440 129 440 129 347 54 c 0,9,10
 267 -11 267 -11 168 -11 c 0,11,12
 111 -11 111 -11 80.5 7.5 c 128,-1,13
 50 26 50 26 50 55 c 0,14,15
 50 92 50 92 90 92 c 0,16,17
 112 92 112 92 150 66 c 0,18,19
 190 40 190 40 225 40 c 0,20,21
 285 40 285 40 329 84 c 0,22,23
 374 129 374 129 374 194 c 0,24,25
 374 286 374 286 298 349 c 0,26,27
 217 416 217 416 73 421 c 1,28,-1
 205 688 l 1,29,-1
 451 688 l 1,0,-1
EndSplineSet
Validated: 1
EndChar

StartChar: six
Encoding: 54 54 26
Width: 520
GlyphClass: 2
Flags: W
LayerCount: 2
Fore
SplineSet
480 232 m 0,0,1
 480 136 480 136 421 65 c 0,2,3
 357 -11 357 -11 261 -11 c 0,4,5
 166 -11 166 -11 105 72 c 0,6,7
 45 153 45 153 45 270 c 0,8,9
 45 461 45 461 187 594 c 0,10,11
 302 703 302 703 437 703 c 2,12,-1
 466 703 l 1,13,-1
 466 684 l 1,14,15
 354 678 354 678 272 596 c 256,16,17
 190 514 190 514 159 384 c 1,18,19
 232 435 232 435 306 435 c 0,20,21
 366 435 366 435 416 391 c 0,22,23
 480 334 480 334 480 232 c 0,0,1
389 177 m 0,24,25
 389 266 389 266 358 324 c 0,26,27
 322 391 322 391 257 391 c 0,28,29
 222 391 222 391 151 347 c 1,30,31
 146 309 146 309 143.5 281.5 c 128,-1,32
 141 254 141 254 141 237 c 0,33,34
 141 158 141 158 176 90 c 0,35,36
 216 14 216 14 276 16 c 0,37,38
 323 17 323 17 355 58 c 0,39,40
 389 102 389 102 389 177 c 0,24,25
EndSplineSet
Validated: 33
EndChar

StartChar: seven
Encoding: 55 55 27
Width: 520
GlyphClass: 2
Flags: W
LayerCount: 2
Fore
SplineSet
472 670 m 1,0,-1
 243 -14 l 1,1,-1
 187 -14 l 1,2,-1
 393 605 l 1,3,-1
 204 605 l 2,4,5
 131 605 131 605 94 577 c 0,6,7
 78 564 78 564 53 521 c 1,8,-1
 38 526 l 1,9,-1
 105 688 l 1,10,-1
 472 688 l 1,11,-1
 472 670 l 1,0,-1
EndSplineSet
Validated: 1
EndChar

StartChar: eight
Encoding: 56 56 28
Width: 520
GlyphClass: 2
Flags: W
LayerCount: 2
Fore
SplineSet
460 163 m 0,0,1
 460 99 460 99 420 52 c 0,2,3
 367 -11 367 -11 260 -11 c 0,4,5
 167 -11 167 -11 113 43 c 0,6,7
 62 92 62 92 62 157 c 0,8,9
 62 251 62 251 200 346 c 1,10,11
 135 402 135 402 115 425 c 0,12,13
 71 480 71 480 71 539 c 0,14,15
 71 612 71 612 128 659 c 0,16,17
 183 703 183 703 260 703 c 0,18,19
 358 703 358 703 409 644 c 0,20,21
 445 600 445 600 445 554 c 0,22,23
 445 500 445 500 396 451 c 0,24,25
 366 421 366 421 303 382 c 1,26,27
 338 354 338 354 363.5 332.5 c 128,-1,28
 389 311 389 311 404 294 c 0,29,30
 460 229 460 229 460 163 c 0,0,1
372 560 m 0,31,32
 372 673 372 673 261 673 c 0,33,34
 212 673 212 673 178.5 646 c 128,-1,35
 145 619 145 619 145 573 c 0,36,37
 145 528 145 528 180 487 c 0,38,39
 191 475 191 475 215.5 453.5 c 128,-1,40
 240 432 240 432 280 401 c 1,41,42
 331 449 331 449 345 469 c 0,43,44
 372 508 372 508 372 560 c 0,31,32
388 122 m 0,45,46
 388 177 388 177 329 238 c 1,47,-1
 224 328 l 1,48,49
 140 256 140 256 140 159 c 0,50,51
 140 92 140 92 176 54 c 128,-1,52
 212 16 212 16 267 16 c 0,53,54
 319 16 319 16 353.5 44.5 c 128,-1,55
 388 73 388 73 388 122 c 0,45,46
EndSplineSet
Validated: 1
EndChar

StartChar: nine
Encoding: 57 57 29
Width: 520
GlyphClass: 2
Flags: W
LayerCount: 2
Fore
SplineSet
475 419 m 0,0,1
 475 249 475 249 359 121 c 0,2,3
 237 -14 237 -14 84 -14 c 2,4,-1
 55 -14 l 1,5,-1
 55 4 l 1,6,7
 171 7 171 7 243 85 c 0,8,9
 331 179 331 179 361 303 c 1,10,11
 285 251 285 251 217 251 c 0,12,13
 136 251 136 251 87 315 c 0,14,15
 42 373 42 373 42 456 c 0,16,17
 42 561 42 561 107 634 c 0,18,19
 168 703 168 703 256 703 c 0,20,21
 355 703 355 703 418 611 c 0,22,23
 475 527 475 527 475 419 c 0,0,1
379 445 m 0,24,25
 379 549 379 549 334 614 c 0,26,27
 294 672 294 672 244 670 c 0,28,29
 195 669 195 669 165 628 c 0,30,31
 132 584 132 584 132 509 c 0,32,33
 132 461 132 461 141 422 c 128,-1,34
 150 383 150 383 166.5 355.5 c 128,-1,35
 183 328 183 328 206 312.5 c 128,-1,36
 229 297 229 297 258 297 c 0,37,38
 286 297 286 297 323 311 c 0,39,40
 358 325 358 325 369 340 c 1,41,42
 374 377 374 377 376.5 403 c 128,-1,43
 379 429 379 429 379 445 c 0,24,25
EndSplineSet
Validated: 33
EndChar

StartChar: colon
Encoding: 58 58 30
Width: 290
GlyphClass: 2
Flags: W
LayerCount: 2
Fore
SplineSet
202 423 m 256,0,1
 202 399 202 399 185 383 c 128,-1,2
 168 367 168 367 146 367 c 0,3,4
 123 367 123 367 106 383.5 c 128,-1,5
 89 400 89 400 89 423 c 0,6,7
 89 447 89 447 105.5 463 c 128,-1,8
 122 479 122 479 146 479 c 0,9,10
 169 479 169 479 185.5 463 c 128,-1,11
 202 447 202 447 202 423 c 256,0,1
202 43 m 256,12,13
 202 18 202 18 184.5 2 c 128,-1,14
 167 -14 167 -14 145 -14 c 0,15,16
 122 -14 122 -14 105 2 c 128,-1,17
 88 18 88 18 88 43 c 0,18,19
 88 69 88 69 106 84 c 128,-1,20
 124 99 124 99 145 99 c 256,21,22
 166 99 166 99 184 83.5 c 128,-1,23
 202 68 202 68 202 43 c 256,12,13
EndSplineSet
Validated: 1
EndChar

StartChar: semicolon
Encoding: 59 59 31
Width: 290
GlyphClass: 2
Flags: W
LayerCount: 2
Fore
SplineSet
215 424 m 256,0,1
 215 400 215 400 198 384 c 128,-1,2
 181 368 181 368 159 368 c 0,3,4
 136 368 136 368 119 384.5 c 128,-1,5
 102 401 102 401 102 424 c 0,6,7
 102 448 102 448 118.5 464 c 128,-1,8
 135 480 135 480 159 480 c 0,9,10
 182 480 182 480 198.5 464 c 128,-1,11
 215 448 215 448 215 424 c 256,0,1
238 -4 m 0,12,13
 238 -121 238 -121 87 -173 c 1,14,-1
 87 -150 l 1,15,16
 130 -137 130 -137 161 -104 c 0,17,18
 196 -66 196 -66 196 -19 c 0,19,20
 196 0 196 0 185 0 c 0,21,22
 177 0 177 0 163 -7 c 128,-1,23
 149 -14 149 -14 141 -14 c 0,24,25
 87 -14 87 -14 87 42 c 0,26,27
 87 68 87 68 106.5 84.5 c 128,-1,28
 126 101 126 101 153 101 c 0,29,30
 184 101 184 101 210 74 c 0,31,32
 238 45 238 45 238 -4 c 0,12,13
EndSplineSet
Validated: 1
EndChar

StartChar: less
Encoding: 60 60 32
Width: 1000
GlyphClass: 2
Flags: W
LayerCount: 2
Fore
SplineSet
800 39 m 1,0,-1
 200 269 l 1,1,-1
 200 331 l 1,2,-1
 800 561 l 1,3,-1
 800 499 l 1,4,-1
 264 300 l 1,5,-1
 800 101 l 1,6,-1
 800 39 l 1,0,-1
EndSplineSet
Validated: 1
EndChar

StartChar: equal
Encoding: 61 61 33
Width: 1000
GlyphClass: 2
Flags: W
LayerCount: 2
Fore
SplineSet
800 360 m 1,0,-1
 200 360 l 1,1,-1
 200 422 l 1,2,-1
 800 422 l 1,3,-1
 800 360 l 1,0,-1
800 178 m 1,4,-1
 200 178 l 1,5,-1
 200 240 l 1,6,-1
 800 240 l 1,7,-1
 800 178 l 1,4,-1
EndSplineSet
Validated: 1
EndChar

StartChar: greater
Encoding: 62 62 34
Width: 1000
GlyphClass: 2
Flags: W
LayerCount: 2
Fore
SplineSet
800 269 m 1,0,-1
 200 39 l 1,1,-1
 200 101 l 1,2,-1
 736 300 l 1,3,-1
 200 499 l 1,4,-1
 200 561 l 1,5,-1
 800 331 l 1,6,-1
 800 269 l 1,0,-1
EndSplineSet
Validated: 1
EndChar

StartChar: question
Encoding: 63 63 35
Width: 462
GlyphClass: 2
Flags: W
LayerCount: 2
Fore
SplineSet
420 544 m 0,0,1
 420 464 420 464 341 376 c 0,2,3
 309 341 309 341 289.5 315.5 c 128,-1,4
 270 290 270 290 261 274 c 0,5,6
 248 251 248 251 240.5 222.5 c 128,-1,7
 233 194 233 194 231 162 c 1,8,-1
 209 162 l 1,9,10
 215 280 215 280 278 385 c 0,11,12
 326 464 326 464 326 536 c 0,13,14
 326 606 326 606 287 644 c 0,15,16
 253 676 253 676 208 676 c 256,17,18
 163 676 163 676 137.5 655 c 128,-1,19
 112 634 112 634 112 609 c 0,20,21
 112 594 112 594 128 563 c 0,22,23
 144 534 144 534 144 522 c 0,24,25
 144 502 144 502 131 490 c 128,-1,26
 118 478 118 478 103 478 c 0,27,28
 86 478 86 478 70 493 c 0,29,30
 47 516 47 516 47 558 c 0,31,32
 47 618 47 618 94 660 c 0,33,34
 146 704 146 704 230 704 c 0,35,36
 272 704 272 704 307 693 c 128,-1,37
 342 682 342 682 367 661 c 128,-1,38
 392 640 392 640 406 610.5 c 128,-1,39
 420 581 420 581 420 544 c 0,0,1
280 43 m 0,40,41
 280 17 280 17 262.5 2 c 128,-1,42
 245 -13 245 -13 224 -13 c 0,43,44
 201 -13 201 -13 183.5 2 c 128,-1,45
 166 17 166 17 166 43 c 0,46,47
 166 67 166 67 183.5 83.5 c 128,-1,48
 201 100 201 100 224 100 c 0,49,50
 246 100 246 100 263 84 c 128,-1,51
 280 68 280 68 280 43 c 0,40,41
EndSplineSet
Validated: 1
EndChar

StartChar: at
Encoding: 64 64 36
Width: 958
GlyphClass: 2
Flags: W
LayerCount: 2
Fore
SplineSet
932 87 m 1,0,1
 904 -16 904 -16 808 -104 c 0,2,3
 677 -224 677 -224 492 -224 c 0,4,5
 285 -224 285 -224 160 -78 c 0,6,7
 49 49 49 49 49 226 c 0,8,9
 49 455 49 455 206 597 c 0,10,11
 346 722 346 722 529 722 c 0,12,13
 684 722 684 722 785 633 c 0,14,15
 892 538 892 538 892 374 c 0,16,17
 892 223 892 223 811 120 c 0,18,19
 730 16 730 16 612 16 c 0,20,21
 535 16 535 16 535 90 c 0,22,23
 535 102 535 102 537 119.5 c 128,-1,24
 539 137 539 137 543 160 c 1,25,26
 423 16 423 16 343 16 c 0,27,28
 306 16 306 16 279 47.5 c 128,-1,29
 252 79 252 79 252 133 c 0,30,31
 252 255 252 255 348 374 c 0,32,33
 443 490 443 490 531 490 c 0,34,35
 604 490 604 490 619 419 c 1,36,-1
 635 475 l 1,37,-1
 714 487 l 1,38,-1
 656 284 l 2,39,40
 608 116 608 116 608 90 c 0,41,42
 608 74 608 74 619.5 63 c 128,-1,43
 631 52 631 52 647 52 c 0,44,45
 717 52 717 52 784 140 c 0,46,47
 861 241 861 241 861 384 c 0,48,49
 861 526 861 526 764 613 c 0,50,51
 672 696 672 696 532 696 c 0,52,53
 353 696 353 696 227 561 c 0,54,55
 97 422 97 422 97 212 c 0,56,57
 97 46 97 46 195 -66 c 0,58,59
 304 -192 304 -192 495 -192 c 0,60,61
 664 -192 664 -192 780 -86 c 0,62,63
 857 -16 857 -16 903 87 c 1,64,-1
 932 87 l 1,0,1
600 383 m 0,65,66
 600 466 600 466 537 466 c 0,67,68
 467 466 467 466 397 340 c 0,69,70
 332 224 332 224 332 149 c 0,71,72
 332 115 332 115 352 95 c 0,73,74
 368 77 368 77 390 77 c 0,75,76
 437 77 437 77 493 136 c 0,77,78
 543 189 543 189 572 261 c 0,79,80
 600 330 600 330 600 383 c 0,65,66
EndSplineSet
Validated: 1
EndChar

StartChar: A
Encoding: 65 65 37
Width: 747
GlyphClass: 2
Flags: W
LayerCount: 2
Fore
SplineSet
739 0 m 1,0,-1
 468 0 l 1,1,-1
 468 19 l 1,2,3
 537 20 537 20 537 63 c 0,4,5
 537 85 537 85 517 132 c 2,6,-1
 476 231 l 1,7,-1
 209 231 l 1,8,-1
 162 121 l 2,9,10
 145 79 145 79 145 64 c 0,11,12
 145 27 145 27 225 19 c 1,13,-1
 225 0 l 1,14,-1
 8 0 l 1,15,-1
 8 19 l 1,16,17
 49 22 49 22 75 51 c 0,18,19
 97 76 97 76 122 137 c 2,20,-1
 364 704 l 1,21,-1
 382 704 l 1,22,-1
 621 132 l 2,23,24
 651 61 651 61 674 41 c 0,25,26
 693 22 693 22 739 19 c 1,27,-1
 739 0 l 1,0,-1
462 268 m 1,28,-1
 345 547 l 1,29,-1
 225 268 l 1,30,-1
 462 268 l 1,28,-1
EndSplineSet
Validated: 1
EndChar

StartChar: B
Encoding: 66 66 38
Width: 676
GlyphClass: 2
Flags: W
LayerCount: 2
Fore
SplineSet
636 188 m 0,0,1
 636 104 636 104 567 50 c 0,2,3
 502 0 502 0 342 0 c 2,4,-1
 18 0 l 1,5,-1
 18 19 l 1,6,-1
 43 19 l 2,7,8
 86 19 86 19 105 47 c 0,9,10
 116 64 116 64 116 122 c 2,11,-1
 116 567 l 2,12,13
 116 631 116 631 102 648 c 0,14,15
 83 670 83 670 43 670 c 2,16,-1
 18 670 l 1,17,-1
 18 688 l 1,18,-1
 315 688 l 2,19,20
 605 688 605 688 605 504 c 0,21,22
 605 451 605 451 574 413 c 0,23,24
 541 371 541 371 480 352 c 1,25,26
 636 322 636 322 636 188 c 0,0,1
498 509 m 0,27,28
 498 570 498 570 451 611 c 0,29,30
 399 654 399 654 306 654 c 0,31,32
 251 654 251 654 214 644 c 1,33,-1
 214 379 l 1,34,35
 242 372 242 372 311 372 c 0,36,37
 498 372 498 372 498 509 c 0,27,28
519 180 m 0,38,39
 519 252 519 252 463 294.5 c 128,-1,40
 407 337 407 337 304 337 c 0,41,42
 271 337 271 337 248.5 335.5 c 128,-1,43
 226 334 226 334 214 332 c 1,44,-1
 214 50 l 1,45,46
 278 36 278 36 331 36 c 0,47,48
 419 36 419 36 471 77 c 0,49,50
 519 114 519 114 519 180 c 0,38,39
EndSplineSet
Validated: 1
EndChar

StartChar: C
Encoding: 67 67 39
Width: 694
GlyphClass: 2
Flags: W
LayerCount: 2
Fore
SplineSet
657 161 m 1,0,1
 557 -15 557 -15 372 -15 c 0,2,3
 219 -15 219 -15 125 89 c 0,4,5
 37 186 37 186 37 334 c 0,6,7
 37 487 37 487 133 594 c 0,8,9
 234 704 234 704 388 704 c 0,10,11
 449 704 449 704 508 680 c 0,12,13
 522 674 522 674 533 669.5 c 128,-1,14
 544 665 544 665 552 662 c 0,15,16
 561 658 561 658 566 656 c 0,17,18
 596 656 596 656 608 704 c 1,19,-1
 626 704 l 1,20,-1
 642 470 l 1,21,-1
 626 470 l 1,22,23
 567 668 567 668 396 668 c 0,24,25
 286 668 286 668 222 586 c 0,26,27
 153 497 153 497 153 333 c 0,28,29
 153 189 153 189 224 107 c 0,30,31
 291 29 291 29 411 29 c 0,32,33
 483 29 483 29 530 57 c 0,34,35
 583 89 583 89 642 172 c 1,36,-1
 657 161 l 1,0,1
EndSplineSet
Validated: 1
EndChar

StartChar: D
Encoding: 68 68 40
Width: 751
GlyphClass: 2
Flags: W
LayerCount: 2
Fore
SplineSet
711 348 m 0,0,1
 711 193 711 193 618 102 c 0,2,3
 516 0 516 0 326 0 c 2,4,-1
 18 0 l 1,5,-1
 18 19 l 1,6,-1
 44 19 l 2,7,8
 89 19 89 19 105 47 c 0,9,10
 116 66 116 66 116 122 c 2,11,-1
 116 567 l 2,12,13
 116 632 116 632 103 648 c 0,14,15
 81 670 81 670 44 670 c 2,16,-1
 18 670 l 1,17,-1
 18 688 l 1,18,-1
 298 688 l 2,19,20
 513 688 513 688 605 607 c 0,21,22
 711 513 711 513 711 348 c 0,0,1
596 343 m 256,23,24
 596 484 596 484 518 567 c 0,25,26
 441 650 441 650 318 650 c 0,27,28
 269 650 269 650 214 635 c 1,29,-1
 214 50 l 1,30,31
 284 35 284 35 322 35 c 0,32,33
 441 33 441 33 518 118 c 0,34,35
 596 202 596 202 596 343 c 256,23,24
EndSplineSet
Validated: 33
EndChar

StartChar: E
Encoding: 69 69 41
Width: 635
GlyphClass: 2
Flags: W
LayerCount: 2
Fore
SplineSet
612 173 m 1,0,-1
 552 0 l 1,1,-1
 22 0 l 1,2,-1
 22 19 l 1,3,-1
 46 19 l 2,4,5
 81 19 81 19 100 35 c 0,6,7
 120 52 120 52 120 122 c 2,8,-1
 120 569 l 2,9,10
 120 636 120 636 107 649 c 0,11,12
 87 670 87 670 46 670 c 2,13,-1
 22 670 l 1,14,-1
 22 688 l 1,15,-1
 552 688 l 1,16,-1
 560 538 l 1,17,-1
 540 538 l 1,18,19
 524 602 524 602 514 617 c 0,20,21
 487 651 487 651 407 651 c 2,22,-1
 217 651 l 1,23,-1
 217 379 l 1,24,-1
 368 379 l 2,25,26
 433 379 433 379 454 402 c 0,27,28
 469 419 469 419 477 478 c 1,29,-1
 496 478 l 1,30,-1
 496 239 l 1,31,-1
 477 239 l 1,32,33
 470 300 470 300 454 317 c 0,34,35
 433 341 433 341 368 341 c 2,36,-1
 217 341 l 1,37,-1
 217 114 l 2,38,39
 217 71 217 71 222 59 c 0,40,41
 232 37 232 37 275 37 c 2,42,-1
 391 37 l 2,43,44
 472 37 472 37 509 63 c 0,45,46
 525 74 525 74 545.5 101 c 128,-1,47
 566 128 566 128 591 173 c 1,48,-1
 612 173 l 1,0,-1
EndSplineSet
Validated: 1
EndChar

StartChar: F
Encoding: 70 70 42
Width: 578
GlyphClass: 2
Flags: W
LayerCount: 2
Fore
SplineSet
536 538 m 1,0,-1
 518 538 l 1,1,2
 499 603 499 603 470 626 c 0,3,4
 439 651 439 651 365 651 c 2,5,-1
 213 651 l 1,6,-1
 213 381 l 1,7,-1
 338 381 l 2,8,9
 360 381 360 381 375.5 385.5 c 128,-1,10
 391 390 391 390 401.5 400.5 c 128,-1,11
 412 411 412 411 418 429 c 128,-1,12
 424 447 424 447 428 474 c 1,13,-1
 447 474 l 1,14,-1
 447 241 l 1,15,-1
 428 241 l 1,16,17
 428 292 428 292 408.5 315 c 128,-1,18
 389 338 389 338 338 338 c 2,19,-1
 213 338 l 1,20,-1
 213 122 l 2,21,22
 213 56 213 56 224 45 c 0,23,24
 245 19 245 19 287 19 c 2,25,-1
 312 19 l 1,26,-1
 312 0 l 1,27,-1
 17 0 l 1,28,-1
 17 19 l 1,29,-1
 42 19 l 2,30,31
 84 19 84 19 103 44 c 0,32,33
 115 59 115 59 115 122 c 2,34,-1
 115 567 l 2,35,36
 115 633 115 633 101 647 c 0,37,38
 78 670 78 670 42 670 c 2,39,-1
 17 670 l 1,40,-1
 17 688 l 1,41,-1
 529 688 l 1,42,-1
 536 538 l 1,0,-1
EndSplineSet
Validated: 1
EndChar

StartChar: G
Encoding: 71 71 43
Width: 751
GlyphClass: 2
Flags: W
LayerCount: 2
Fore
SplineSet
736 357 m 1,0,-1
 724 357 l 2,1,2
 683 357 683 357 670 330 c 0,3,4
 659 313 659 313 659 256 c 2,5,-1
 659 46 l 1,6,7
 553 -15 553 -15 417 -15 c 0,8,9
 241 -15 241 -15 137 86 c 0,10,11
 36 184 36 184 36 334 c 0,12,13
 36 474 36 474 129 582 c 0,14,15
 233 704 233 704 401 704 c 0,16,17
 472 704 472 704 532 682 c 256,18,19
 592 660 592 660 595 660 c 0,20,21
 615 660 615 660 620 704 c 1,22,-1
 639 704 l 1,23,-1
 656 487 l 1,24,-1
 639 487 l 1,25,26
 577 669 577 669 411 669 c 0,27,28
 290 669 290 669 220 579 c 0,29,30
 155 494 155 494 153 356 c 0,31,32
 152 209 152 209 227 114 c 0,33,34
 304 19 304 19 418 19 c 0,35,36
 496 19 496 19 560 57 c 1,37,-1
 560 256 l 2,38,39
 560 318 560 318 543 337 c 256,40,41
 526 356 526 356 470 357 c 1,42,-1
 470 375 l 1,43,-1
 736 375 l 1,44,-1
 736 357 l 1,0,-1
EndSplineSet
Validated: 33
EndChar

StartChar: H
Encoding: 72 72 44
Width: 751
GlyphClass: 2
Flags: W
LayerCount: 2
Fore
SplineSet
730 0 m 1,0,-1
 435 0 l 1,1,-1
 435 19 l 1,2,-1
 460 19 l 2,3,4
 502 19 502 19 521 44 c 0,5,6
 534 60 534 60 534 122 c 2,7,-1
 534 332 l 1,8,-1
 213 332 l 1,9,-1
 213 122 l 2,10,11
 213 57 213 57 226 43 c 0,12,13
 245 19 245 19 288 19 c 2,14,-1
 313 19 l 1,15,-1
 313 0 l 1,16,-1
 18 0 l 1,17,-1
 18 19 l 1,18,-1
 43 19 l 2,19,20
 85 19 85 19 104 44 c 0,21,22
 116 59 116 59 116 122 c 2,23,-1
 116 567 l 2,24,25
 116 628 116 628 102 647 c 0,26,27
 84 670 84 670 43 670 c 2,28,-1
 18 670 l 1,29,-1
 18 688 l 1,30,-1
 313 688 l 1,31,-1
 313 670 l 1,32,-1
 288 670 l 2,33,34
 248 670 248 670 229 648 c 0,35,36
 213 631 213 631 213 567 c 2,37,-1
 213 369 l 1,38,-1
 534 369 l 1,39,-1
 534 567 l 2,40,41
 534 633 534 633 519 648 c 0,42,43
 497 670 497 670 460 670 c 2,44,-1
 435 670 l 1,45,-1
 435 688 l 1,46,-1
 730 688 l 1,47,-1
 730 670 l 1,48,-1
 705 670 l 2,49,50
 667 670 667 670 646 648 c 0,51,52
 634 636 634 636 633 622 c 0,53,54
 632 617 632 617 631.5 603 c 128,-1,55
 631 589 631 589 631 567 c 2,56,-1
 631 122 l 2,57,58
 631 60 631 60 643 44 c 0,59,60
 661 19 661 19 705 19 c 2,61,-1
 730 19 l 1,62,-1
 730 0 l 1,0,-1
EndSplineSet
Validated: 1
EndChar

StartChar: I
Encoding: 73 73 45
Width: 346
GlyphClass: 2
Flags: W
LayerCount: 2
Fore
SplineSet
321 0 m 1,0,-1
 26 0 l 1,1,-1
 26 19 l 1,2,-1
 51 19 l 2,3,4
 93 19 93 19 112 44 c 0,5,6
 124 59 124 59 124 122 c 2,7,-1
 124 567 l 2,8,9
 124 630 124 630 113 644 c 0,10,11
 92 670 92 670 51 670 c 2,12,-1
 26 670 l 1,13,-1
 26 688 l 1,14,-1
 321 688 l 1,15,-1
 321 670 l 1,16,-1
 296 670 l 2,17,18
 254 670 254 670 235 645 c 0,19,20
 222 629 222 629 222 567 c 2,21,-1
 222 122 l 2,22,23
 222 61 222 61 234 43 c 0,24,25
 240 35 240 35 259 27 c 128,-1,26
 278 19 278 19 296 19 c 2,27,-1
 321 19 l 1,28,-1
 321 0 l 1,0,-1
EndSplineSet
Validated: 1
EndChar

StartChar: J
Encoding: 74 74 46
Width: 405
GlyphClass: 2
Flags: W
LayerCount: 2
Fore
SplineSet
398 670 m 1,0,-1
 373 670 l 2,1,2
 334 670 334 670 312 645 c 0,3,4
 300 628 300 628 300 567 c 2,5,-1
 300 230 l 2,6,7
 300 89 300 89 236 28 c 0,8,9
 190 -15 190 -15 124 -15 c 0,10,11
 76 -15 76 -15 49 7.5 c 128,-1,12
 22 30 22 30 22 62 c 0,13,14
 22 115 22 115 73 115 c 0,15,16
 107 115 107 115 127 67 c 0,17,18
 147 20 147 20 165 20 c 0,19,20
 203 20 203 20 203 97 c 2,21,-1
 203 567 l 2,22,23
 203 626 203 626 193 642 c 0,24,25
 187 653 187 653 167.5 661.5 c 128,-1,26
 148 670 148 670 128 670 c 2,27,-1
 104 670 l 1,28,-1
 104 688 l 1,29,-1
 398 688 l 1,30,-1
 398 670 l 1,0,-1
EndSplineSet
Validated: 1
EndChar

StartChar: K
Encoding: 75 75 47
Width: 751
GlyphClass: 2
Flags: W
LayerCount: 2
Fore
SplineSet
760 0 m 1,0,-1
 432 0 l 1,1,-1
 432 19 l 1,2,3
 483 19 483 19 488 51 c 0,4,5
 490 68 490 68 450 108 c 2,6,-1
 243 314 l 1,7,-1
 213 284 l 1,8,-1
 213 122 l 2,9,10
 213 60 213 60 225 44 c 0,11,12
 243 19 243 19 287 19 c 2,13,-1
 311 19 l 1,14,-1
 311 0 l 1,15,-1
 18 0 l 1,16,-1
 18 19 l 1,17,-1
 42 19 l 2,18,19
 85 19 85 19 104 44 c 0,20,21
 115 58 115 58 115 122 c 2,22,-1
 115 567 l 2,23,24
 115 634 115 634 102 648 c 0,25,26
 96 655 96 655 77 662.5 c 128,-1,27
 58 670 58 670 42 670 c 2,28,-1
 18 670 l 1,29,-1
 18 688 l 1,30,-1
 311 688 l 1,31,-1
 311 670 l 1,32,-1
 287 670 l 2,33,34
 250 670 250 670 231 651 c 0,35,36
 213 633 213 633 213 567 c 2,37,-1
 213 351 l 1,38,39
 220 357 220 357 237.5 373 c 128,-1,40
 255 389 255 389 283 415 c 0,41,42
 355 482 355 482 400 529 c 128,-1,43
 445 576 445 576 465 605 c 0,44,45
 478 624 478 624 478 641 c 0,46,47
 478 670 478 670 432 670 c 2,48,-1
 416 670 l 1,49,-1
 416 688 l 1,50,-1
 670 688 l 1,51,-1
 670 670 l 1,52,53
 628 670 628 670 584 642 c 0,54,55
 568 632 568 632 555.5 623 c 128,-1,56
 543 614 543 614 532 603 c 2,57,-1
 416 487 l 1,58,-1
 311 382 l 1,59,-1
 565 129 l 2,60,61
 630 66 630 66 672 44 c 0,62,63
 692 34 692 34 714 27.5 c 128,-1,64
 736 21 736 21 760 19 c 1,65,-1
 760 0 l 1,0,-1
EndSplineSet
Validated: 33
EndChar

StartChar: L
Encoding: 76 76 48
Width: 635
GlyphClass: 2
Flags: W
LayerCount: 2
Fore
SplineSet
614 187 m 1,0,-1
 554 0 l 1,1,-1
 19 0 l 1,2,-1
 19 19 l 1,3,4
 70 19 70 19 92 33 c 0,5,6
 120 51 120 51 120 105 c 2,7,-1
 120 583 l 2,8,9
 120 637 120 637 92 655 c 0,10,11
 70 669 70 669 19 669 c 1,12,-1
 19 688 l 1,13,-1
 318 688 l 1,14,-1
 318 669 l 1,15,16
 267 669 267 669 245 655 c 0,17,18
 217 637 217 637 217 583 c 2,19,-1
 217 130 l 2,20,21
 217 74 217 74 238 58 c 0,22,23
 255 44 255 44 303 44 c 2,24,-1
 373 44 l 2,25,26
 484 44 484 44 519 74 c 0,27,28
 562 111 562 111 596 190 c 1,29,-1
 614 187 l 1,0,-1
EndSplineSet
Validated: 1
EndChar

StartChar: M
Encoding: 77 77 49
Width: 925
GlyphClass: 2
Flags: W
LayerCount: 2
Fore
SplineSet
903 0 m 1,0,-1
 610 0 l 1,1,-1
 610 19 l 1,2,-1
 634 19 l 2,3,4
 677 19 677 19 697 46 c 0,5,6
 708 63 708 63 708 120 c 2,7,-1
 708 579 l 1,8,-1
 442 0 l 1,9,-1
 425 0 l 1,10,-1
 159 579 l 1,11,-1
 159 120 l 2,12,13
 159 58 159 58 174 40 c 0,14,15
 192 19 192 19 233 19 c 2,16,-1
 257 19 l 1,17,-1
 257 0 l 1,18,-1
 18 0 l 1,19,-1
 18 19 l 1,20,-1
 42 19 l 2,21,22
 84 19 84 19 104 46 c 0,23,24
 114 62 114 62 114 120 c 2,25,-1
 114 569 l 2,26,27
 114 635 114 635 92 651 c 0,28,29
 67 670 67 670 18 670 c 1,30,-1
 18 688 l 1,31,-1
 212 688 l 1,32,-1
 462 150 l 1,33,-1
 708 688 l 1,34,-1
 903 688 l 1,35,-1
 903 670 l 1,36,-1
 879 670 l 2,37,38
 836 670 836 670 816 644 c 0,39,40
 805 624 805 624 805 569 c 2,41,-1
 805 120 l 2,42,43
 805 56 805 56 820 40 c 0,44,45
 838 19 838 19 879 19 c 2,46,-1
 903 19 l 1,47,-1
 903 0 l 1,0,-1
EndSplineSet
Validated: 1
EndChar

StartChar: N
Encoding: 78 78 50
Width: 751
GlyphClass: 2
Flags: W
LayerCount: 2
Fore
SplineSet
736 670 m 1,0,-1
 712 670 l 2,1,2
 667 670 667 670 650 644 c 0,3,4
 639 627 639 627 639 569 c 2,5,-1
 639 -10 l 1,6,-1
 621 -10 l 1,7,-1
 166 543 l 1,8,-1
 166 120 l 2,9,10
 166 57 166 57 180 40 c 0,11,12
 198 19 198 19 240 19 c 2,13,-1
 264 19 l 1,14,-1
 264 0 l 1,15,-1
 24 0 l 1,16,-1
 24 19 l 1,17,-1
 48 19 l 2,18,19
 93 19 93 19 110 46 c 0,20,21
 122 61 122 61 122 120 c 2,22,-1
 122 598 l 1,23,-1
 90 640 l 1,24,25
 57 670 57 670 6 670 c 1,26,-1
 6 688 l 1,27,-1
 174 688 l 1,28,-1
 594 172 l 1,29,-1
 594 569 l 2,30,31
 594 632 594 632 580 648 c 0,32,33
 561 670 561 670 520 670 c 2,34,-1
 497 670 l 1,35,-1
 497 688 l 1,36,-1
 736 688 l 1,37,-1
 736 670 l 1,0,-1
EndSplineSet
Validated: 1
EndChar

StartChar: O
Encoding: 79 79 51
Width: 751
GlyphClass: 2
Flags: W
LayerCount: 2
Fore
SplineSet
710 348 m 0,0,1
 710 191 710 191 613 88 c 256,2,3
 516 -15 516 -15 372 -15 c 0,4,5
 227 -15 227 -15 134 84 c 0,6,7
 36 188 36 188 36 346 c 0,8,9
 36 500 36 500 135 602 c 256,10,11
 234 704 234 704 381 704 c 0,12,13
 518 704 518 704 614 602 c 0,14,15
 710 501 710 501 710 348 c 0,0,1
595 335 m 0,16,17
 596 496 596 496 539 581.5 c 128,-1,18
 482 667 482 667 370 668 c 0,19,20
 319 668 319 668 278.5 646.5 c 128,-1,21
 238 625 238 625 210 583.5 c 128,-1,22
 182 542 182 542 167.5 483 c 128,-1,23
 153 424 153 424 153 349 c 0,24,25
 153 201 153 201 209 112 c 0,26,27
 267 22 267 22 371 20 c 0,28,29
 473 19 473 19 532 96 c 0,30,31
 594 179 594 179 595 335 c 0,16,17
EndSplineSet
Validated: 33
EndChar

StartChar: P
Encoding: 80 80 52
Width: 578
GlyphClass: 2
Flags: W
LayerCount: 2
Fore
SplineSet
542 498 m 0,0,1
 542 307 542 307 301 308 c 0,2,3
 292 308 292 308 270 309.5 c 128,-1,4
 248 311 248 311 213 313 c 1,5,-1
 213 122 l 2,6,7
 213 55 213 55 228 42 c 0,8,9
 246 19 246 19 286 19 c 2,10,-1
 312 19 l 1,11,-1
 312 0 l 1,12,-1
 18 0 l 1,13,-1
 18 19 l 1,14,-1
 43 19 l 2,15,16
 89 19 89 19 105 47 c 0,17,18
 115 63 115 63 115 122 c 2,19,-1
 115 567 l 2,20,21
 115 632 115 632 102 648 c 0,22,23
 83 670 83 670 43 670 c 2,24,-1
 18 670 l 1,25,-1
 18 688 l 1,26,-1
 269 688 l 2,27,28
 407 688 407 688 463 645 c 0,29,30
 542 587 542 587 542 498 c 0,0,1
426 488 m 0,31,32
 427 555 427 555 390 600 c 0,33,34
 349 648 349 648 280 648 c 0,35,36
 256 648 256 648 213 638 c 1,37,-1
 213 347 l 1,38,39
 255 341 255 341 296 341 c 0,40,41
 323 341 323 341 346.5 351.5 c 128,-1,42
 370 362 370 362 387.5 381.5 c 128,-1,43
 405 401 405 401 415.5 428 c 128,-1,44
 426 455 426 455 426 488 c 0,31,32
EndSplineSet
Validated: 33
EndChar

StartChar: Q
Encoding: 81 81 53
Width: 751
GlyphClass: 2
Flags: W
LayerCount: 2
Fore
SplineSet
711 344 m 0,0,1
 711 219 711 219 642 123 c 0,2,3
 607 75 607 75 561.5 43 c 128,-1,4
 516 11 516 11 458 -6 c 1,5,6
 555 -174 555 -174 707 -186 c 1,7,-1
 707 -203 l 1,8,9
 591 -199 591 -199 467 -138 c 0,10,11
 354 -83 354 -83 283 -6 c 1,12,13
 36 79 36 79 36 345 c 0,14,15
 36 499 36 499 134 602 c 0,16,17
 233 704 233 704 379 704 c 0,18,19
 518 704 518 704 614 602 c 0,20,21
 711 501 711 501 711 344 c 0,0,1
595 331 m 0,22,23
 595 409 595 409 580.5 471 c 128,-1,24
 566 533 566 533 537.5 576.5 c 128,-1,25
 509 620 509 620 467.5 643 c 128,-1,26
 426 666 426 666 372 666 c 0,27,28
 269 666 269 666 211 583.5 c 128,-1,29
 153 501 153 501 153 345 c 0,30,31
 153 198 153 198 209 110 c 0,32,33
 267 21 267 21 372 19 c 0,34,35
 425 19 425 19 466.5 40 c 128,-1,36
 508 61 508 61 536.5 101 c 128,-1,37
 565 141 565 141 580 199 c 128,-1,38
 595 257 595 257 595 331 c 0,22,23
EndSplineSet
Validated: 1
EndChar

StartChar: R
Encoding: 82 82 54
Width: 694
GlyphClass: 2
Flags: W
LayerCount: 2
Fore
SplineSet
703 0 m 1,0,-1
 519 0 l 1,1,-1
 286 322 l 1,2,3
 230 319 230 319 213 322 c 1,4,-1
 213 122 l 2,5,6
 213 57 213 57 228 42 c 0,7,8
 246 19 246 19 286 19 c 2,9,-1
 313 19 l 1,10,-1
 313 0 l 1,11,-1
 18 0 l 1,12,-1
 18 19 l 1,13,-1
 44 19 l 2,14,15
 88 19 88 19 106 47 c 0,16,17
 116 61 116 61 116 122 c 2,18,-1
 116 567 l 2,19,20
 116 632 116 632 103 648 c 0,21,22
 81 670 81 670 44 670 c 2,23,-1
 18 670 l 1,24,-1
 18 688 l 1,25,-1
 268 688 l 2,26,27
 383 688 383 688 431 672 c 0,28,29
 485 655 485 655 520 613 c 0,30,31
 555 569 555 569 555 512 c 0,32,33
 555 372 555 372 386 335 c 1,34,-1
 527 137 l 2,35,36
 573 73 573 73 609 49 c 256,37,38
 645 25 645 25 703 19 c 1,39,-1
 703 0 l 1,0,-1
441 504 m 0,40,41
 441 570 441 570 400.5 609.5 c 128,-1,42
 360 649 360 649 293 650 c 0,43,44
 268 650 268 650 213 641 c 1,45,-1
 213 354 l 1,46,-1
 242 354 l 2,47,48
 339 354 339 354 392 396 c 0,49,50
 441 436 441 436 441 504 c 0,40,41
EndSplineSet
Validated: 33
EndChar

StartChar: S
Encoding: 83 83 55
Width: 578
GlyphClass: 2
Flags: W
LayerCount: 2
Fore
SplineSet
523 176 m 0,0,1
 523 96 523 96 461 40 c 0,2,3
 400 -15 400 -15 306 -15 c 0,4,5
 278 -15 278 -15 249.5 -10 c 128,-1,6
 221 -5 221 -5 190 4 c 0,7,8
 128 24 128 24 121 24 c 0,9,10
 96 24 96 24 90 -15 c 1,11,-1
 72 -15 l 1,12,-1
 72 220 l 1,13,-1
 90 220 l 1,14,15
 102 120 102 120 162 69 c 0,16,17
 214 24 214 24 295 24 c 0,18,19
 357 24 357 24 395 58 c 0,20,21
 432 89 432 89 432 136 c 0,22,23
 432 184 432 184 394 219 c 0,24,25
 380 232 380 232 348 252.5 c 128,-1,26
 316 273 316 273 266 301 c 0,27,28
 146 367 146 367 105 415 c 0,29,30
 66 458 66 458 66 523 c 0,31,32
 66 599 66 599 121 651 c 0,33,34
 177 704 177 704 266 704 c 0,35,36
 311 704 311 704 365 684 c 0,37,38
 416 665 416 665 425 665 c 0,39,40
 447 665 447 665 458 704 c 1,41,-1
 477 704 l 1,42,-1
 477 466 l 1,43,-1
 458 466 l 1,44,45
 453 513 453 513 437 549.5 c 128,-1,46
 421 586 421 586 395.5 611.5 c 128,-1,47
 370 637 370 637 337 650.5 c 128,-1,48
 304 664 304 664 267 664 c 0,49,50
 218 664 218 664 181 632 c 0,51,52
 146 600 146 600 146 558 c 0,53,54
 146 517 146 517 180 486 c 256,55,56
 214 455 214 455 317 399 c 0,57,58
 363 374 363 374 396 354.5 c 128,-1,59
 429 335 429 335 449 319 c 0,60,61
 523 263 523 263 523 176 c 0,0,1
EndSplineSet
Validated: 1
EndChar

StartChar: T
Encoding: 84 84 56
Width: 633
GlyphClass: 2
Flags: W
LayerCount: 2
Fore
SplineSet
609 527 m 1,0,-1
 587 527 l 1,1,2
 581 584 581 584 555 612 c 0,3,4
 522 646 522 646 461 646 c 2,5,-1
 364 646 l 1,6,-1
 364 120 l 2,7,8
 364 57 364 57 378 40 c 0,9,10
 396 19 396 19 437 19 c 2,11,-1
 461 19 l 1,12,-1
 461 0 l 1,13,-1
 169 0 l 1,14,-1
 169 19 l 1,15,-1
 194 19 l 2,16,17
 236 19 236 19 256 46 c 0,18,19
 266 62 266 62 266 120 c 2,20,-1
 266 646 l 1,21,-1
 184 646 l 2,22,23
 116 646 116 646 91 624 c 0,24,25
 54 597 54 597 48 527 c 1,26,-1
 25 527 l 1,27,-1
 32 688 l 1,28,-1
 603 688 l 1,29,-1
 609 527 l 1,0,-1
EndSplineSet
Validated: 1
EndChar

StartChar: U
Encoding: 85 85 57
Width: 751
GlyphClass: 2
Flags: W
LayerCount: 2
Fore
SplineSet
740 670 m 1,0,-1
 714 670 l 2,1,2
 676 670 676 670 652 635 c 0,3,4
 647 628 647 628 644 610 c 128,-1,5
 641 592 641 592 641 563 c 2,6,-1
 641 283 l 2,7,8
 641 121 641 121 581 60 c 0,9,10
 541 18 541 18 498 2 c 0,11,12
 451 -15 451 -15 375 -15 c 0,13,14
 192 -15 192 -15 134 100 c 0,15,16
 105 160 105 160 105 297 c 2,17,-1
 105 567 l 2,18,19
 105 619 105 619 94 641 c 0,20,21
 77 670 77 670 31 670 c 2,22,-1
 15 670 l 1,23,-1
 15 688 l 1,24,-1
 293 688 l 1,25,-1
 293 670 l 1,26,-1
 267 670 l 2,27,28
 232 670 232 670 216 643 c 0,29,30
 203 624 203 624 203 567 c 2,31,-1
 203 266 l 2,32,33
 203 164 203 164 227 113 c 0,34,35
 268 27 268 27 382 27 c 0,36,37
 480 27 480 27 547 89 c 0,38,39
 595 134 595 134 595 288 c 2,40,-1
 595 567 l 2,41,42
 595 631 595 631 581 648 c 0,43,44
 562 670 562 670 522 670 c 2,45,-1
 496 670 l 1,46,-1
 496 688 l 1,47,-1
 740 688 l 1,48,-1
 740 670 l 1,0,-1
EndSplineSet
Validated: 1
EndChar

StartChar: V
Encoding: 86 86 58
Width: 751
GlyphClass: 2
Flags: W
LayerCount: 2
Fore
SplineSet
738 670 m 1,0,1
 697 662 697 662 673 637 c 0,2,3
 653 615 653 615 635 571 c 2,4,-1
 395 -15 l 1,5,-1
 376 -15 l 1,6,-1
 119 578 l 2,7,8
 97 630 97 630 74 648 c 0,9,10
 52 666 52 666 9 670 c 1,11,-1
 9 688 l 1,12,-1
 290 688 l 1,13,-1
 290 670 l 1,14,15
 233 664 233 664 220 645 c 0,16,17
 214 636 214 636 214 622 c 0,18,19
 214 598 214 598 237 544 c 2,20,-1
 413 140 l 1,21,-1
 575 540 l 2,22,23
 599 598 599 598 599 619 c 0,24,25
 599 630 599 630 594 638 c 0,26,27
 581 660 581 660 526 670 c 1,28,-1
 526 688 l 1,29,-1
 738 688 l 1,30,-1
 738 670 l 1,0,1
EndSplineSet
Validated: 1
EndChar

StartChar: W
Encoding: 87 87 59
Width: 982
GlyphClass: 2
Flags: W
LayerCount: 2
Fore
SplineSet
973 670 m 1,0,1
 923 670 923 670 898 624 c 0,2,3
 887 604 887 604 865 540 c 2,4,-1
 674 -15 l 1,5,-1
 653 -15 l 1,6,-1
 497 424 l 1,7,-1
 341 -15 l 1,8,-1
 322 -15 l 1,9,-1
 118 556 l 2,10,11
 87 640 87 640 76 648 c 0,12,13
 58 670 58 670 14 670 c 1,14,-1
 14 688 l 1,15,-1
 268 688 l 1,16,-1
 268 670 l 1,17,-1
 256 670 l 2,18,19
 219 670 219 670 207 647 c 0,20,21
 202 637 202 637 202 629 c 0,22,23
 202 611 202 611 224 547 c 2,24,-1
 359 160 l 1,25,-1
 473 489 l 1,26,27
 467 509 467 509 461 526.5 c 128,-1,28
 455 544 455 544 449 560 c 0,29,30
 420 634 420 634 398 652 c 0,31,32
 375 670 375 670 341 670 c 1,33,-1
 341 688 l 1,34,-1
 609 688 l 1,35,-1
 609 670 l 1,36,-1
 591 670 l 2,37,38
 536 670 536 670 536 625 c 0,39,40
 536 595 536 595 558 535 c 2,41,-1
 691 160 l 1,42,-1
 822 540 l 2,43,44
 843 601 843 601 843 623 c 0,45,46
 843 670 843 670 768 670 c 1,47,-1
 768 688 l 1,48,-1
 973 688 l 1,49,-1
 973 670 l 1,0,1
EndSplineSet
Validated: 1
EndChar

StartChar: X
Encoding: 88 88 60
Width: 751
GlyphClass: 2
Flags: W
LayerCount: 2
Fore
SplineSet
738 0 m 1,0,-1
 443 0 l 1,1,-1
 443 19 l 1,2,3
 491 19 491 19 504 38 c 0,4,5
 512 49 512 49 512 58 c 0,6,7
 512 74 512 74 478 126 c 2,8,-1
 362 303 l 1,9,-1
 217 118 l 2,10,11
 186 78 186 78 186 58 c 0,12,13
 186 20 186 20 252 19 c 1,14,-1
 252 0 l 1,15,-1
 7 0 l 1,16,-1
 7 19 l 1,17,18
 88 22 88 22 177 133 c 2,19,-1
 340 339 l 1,20,-1
 204 538 l 2,21,22
 154 611 154 611 112 641 c 0,23,24
 74 667 74 667 22 670 c 1,25,-1
 22 688 l 1,26,-1
 340 688 l 1,27,-1
 340 670 l 1,28,29
 301 669 301 669 285 656.5 c 128,-1,30
 269 644 269 644 269 630 c 0,31,32
 269 612 269 612 293 576 c 2,33,-1
 399 418 l 1,34,-1
 521 573 l 2,35,36
 553 614 553 614 553 633 c 0,37,38
 553 642 553 642 547 650 c 0,39,40
 534 668 534 668 478 670 c 1,41,-1
 478 688 l 1,42,-1
 723 688 l 1,43,-1
 723 670 l 1,44,45
 672 667 672 667 637 640 c 0,46,47
 626 630 626 630 607 609 c 128,-1,48
 588 588 588 588 562 556 c 2,49,-1
 424 382 l 1,50,-1
 572 161 l 2,51,52
 632 72 632 72 662 47 c 0,53,54
 691 22 691 22 738 19 c 1,55,-1
 738 0 l 1,0,-1
EndSplineSet
Validated: 1
EndChar

StartChar: Y
Encoding: 89 89 61
Width: 751
GlyphClass: 2
Flags: W
LayerCount: 2
Fore
SplineSet
736 670 m 1,0,-1
 723 670 l 2,1,2
 678 670 678 670 638 625 c 0,3,4
 621 607 621 607 587 553 c 2,5,-1
 420 292 l 1,6,-1
 420 120 l 2,7,8
 420 56 420 56 435 40 c 0,9,10
 453 19 453 19 496 19 c 2,11,-1
 518 19 l 1,12,-1
 518 0 l 1,13,-1
 226 0 l 1,14,-1
 226 19 l 1,15,-1
 250 19 l 2,16,17
 292 19 292 19 312 46 c 0,18,19
 322 62 322 62 322 120 c 2,20,-1
 322 283 l 1,21,-1
 134 571 l 2,22,23
 123 588 123 588 116.5 598 c 128,-1,24
 110 608 110 608 106 613 c 0,25,26
 99 623 99 623 92.5 630 c 128,-1,27
 86 637 86 637 79 642 c 0,28,29
 44 670 44 670 9 670 c 1,30,-1
 9 688 l 1,31,-1
 304 688 l 1,32,-1
 304 670 l 1,33,-1
 289 670 l 2,34,35
 264 670 264 670 247 660 c 0,36,37
 225 647 225 647 225 625 c 0,38,39
 225 605 225 605 256 558 c 2,40,-1
 399 337 l 1,41,-1
 535 549 l 2,42,43
 566 598 566 598 566 620 c 0,44,45
 566 634 566 634 557 646 c 0,46,47
 542 670 542 670 496 670 c 1,48,-1
 496 688 l 1,49,-1
 736 688 l 1,50,-1
 736 670 l 1,0,-1
EndSplineSet
Validated: 1
EndChar

StartChar: Z
Encoding: 90 90 62
Width: 635
GlyphClass: 2
Flags: W
LayerCount: 2
Fore
SplineSet
606 182 m 1,0,-1
 574 0 l 1,1,-1
 14 0 l 1,2,-1
 14 19 l 1,3,-1
 454 648 l 1,4,-1
 235 648 l 2,5,6
 164 648 164 648 136 623 c 0,7,8
 108 599 108 599 94 516 c 1,9,-1
 75 516 l 1,10,-1
 89 688 l 1,11,-1
 598 688 l 1,12,-1
 146 42 l 1,13,-1
 428 42 l 2,14,15
 500 42 500 42 537 79 c 0,16,17
 551 93 551 93 564 120 c 128,-1,18
 577 147 577 147 590 185 c 1,19,-1
 606 182 l 1,0,-1
EndSplineSet
Validated: 1
EndChar

StartChar: bracketleft
Encoding: 91 91 63
Width: 346
GlyphClass: 2
Flags: W
LayerCount: 2
Fore
SplineSet
308 -205 m 1,0,-1
 84 -205 l 1,1,-1
 84 704 l 1,2,-1
 308 704 l 1,3,-1
 308 665 l 1,4,-1
 160 665 l 1,5,-1
 160 -165 l 1,6,-1
 308 -165 l 1,7,-1
 308 -205 l 1,0,-1
EndSplineSet
Validated: 1
EndChar

StartChar: backslash
Encoding: 92 92 64
Width: 289
GlyphClass: 2
Flags: W
LayerCount: 2
Fore
SplineSet
293 -14 m 1,0,-1
 251 -14 l 1,1,-1
 1 722 l 1,2,-1
 45 722 l 1,3,-1
 293 -14 l 1,0,-1
EndSplineSet
Validated: 1
EndChar

StartChar: bracketright
Encoding: 93 93 65
Width: 346
GlyphClass: 2
Flags: W
LayerCount: 2
Fore
SplineSet
262 -206 m 1,0,-1
 39 -206 l 1,1,-1
 39 -165 l 1,2,-1
 186 -165 l 1,3,-1
 186 665 l 1,4,-1
 39 665 l 1,5,-1
 39 704 l 1,6,-1
 262 704 l 1,7,-1
 262 -206 l 1,0,-1
EndSplineSet
Validated: 1
EndChar

StartChar: asciicircum
Encoding: 94 94 66
Width: 1000
GlyphClass: 2
Flags: W
LayerCount: 2
Fore
SplineSet
761 10 m 1,0,-1
 699 10 l 1,1,-1
 500 546 l 1,2,-1
 301 10 l 1,3,-1
 239 10 l 1,4,-1
 469 610 l 1,5,-1
 531 610 l 1,6,-1
 761 10 l 1,0,-1
EndSplineSet
Validated: 1
EndChar

StartChar: underscore
Encoding: 95 95 67
Width: 500
GlyphClass: 2
Flags: W
LayerCount: 2
Fore
SplineSet
500 -116 m 1,0,-1
 0 -116 l 1,1,-1
 0 -79 l 1,2,-1
 500 -79 l 1,3,-1
 500 -116 l 1,0,-1
EndSplineSet
Validated: 1
EndChar

StartChar: grave
Encoding: 96 96 68
Width: 390
GlyphClass: 2
Flags: W
LayerCount: 2
Fore
SplineSet
237 529 m 1,0,-1
 195 529 l 1,1,-1
 45 624 l 2,2,3
 0 652 0 652 0 669 c 0,4,5
 0 708 0 708 32 708 c 0,6,7
 59 708 59 708 93 674 c 2,8,-1
 237 529 l 1,0,-1
EndSplineSet
Validated: 1
EndChar

StartChar: a
Encoding: 97 97 69
Width: 462
GlyphClass: 2
Flags: W
LayerCount: 2
Fore
SplineSet
461 67 m 1,0,1
 405 -8 405 -8 350 -8 c 0,2,3
 296 -8 296 -8 296 67 c 1,4,5
 264 42 264 42 242.5 26.5 c 128,-1,6
 221 11 221 11 210 5 c 0,7,8
 181 -8 181 -8 148 -8 c 0,9,10
 97 -8 97 -8 67 24 c 128,-1,11
 37 56 37 56 37 110 c 0,12,13
 37 167 37 167 84 206 c 0,14,15
 141 255 141 255 296 308 c 1,16,-1
 296 327 l 2,17,18
 296 393 296 393 275 420.5 c 128,-1,19
 254 448 254 448 209 448 c 0,20,21
 178 448 178 448 159.5 432 c 128,-1,22
 141 416 141 416 139 391 c 2,23,-1
 140 361 l 2,24,25
 141 313 141 313 98 313 c 256,26,27
 55 313 55 313 55 362 c 0,28,29
 55 414 55 414 107 447 c 0,30,31
 157 478 157 478 225 478 c 0,32,33
 320 478 320 478 354 435 c 0,34,35
 381 402 381 402 381 320 c 2,36,-1
 381 161 l 2,37,38
 381 63 381 63 397 56 c 0,39,40
 400 55 400 55 406 55 c 0,41,42
 420 55 420 55 461 96 c 1,43,-1
 461 67 l 1,0,1
296 100 m 1,44,-1
 296 278 l 1,45,46
 189 236 189 236 151 200 c 0,47,48
 123 173 123 173 123 134 c 0,49,50
 123 98 123 98 143.5 74 c 128,-1,51
 164 50 164 50 194 49 c 0,52,53
 231 47 231 47 296 100 c 1,44,-1
EndSplineSet
Validated: 33
EndChar

StartChar: b
Encoding: 98 98 70
Width: 520
GlyphClass: 2
Flags: W
LayerCount: 2
Fore
SplineSet
484 251 m 0,0,1
 484 138 484 138 413 61 c 0,2,3
 344 -14 344 -14 244 -14 c 0,4,5
 162 -14 162 -14 75 45 c 1,6,-1
 75 526 l 2,7,8
 75 600 75 600 72 623 c 0,9,10
 69 642 69 642 59 649 c 0,11,12
 45 661 45 661 3 648 c 1,13,-1
 -3 666 l 1,14,-1
 136 722 l 1,15,-1
 160 722 l 1,16,-1
 160 385 l 1,17,18
 227 478 227 478 306 478 c 0,19,20
 380 478 380 478 431 418 c 0,21,22
 484 353 484 353 484 251 c 0,0,1
396 222 m 0,23,24
 396 264 396 264 386 298.5 c 128,-1,25
 376 333 376 333 358 357 c 128,-1,26
 340 381 340 381 316 394 c 128,-1,27
 292 407 292 407 265 407 c 0,28,29
 217 407 217 407 160 353 c 1,30,-1
 160 74 l 1,31,32
 211 23 211 23 270 23 c 0,33,34
 318 23 318 23 356 73 c 0,35,36
 396 128 396 128 396 222 c 0,23,24
EndSplineSet
Validated: 33
EndChar

StartChar: c
Encoding: 99 99 71
Width: 462
GlyphClass: 2
Flags: W
LayerCount: 2
Fore
SplineSet
427 177 m 1,0,1
 413 93 413 93 358 39 c 0,2,3
 304 -14 304 -14 233 -14 c 0,4,5
 149 -14 149 -14 92 53 c 256,6,7
 35 120 35 120 35 232 c 0,8,9
 35 339 35 339 101 410 c 0,10,11
 164 478 164 478 257 478 c 0,12,13
 310 478 310 478 359 450 c 0,14,15
 415 417 415 417 415 367 c 0,16,17
 415 324 415 324 367 324 c 0,18,19
 315 324 315 324 311 384 c 0,20,21
 307 445 307 445 240 445 c 0,22,23
 212 445 212 445 189.5 432.5 c 128,-1,24
 167 420 167 420 151 397.5 c 128,-1,25
 135 375 135 375 126.5 344 c 128,-1,26
 118 313 118 313 118 276 c 0,27,28
 118 188 118 188 157 130 c 0,29,30
 199 66 199 66 269 66 c 0,31,32
 364 66 364 66 413 184 c 1,33,-1
 427 177 l 1,0,1
EndSplineSet
Validated: 1
EndChar

StartChar: d
Encoding: 100 100 72
Width: 520
GlyphClass: 2
Flags: W
LayerCount: 2
Fore
SplineSet
524 43 m 1,0,-1
 384 -14 l 1,1,-1
 361 -14 l 1,2,-1
 361 52 l 1,3,4
 298 -14 298 -14 225 -14 c 0,5,6
 145 -14 145 -14 90 50 c 0,7,8
 34 115 34 115 34 213 c 0,9,10
 34 312 34 312 93 391 c 0,11,12
 157 477 157 477 260 479 c 0,13,14
 322 479 322 479 361 440 c 1,15,-1
 361 526 l 2,16,17
 361 602 361 602 357 622 c 0,18,19
 355 638 355 638 345 649 c 0,20,21
 332 662 332 662 290 648 c 1,22,-1
 283 666 l 1,23,-1
 423 722 l 1,24,-1
 446 722 l 1,25,-1
 446 184 l 2,26,27
 446 146 446 146 446 122 c 128,-1,28
 446 98 446 98 448 87 c 0,29,30
 449 77 449 77 453 70 c 128,-1,31
 457 63 457 63 462 59 c 0,32,33
 478 46 478 46 518 61 c 1,34,-1
 524 43 l 1,0,-1
361 88 m 1,35,-1
 361 328 l 2,36,37
 361 372 361 372 333 407 c 0,38,39
 301 446 301 446 254 448 c 0,40,41
 201 450 201 450 165 397 c 0,42,43
 128 342 128 342 128 254 c 0,44,45
 128 151 128 151 175 92 c 0,46,47
 215 44 215 44 271 42 c 0,48,49
 318 42 318 42 361 88 c 1,35,-1
EndSplineSet
Validated: 33
EndChar

StartChar: e
Encoding: 101 101 73
Width: 462
GlyphClass: 2
Flags: W
LayerCount: 2
Fore
SplineSet
432 170 m 1,0,1
 422 97 422 97 371 43 c 0,2,3
 318 -14 318 -14 241 -14 c 0,4,5
 154 -14 154 -14 97 52 c 0,6,7
 38 120 38 120 38 227 c 0,8,9
 38 343 38 343 98 411 c 256,10,11
 158 479 158 479 254 479 c 0,12,13
 293 479 293 479 325.5 466 c 128,-1,14
 358 453 358 453 382 428 c 128,-1,15
 406 403 406 403 419 368 c 128,-1,16
 432 333 432 333 432 290 c 1,17,-1
 110 290 l 1,18,19
 110 189 110 189 161 128 c 0,20,21
 208 71 208 71 280 69 c 0,22,23
 373 68 373 68 416 180 c 1,24,-1
 432 170 l 1,0,1
326 319 m 1,25,26
 326 386 326 386 288 419 c 0,27,28
 261 443 261 443 225 443 c 0,29,30
 182 443 182 443 149 410 c 128,-1,31
 116 377 116 377 110 319 c 1,32,-1
 326 319 l 1,25,26
EndSplineSet
Validated: 33
EndChar

StartChar: f
Encoding: 102 102 74
Width: 346
GlyphClass: 2
Flags: W
LayerCount: 2
Fore
SplineSet
452 635 m 0,0,1
 452 621 452 621 439.5 607 c 128,-1,2
 427 593 427 593 411 593 c 0,3,4
 385 593 385 593 354 638 c 0,5,6
 321 684 321 684 284 684 c 0,7,8
 239 684 239 684 225 640 c 0,9,10
 214 604 214 604 214 498 c 2,11,-1
 214 465 l 1,12,-1
 334 465 l 1,13,-1
 334 428 l 1,14,-1
 214 428 l 1,15,-1
 214 123 l 2,16,17
 214 56 214 56 229 41 c 0,18,19
 245 19 245 19 279 19 c 2,20,-1
 321 19 l 1,21,-1
 321 0 l 1,22,-1
 41 0 l 1,23,-1
 41 19 l 1,24,-1
 62 19 l 2,25,26
 89 19 89 19 109 36 c 256,27,28
 129 53 129 53 129 123 c 2,29,-1
 129 428 l 1,30,-1
 38 428 l 1,31,-1
 38 465 l 1,32,-1
 129 465 l 1,33,-1
 129 496 l 2,34,35
 129 629 129 629 215 688 c 0,36,37
 264 722 264 722 324 722 c 0,38,39
 370 722 370 722 411 695 c 0,40,41
 452 669 452 669 452 635 c 0,0,1
EndSplineSet
Validated: 1
EndChar

StartChar: g
Encoding: 103 103 75
Width: 520
GlyphClass: 2
Flags: W
LayerCount: 2
Fore
SplineSet
501 424 m 0,0,1
 501 409 501 409 495.5 404.5 c 128,-1,2
 490 400 490 400 468 400 c 2,3,-1
 408 400 l 1,4,5
 436 363 436 363 436 307 c 0,6,7
 438 241 438 241 388 197 c 0,8,9
 336 150 336 150 253 150 c 0,10,11
 215 150 215 150 182 160 c 1,12,13
 144 131 144 131 144 103 c 0,14,15
 144 91 144 91 153 84 c 0,16,17
 163 76 163 76 191 73 c 0,18,19
 221 70 221 70 333 67 c 0,20,21
 495 62 495 62 495 -42 c 0,22,23
 495 -114 495 -114 421 -168 c 0,24,25
 342 -224 342 -224 235 -224 c 0,26,27
 157 -224 157 -224 94 -193 c 0,28,29
 31 -163 31 -163 31 -127 c 0,30,31
 31 -88 31 -88 124 4 c 1,32,33
 76 35 76 35 76 60 c 0,34,35
 76 101 76 101 157 170 c 1,36,37
 115 189 115 189 92 227.5 c 128,-1,38
 69 266 69 266 69 311 c 0,39,40
 69 378 69 378 119 428 c 0,41,42
 171 478 171 478 254 478 c 0,43,44
 275 478 275 478 297.5 473 c 128,-1,45
 320 468 320 468 344 460 c 0,46,47
 391 443 391 443 423 443 c 0,48,49
 431 443 431 443 442 443.5 c 128,-1,50
 453 444 453 444 467 445 c 0,51,52
 475 446 475 446 482 445.5 c 128,-1,53
 489 445 489 445 494 444 c 0,54,55
 501 443 501 443 501 424 c 0,0,1
346 294 m 0,56,57
 346 366 346 366 319.5 410 c 128,-1,58
 293 454 293 454 245 454 c 0,59,60
 206 454 206 454 183 425 c 0,61,62
 157 393 157 393 157 333 c 0,63,64
 157 261 157 261 184 218 c 128,-1,65
 211 175 211 175 259 175 c 0,66,67
 346 175 346 175 346 294 c 0,56,57
458 -61 m 0,68,69
 458 -28 458 -28 408 -17 c 0,70,71
 398 -15 398 -15 378.5 -13 c 128,-1,72
 359 -11 359 -11 328 -10 c 0,73,74
 294 -8 294 -8 250.5 -6 c 128,-1,75
 207 -4 207 -4 152 0 c 1,76,77
 104 -53 104 -53 104 -88 c 0,78,79
 104 -104 104 -104 117 -117.5 c 128,-1,80
 130 -131 130 -131 153 -141 c 128,-1,81
 176 -151 176 -151 208.5 -156.5 c 128,-1,82
 241 -162 241 -162 280 -162 c 0,83,84
 364 -162 364 -162 414 -130 c 0,85,86
 458 -101 458 -101 458 -61 c 0,68,69
EndSplineSet
Validated: 33
EndChar

StartChar: h
Encoding: 104 104 76
Width: 520
GlyphClass: 2
Flags: W
LayerCount: 2
Fore
SplineSet
515 0 m 1,0,-1
 285 0 l 1,1,-1
 285 19 l 1,2,3
 307 19 307 19 322 22 c 128,-1,4
 337 25 337 25 345 33.5 c 128,-1,5
 353 42 353 42 356.5 56.5 c 128,-1,6
 360 71 360 71 360 95 c 2,7,-1
 360 269 l 2,8,9
 360 342 360 342 353 366 c 0,10,11
 338 417 338 417 285 417 c 0,12,13
 228 417 228 417 170 350 c 1,14,-1
 170 95 l 2,15,16
 170 49 170 49 181 35 c 0,17,18
 194 19 194 19 244 19 c 1,19,-1
 244 0 l 1,20,-1
 14 0 l 1,21,-1
 14 19 l 1,22,23
 59 19 59 19 73 37 c 0,24,25
 85 52 85 52 85 95 c 2,26,-1
 85 586 l 2,27,28
 85 656 85 656 51 656 c 0,29,30
 35 656 35 656 14 648 c 1,31,-1
 6 666 l 1,32,-1
 146 722 l 1,33,-1
 170 722 l 1,34,-1
 170 382 l 1,35,36
 234 478 234 478 324 478 c 0,37,38
 402 478 402 478 429 408 c 0,39,40
 445 366 445 366 445 269 c 2,41,-1
 445 95 l 2,42,43
 445 50 445 50 456 36 c 0,44,45
 470 19 470 19 515 19 c 1,46,-1
 515 0 l 1,0,-1
EndSplineSet
Validated: 1
EndChar

StartChar: i
Encoding: 105 105 77
Width: 289
GlyphClass: 2
Flags: W
LayerCount: 2
Fore
SplineSet
204 623 m 0,0,1
 204 601 204 601 189.5 586 c 128,-1,2
 175 571 175 571 153 571 c 256,3,4
 131 571 131 571 116 586 c 128,-1,5
 101 601 101 601 101 623 c 256,6,7
 101 645 101 645 116.5 659.5 c 128,-1,8
 132 674 132 674 153 674 c 256,9,10
 174 674 174 674 189 659 c 128,-1,11
 204 644 204 644 204 623 c 0,0,1
266 0 m 1,12,-1
 39 0 l 1,13,-1
 39 19 l 1,14,15
 60 19 60 19 74 22 c 128,-1,16
 88 25 88 25 96 33.5 c 128,-1,17
 104 42 104 42 107 56.5 c 128,-1,18
 110 71 110 71 110 95 c 2,19,-1
 110 344 l 2,20,21
 110 412 110 412 75 412 c 0,22,23
 65 412 65 412 39 404 c 1,24,-1
 32 422 l 1,25,-1
 173 478 l 1,26,-1
 195 478 l 1,27,-1
 195 95 l 2,28,29
 195 71 195 71 198 56.5 c 128,-1,30
 201 42 201 42 208.5 33.5 c 128,-1,31
 216 25 216 25 230 22 c 128,-1,32
 244 19 244 19 266 19 c 1,33,-1
 266 0 l 1,12,-1
EndSplineSet
Validated: 1
EndChar

StartChar: j
Encoding: 106 106 78
Width: 289
GlyphClass: 2
Flags: W
LayerCount: 2
Fore
SplineSet
203 623 m 256,0,1
 203 602 203 602 188 586.5 c 128,-1,2
 173 571 173 571 151 571 c 256,3,4
 129 571 129 571 114 586 c 128,-1,5
 99 601 99 601 99 623 c 0,6,7
 99 644 99 644 114.5 659.5 c 128,-1,8
 130 675 130 675 151 675 c 0,9,10
 171 675 171 675 187 659.5 c 128,-1,11
 203 644 203 644 203 623 c 256,0,1
195 10 m 2,12,13
 195 -106 195 -106 143 -167 c 0,14,15
 93 -224 93 -224 11 -224 c 0,16,17
 -32 -224 -32 -224 -57 -206 c 0,18,19
 -67 -199 -67 -199 -73 -191 c 128,-1,20
 -79 -183 -79 -183 -79 -173 c 0,21,22
 -80 -154 -80 -154 -67 -141.5 c 128,-1,23
 -54 -129 -54 -129 -37 -129 c 0,24,25
 -10 -129 -10 -129 22 -161 c 0,26,27
 44 -183 44 -183 63 -183 c 0,28,29
 96 -183 96 -183 105 -139 c 0,30,31
 108 -127 108 -127 109 -104 c 128,-1,32
 110 -81 110 -81 110 -47 c 2,33,-1
 110 283 l 2,34,35
 110 393 110 393 95 405 c 0,36,37
 79 418 79 418 38 404 c 1,38,-1
 32 422 l 1,39,-1
 173 478 l 1,40,-1
 195 478 l 1,41,-1
 195 10 l 2,12,13
EndSplineSet
Validated: 33
EndChar

StartChar: k
Encoding: 107 107 79
Width: 520
GlyphClass: 2
Flags: W
LayerCount: 2
Fore
SplineSet
526 0 m 1,0,-1
 300 0 l 1,1,-1
 300 19 l 1,2,3
 326 19 326 19 331 31 c 0,4,5
 337 47 337 47 313 77 c 2,6,-1
 171 257 l 1,7,-1
 171 105 l 2,8,9
 171 50 171 50 182 36 c 0,10,11
 196 19 196 19 245 19 c 1,12,-1
 245 0 l 1,13,-1
 7 0 l 1,14,-1
 7 19 l 1,15,16
 56 19 56 19 70 33 c 0,17,18
 84 49 84 49 84 102 c 2,19,-1
 84 525 l 2,20,21
 84 602 84 602 81 622 c 0,22,23
 79 641 79 641 70.5 648.5 c 128,-1,24
 62 656 62 656 50 656 c 256,25,26
 38 656 38 656 17 648 c 1,27,-1
 7 666 l 1,28,-1
 147 722 l 1,29,-1
 171 722 l 1,30,-1
 171 268 l 1,31,-1
 288 367 l 2,32,33
 336 407 336 407 336 423 c 0,34,35
 336 446 336 446 300 449 c 1,36,-1
 300 465 l 1,37,-1
 502 465 l 1,38,-1
 502 449 l 1,39,40
 481 448 481 448 464 445 c 128,-1,41
 447 442 447 442 432 435.5 c 128,-1,42
 417 429 417 429 402.5 419 c 128,-1,43
 388 409 388 409 372 394 c 2,44,-1
 250 285 l 1,45,-1
 372 133 l 2,46,47
 400 98 400 98 418 77 c 128,-1,48
 436 56 436 56 444 48 c 0,49,50
 455 39 455 39 482 23 c 0,51,52
 489 19 489 19 526 19 c 1,53,-1
 526 0 l 1,0,-1
EndSplineSet
Validated: 33
EndChar

StartChar: l
Encoding: 108 108 80
Width: 289
GlyphClass: 2
Flags: W
LayerCount: 2
Fore
SplineSet
267 0 m 1,0,-1
 39 0 l 1,1,-1
 39 19 l 1,2,3
 60 19 60 19 73 22.5 c 128,-1,4
 86 26 86 26 93.5 36 c 128,-1,5
 101 46 101 46 104 62.5 c 128,-1,6
 107 79 107 79 107 105 c 2,7,-1
 107 527 l 2,8,9
 107 601 107 601 104 624 c 0,10,11
 101 641 101 641 93 649 c 0,12,13
 73 661 73 661 39 648 c 1,14,-1
 30 666 l 1,15,-1
 170 722 l 1,16,-1
 192 722 l 1,17,-1
 192 105 l 2,18,19
 192 79 192 79 194.5 62.5 c 128,-1,20
 197 46 197 46 205.5 36.5 c 128,-1,21
 214 27 214 27 228.5 23 c 128,-1,22
 243 19 243 19 267 19 c 1,23,-1
 267 0 l 1,0,-1
EndSplineSet
Validated: 33
EndChar

StartChar: m
Encoding: 109 109 81
Width: 809
GlyphClass: 2
Flags: W
LayerCount: 2
Fore
SplineSet
805 0 m 1,0,-1
 575 0 l 1,1,-1
 575 19 l 1,2,3
 627 19 627 19 640 38 c 0,4,5
 650 52 650 52 650 105 c 2,6,-1
 650 306 l 2,7,8
 650 418 650 418 573 418 c 0,9,10
 516 418 516 418 453 355 c 1,11,-1
 453 105 l 2,12,13
 453 53 453 53 464 37 c 0,14,15
 477 19 477 19 528 19 c 1,16,-1
 528 0 l 1,17,-1
 292 0 l 1,18,-1
 292 19 l 1,19,20
 346 19 346 19 360 40 c 0,21,22
 368 54 368 54 368 105 c 2,23,-1
 368 306 l 2,24,25
 368 419 368 419 289 419 c 0,26,27
 230 419 230 419 170 355 c 1,28,-1
 170 105 l 2,29,30
 170 49 170 49 184 33 c 0,31,32
 198 19 198 19 245 19 c 1,33,-1
 245 0 l 1,34,-1
 15 0 l 1,35,-1
 15 19 l 1,36,37
 58 19 58 19 72 34 c 0,38,39
 85 50 85 50 85 105 c 2,40,-1
 85 283 l 2,41,42
 85 362 85 362 82 379 c 0,43,44
 76 412 76 412 50 412 c 0,45,46
 39 412 39 412 15 404 c 1,47,-1
 7 422 l 1,48,-1
 148 478 l 1,49,-1
 170 478 l 1,50,-1
 170 380 l 1,51,52
 196 409 196 409 219 429 c 128,-1,53
 242 449 242 449 261 460 c 0,54,55
 294 478 294 478 331 478 c 0,56,57
 426 478 426 478 449 380 c 1,58,59
 474 409 474 409 496 428.5 c 128,-1,60
 518 448 518 448 537 459 c 0,61,62
 571 478 571 478 612 478 c 0,63,64
 735 478 735 478 735 306 c 2,65,-1
 735 105 l 2,66,67
 735 78 735 78 738 61.5 c 128,-1,68
 741 45 741 45 749 35.5 c 128,-1,69
 757 26 757 26 770.5 22.5 c 128,-1,70
 784 19 784 19 805 19 c 1,71,-1
 805 0 l 1,0,-1
EndSplineSet
Validated: 1
EndChar

StartChar: n
Encoding: 110 110 82
Width: 520
GlyphClass: 2
Flags: W
LayerCount: 2
Fore
SplineSet
518 0 m 1,0,-1
 285 0 l 1,1,-1
 285 19 l 1,2,3
 336 19 336 19 348 34 c 0,4,5
 361 50 361 50 361 105 c 2,6,-1
 361 295 l 2,7,8
 361 359 361 359 344.5 387.5 c 128,-1,9
 328 416 328 416 288 416 c 0,10,11
 228 416 228 416 168 350 c 1,12,-1
 168 105 l 2,13,14
 168 52 168 52 178 39 c 0,15,16
 192 19 192 19 244 19 c 1,17,-1
 244 0 l 1,18,-1
 13 0 l 1,19,-1
 13 19 l 1,20,21
 57 19 57 19 70 35 c 256,22,23
 83 51 83 51 83 105 c 2,24,-1
 83 278 l 2,25,26
 83 391 83 391 68 405 c 0,27,28
 51 419 51 419 13 404 c 1,29,-1
 5 422 l 1,30,-1
 147 478 l 1,31,-1
 168 478 l 1,32,-1
 168 381 l 1,33,34
 250 478 250 478 324 478 c 0,35,36
 446 478 446 478 446 304 c 2,37,-1
 446 105 l 2,38,39
 446 56 446 56 456 40 c 0,40,41
 469 19 469 19 518 19 c 1,42,-1
 518 0 l 1,0,-1
EndSplineSet
Validated: 33
EndChar

StartChar: o
Encoding: 111 111 83
Width: 520
GlyphClass: 2
Flags: W
LayerCount: 2
Fore
SplineSet
484 241 m 0,0,1
 484 141 484 141 427 68 c 0,2,3
 363 -14 363 -14 255 -14 c 0,4,5
 159 -14 159 -14 97 57 c 0,6,7
 35 130 35 130 35 228 c 256,8,9
 35 326 35 326 95 400 c 0,10,11
 159 478 159 478 260 478 c 0,12,13
 358 478 358 478 421 410 c 256,14,15
 484 342 484 342 484 241 c 0,0,1
389 202 m 0,16,17
 389 309 389 309 349 377 c 0,18,19
 310 446 310 446 244 446 c 0,20,21
 197 446 197 446 167 409 c 0,22,23
 129 362 129 362 129 270 c 0,24,25
 129 166 129 166 169 96 c 0,26,27
 211 22 211 22 276 22 c 0,28,29
 389 22 389 22 389 202 c 0,16,17
EndSplineSet
Validated: 1
EndChar

StartChar: p
Encoding: 112 112 84
Width: 520
GlyphClass: 2
Flags: W
LayerCount: 2
Fore
SplineSet
485 250 m 0,0,1
 485 139 485 139 426 63 c 0,2,3
 367 -14 367 -14 272 -14 c 0,4,5
 208 -14 208 -14 161 27 c 1,6,-1
 161 -113 l 2,7,8
 161 -171 161 -171 173 -184 c 0,9,10
 187 -202 187 -202 240 -203 c 1,11,-1
 240 -222 l 1,12,-1
 -5 -222 l 1,13,-1
 -5 -203 l 1,14,15
 50 -201 50 -201 62 -185 c 0,16,17
 75 -171 75 -171 75 -111 c 2,18,-1
 75 328 l 2,19,20
 75 349 75 349 74.5 362.5 c 128,-1,21
 74 376 74 376 73 381 c 0,22,23
 70 397 70 397 58 404 c 0,24,25
 41 417 41 417 3 402 c 1,26,-1
 -2 419 l 1,27,-1
 142 477 l 1,28,-1
 161 477 l 1,29,-1
 161 368 l 1,30,31
 226 478 226 478 311 478 c 0,32,33
 386 478 386 478 436 413 c 0,34,35
 485 349 485 349 485 250 c 0,0,1
404 202 m 0,36,37
 404 308 404 308 364 365 c 0,38,39
 328 416 328 416 270 416 c 0,40,41
 242 416 242 416 216 394 c 0,42,43
 208 388 208 388 194.5 374 c 128,-1,44
 181 360 181 360 161 338 c 1,45,-1
 161 164 l 2,46,47
 161 112 161 112 166 90 c 0,48,49
 173 60 173 60 200.5 38 c 128,-1,50
 228 16 228 16 270 16 c 0,51,52
 330 16 330 16 367 66.5 c 128,-1,53
 404 117 404 117 404 202 c 0,36,37
EndSplineSet
Validated: 33
EndChar

StartChar: q
Encoding: 113 113 85
Width: 520
GlyphClass: 2
Flags: W
LayerCount: 2
Fore
SplineSet
522 -222 m 1,0,-1
 285 -222 l 1,1,-1
 285 -203 l 1,2,3
 332 -203 332 -203 346 -188 c 0,4,5
 361 -175 361 -175 361 -119 c 2,6,-1
 361 81 l 1,7,8
 282 -14 282 -14 208 -14 c 0,9,10
 139 -14 139 -14 89 45 c 0,11,12
 34 109 34 109 34 212 c 0,13,14
 34 327 34 327 102 403 c 0,15,16
 171 478 171 478 274 478 c 0,17,18
 338 478 338 478 370 446 c 1,19,20
 381 451 381 451 395 459 c 128,-1,21
 409 467 409 467 428 478 c 1,22,-1
 446 478 l 1,23,-1
 446 -119 l 2,24,25
 446 -171 446 -171 460 -187 c 0,26,27
 473 -203 473 -203 522 -203 c 1,28,-1
 522 -222 l 1,0,-1
361 112 m 1,29,-1
 361 331 l 2,30,31
 361 443 361 443 258 443 c 0,32,33
 198 443 198 443 161 395 c 0,34,35
 120 342 120 342 120 249 c 0,36,37
 120 157 120 157 162 105 c 0,38,39
 201 57 201 57 261 57 c 0,40,41
 312 57 312 57 361 112 c 1,29,-1
EndSplineSet
Validated: 1
EndChar

StartChar: r
Encoding: 114 114 86
Width: 356
GlyphClass: 2
Flags: W
LayerCount: 2
Fore
SplineSet
354 422 m 0,0,1
 354 404 354 404 340.5 389.5 c 128,-1,2
 327 375 327 375 308 375 c 0,3,4
 290 375 290 375 268 393 c 0,5,6
 245 411 245 411 236 411 c 0,7,8
 210 411 210 411 168 332 c 1,9,-1
 168 108 l 2,10,11
 168 61 168 61 184 42 c 0,12,13
 204 19 204 19 250 19 c 1,14,-1
 250 0 l 1,15,-1
 9 0 l 1,16,-1
 9 19 l 1,17,18
 55 19 55 19 69 33 c 0,19,20
 83 49 83 49 83 105 c 2,21,-1
 83 285 l 2,22,23
 83 387 83 387 68 405 c 1,24,25
 44 418 44 418 9 404 c 1,26,-1
 4 422 l 1,27,-1
 148 478 l 1,28,-1
 168 478 l 1,29,-1
 168 374 l 1,30,31
 227 478 227 478 288 478 c 0,32,33
 316 478 316 478 335 462 c 128,-1,34
 354 446 354 446 354 422 c 0,0,1
EndSplineSet
Validated: 33
EndChar

StartChar: s
Encoding: 115 115 87
Width: 405
GlyphClass: 2
Flags: W
LayerCount: 2
Fore
SplineSet
368 117 m 0,0,1
 368 65 368 65 321 24 c 0,2,3
 274 -14 274 -14 213 -14 c 0,4,5
 185 -14 185 -14 143 0 c 0,6,7
 99 14 99 14 88 16 c 0,8,9
 81 16 81 16 70 -6 c 1,10,-1
 53 -6 l 1,11,-1
 53 159 l 1,12,-1
 70 159 l 1,13,14
 84 91 84 91 124 52 c 0,15,16
 161 16 161 16 213 16 c 0,17,18
 249 16 249 16 270.5 36 c 128,-1,19
 292 56 292 56 293 85 c 0,20,21
 294 119 294 119 271 146 c 0,22,23
 260 159 260 159 236 173.5 c 128,-1,24
 212 188 212 188 175 208 c 0,25,26
 139 227 139 227 115 243.5 c 128,-1,27
 91 260 91 260 77 277.5 c 128,-1,28
 63 295 63 295 57 313.5 c 128,-1,29
 51 332 51 332 51 354 c 0,30,31
 51 408 51 408 90.5 443 c 128,-1,32
 130 478 130 478 202 478 c 0,33,34
 226 478 226 478 262 469 c 256,35,36
 298 460 298 460 303 460 c 0,37,38
 317 460 317 460 326 478 c 1,39,-1
 343 478 l 1,40,-1
 343 320 l 1,41,-1
 326 320 l 1,42,43
 294 449 294 449 200 449 c 0,44,45
 111 449 111 449 110 388 c 256,46,47
 109 327 109 327 186 291 c 2,48,-1
 261 256 l 2,49,50
 368 206 368 206 368 117 c 0,0,1
EndSplineSet
Validated: 33
EndChar

StartChar: t
Encoding: 116 116 88
Width: 289
GlyphClass: 2
Flags: W
LayerCount: 2
Fore
SplineSet
290 85 m 1,0,1
 275 38 275 38 239 9 c 0,2,3
 207 -14 207 -14 174 -14 c 0,4,5
 82 -14 82 -14 82 108 c 2,6,-1
 82 430 l 1,7,-1
 8 430 l 1,8,-1
 8 446 l 1,9,10
 47 460 47 460 94 515 c 0,11,12
 108 531 108 531 122 557 c 128,-1,13
 136 583 136 583 152 618 c 1,14,-1
 167 618 l 1,15,-1
 167 465 l 1,16,-1
 276 465 l 1,17,-1
 276 430 l 1,18,-1
 167 430 l 1,19,-1
 167 120 l 2,20,21
 167 44 167 44 213 43 c 0,22,23
 250 41 250 41 270 85 c 1,24,-1
 290 85 l 1,0,1
EndSplineSet
Validated: 33
EndChar

StartChar: u
Encoding: 117 117 89
Width: 520
GlyphClass: 2
Flags: W
LayerCount: 2
Fore
SplineSet
521 43 m 1,0,-1
 380 -14 l 1,1,-1
 357 -14 l 1,2,-1
 357 84 l 1,3,4
 329 55 329 55 306.5 35 c 128,-1,5
 284 15 284 15 267 5 c 0,6,7
 232 -14 232 -14 199 -14 c 0,8,9
 79 -14 79 -14 79 166 c 2,10,-1
 79 374 l 2,11,12
 79 418 79 418 62 432 c 128,-1,13
 45 446 45 446 0 446 c 1,14,-1
 0 465 l 1,15,-1
 164 465 l 1,16,-1
 164 154 l 2,17,18
 164 48 164 48 241 48 c 0,19,20
 291 48 291 48 357 114 c 1,21,-1
 357 378 l 2,22,23
 357 419 357 419 339 433 c 0,24,25
 324 445 324 445 282 446 c 1,26,-1
 282 465 l 1,27,-1
 442 465 l 1,28,-1
 442 123 l 2,29,30
 442 53 442 53 473 53 c 0,31,32
 493 53 493 53 514 61 c 1,33,-1
 521 43 l 1,0,-1
EndSplineSet
Validated: 1
EndChar

StartChar: v
Encoding: 118 118 90
Width: 520
GlyphClass: 2
Flags: W
LayerCount: 2
Fore
SplineSet
511 446 m 1,0,1
 486 445 486 445 473 436 c 0,2,3
 455 418 455 418 442 385 c 2,4,-1
 277 -14 l 1,5,-1
 256 -14 l 1,6,-1
 89 379 l 2,7,8
 73 419 73 419 43 438 c 0,9,10
 36 442 36 442 8 446 c 1,11,-1
 8 465 l 1,12,-1
 228 465 l 1,13,-1
 228 446 l 1,14,-1
 213 446 l 2,15,16
 173 446 173 446 173 409 c 0,17,18
 173 391 173 391 183 368 c 2,19,-1
 291 112 l 1,20,-1
 400 379 l 2,21,22
 417 421 417 421 408 434 c 0,23,24
 400 446 400 446 359 446 c 1,25,-1
 359 465 l 1,26,-1
 511 465 l 1,27,-1
 511 446 l 1,0,1
EndSplineSet
Validated: 33
EndChar

StartChar: w
Encoding: 119 119 91
Width: 751
GlyphClass: 2
Flags: W
LayerCount: 2
Fore
SplineSet
742 446 m 1,0,1
 696 440 696 440 676 387 c 2,2,-1
 521 -14 l 1,3,-1
 500 -14 l 1,4,-1
 384 283 l 1,5,-1
 249 -14 l 1,6,-1
 230 -14 l 1,7,-1
 80 376 l 2,8,9
 73 394 73 394 66.5 406.5 c 128,-1,10
 60 419 60 419 52 426.5 c 128,-1,11
 44 434 44 434 33 438.5 c 128,-1,12
 22 443 22 443 6 446 c 1,13,-1
 6 465 l 1,14,-1
 202 465 l 1,15,-1
 202 446 l 1,16,17
 175 445 175 445 166.5 437 c 128,-1,18
 158 429 158 429 158 414 c 0,19,20
 158 406 158 406 159.5 396.5 c 128,-1,21
 161 387 161 387 166 376 c 2,22,-1
 266 109 l 1,23,-1
 366 327 l 1,24,-1
 340 396 l 2,25,26
 330 424 330 424 308 438 c 0,27,28
 299 444 299 444 266 446 c 1,29,-1
 266 465 l 1,30,-1
 488 465 l 1,31,-1
 488 446 l 1,32,33
 449 444 449 444 437 434.5 c 128,-1,34
 425 425 425 425 425 405 c 0,35,36
 425 395 425 395 430 387 c 2,37,-1
 536 120 l 1,38,-1
 633 376 l 2,39,40
 644 406 644 406 644 420 c 0,41,42
 644 446 644 446 595 446 c 1,43,-1
 595 465 l 1,44,-1
 742 465 l 1,45,-1
 742 446 l 1,0,1
EndSplineSet
Validated: 1
EndChar

StartChar: x
Encoding: 120 120 92
Width: 520
GlyphClass: 2
Flags: W
LayerCount: 2
Fore
SplineSet
508 0 m 1,0,-1
 288 0 l 1,1,-1
 288 19 l 1,2,3
 334 19 334 19 334 48 c 0,4,5
 334 56 334 56 329 64 c 2,6,-1
 233 206 l 1,7,-1
 132 71 l 2,8,9
 124 60 124 60 124 49 c 0,10,11
 124 20 124 20 170 19 c 1,12,-1
 170 0 l 1,13,-1
 18 0 l 1,14,-1
 18 19 l 1,15,16
 38 21 38 21 56 37 c 0,17,18
 74 52 74 52 114 106 c 2,19,-1
 212 236 l 1,20,-1
 124 364 l 2,21,22
 88 416 88 416 66 432 c 0,23,24
 49 444 49 444 14 446 c 1,25,-1
 14 465 l 1,26,-1
 233 465 l 1,27,-1
 233 446 l 1,28,29
 194 447 194 447 194 421 c 0,30,31
 194 413 194 413 197 409 c 2,32,-1
 263 305 l 1,33,-1
 332 405 l 2,34,35
 338 412 338 412 338 422 c 0,36,37
 338 446 338 446 301 446 c 1,38,-1
 301 465 l 1,39,-1
 458 465 l 1,40,-1
 458 446 l 1,41,42
 427 445 427 445 405 427 c 0,43,44
 394 418 394 418 379.5 401 c 128,-1,45
 365 384 365 384 346 358 c 2,46,-1
 283 272 l 1,47,-1
 399 106 l 2,48,49
 428 64 428 64 460 32 c 0,50,51
 472 20 472 20 508 19 c 1,52,-1
 508 0 l 1,0,-1
EndSplineSet
Validated: 33
EndChar

StartChar: y
Encoding: 121 121 93
Width: 520
GlyphClass: 2
Flags: W
LayerCount: 2
Fore
SplineSet
514 446 m 1,0,1
 491 445 491 445 478 433 c 0,2,3
 463 419 463 419 445 376 c 2,4,-1
 256 -87 l 2,5,6
 230 -151 230 -151 187 -187.5 c 128,-1,7
 144 -224 144 -224 99 -224 c 0,8,9
 69 -224 69 -224 49.5 -207 c 128,-1,10
 30 -190 30 -190 30 -166 c 0,11,12
 30 -120 30 -120 82 -120 c 0,13,14
 94 -120 94 -120 123 -129 c 0,15,16
 151 -138 151 -138 153 -138 c 0,17,18
 191 -138 191 -138 223 -61 c 2,19,-1
 256 19 l 1,20,-1
 89 369 l 2,21,22
 73 403 73 403 62 415 c 0,23,24
 39 443 39 443 6 446 c 1,25,-1
 6 465 l 1,26,-1
 223 465 l 1,27,-1
 223 446 l 1,28,-1
 212 446 l 2,29,30
 166 446 166 446 166 412 c 0,31,32
 166 393 166 393 183 357 c 2,33,-1
 296 123 l 1,34,-1
 400 380 l 2,35,36
 419 417 419 417 406 435 c 0,37,38
 398 446 398 446 363 446 c 1,39,-1
 363 465 l 1,40,-1
 514 465 l 1,41,-1
 514 446 l 1,0,1
EndSplineSet
Validated: 33
EndChar

StartChar: z
Encoding: 122 122 94
Width: 462
GlyphClass: 2
Flags: W
LayerCount: 2
Fore
SplineSet
445 446 m 1,0,-1
 133 34 l 1,1,-1
 303 34 l 2,2,3
 330 34 330 34 347.5 36.5 c 128,-1,4
 365 39 365 39 376 43.5 c 128,-1,5
 387 48 387 48 392.5 53 c 128,-1,6
 398 58 398 58 401 64 c 0,7,8
 411 83 411 83 419 142 c 1,9,-1
 437 142 l 1,10,-1
 431 0 l 1,11,-1
 21 0 l 1,12,-1
 21 19 l 1,13,-1
 330 430 l 1,14,-1
 177 430 l 2,15,16
 155 430 155 430 139 429 c 128,-1,17
 123 428 123 428 112 423 c 0,18,19
 80 410 80 410 72 336 c 1,20,-1
 52 336 l 1,21,-1
 55 465 l 1,22,-1
 445 465 l 1,23,-1
 445 446 l 1,0,-1
EndSplineSet
Validated: 1
EndChar

StartChar: braceleft
Encoding: 123 123 95
Width: 497
GlyphClass: 2
Flags: W
LayerCount: 2
Fore
SplineSet
393 -223 m 1,0,1
 319 -216 319 -216 261 -158 c 0,2,3
 204 -103 204 -103 204 -28 c 0,4,5
 204 -14 204 -14 207 5.5 c 128,-1,6
 210 25 210 25 215 51 c 0,7,8
 227 103 227 103 227 125 c 0,9,10
 227 170 227 170 187 203 c 0,11,12
 152 232 152 232 111 236 c 1,13,-1
 111 262 l 1,14,15
 152 266 152 266 187 295 c 0,16,17
 227 326 227 326 227 371 c 0,18,19
 227 392 227 392 215 448 c 0,20,21
 204 506 204 506 204 534 c 0,22,23
 204 605 204 605 263 661 c 0,24,25
 321 715 321 715 393 722 c 1,26,-1
 393 704 l 1,27,28
 280 675 280 675 280 570 c 0,29,30
 280 558 280 558 283 540.5 c 128,-1,31
 286 523 286 523 291 500 c 256,32,33
 296 477 296 477 299 459.5 c 128,-1,34
 302 442 302 442 302 429 c 0,35,36
 302 298 302 298 163 249 c 1,37,38
 302 200 302 200 302 67 c 0,39,40
 302 45 302 45 291 -1 c 0,41,42
 286 -24 286 -24 283 -41.5 c 128,-1,43
 280 -59 280 -59 280 -71 c 0,44,45
 280 -176 280 -176 393 -205 c 1,46,-1
 393 -223 l 1,0,1
EndSplineSet
Validated: 1
EndChar

StartChar: bar
Encoding: 124 124 96
Width: 208
GlyphClass: 2
Flags: W
LayerCount: 2
Fore
SplineSet
125 -224 m 1,0,-1
 82 -224 l 1,1,-1
 82 722 l 1,2,-1
 125 722 l 1,3,-1
 125 -224 l 1,0,-1
EndSplineSet
Validated: 1
EndChar

StartChar: braceright
Encoding: 125 125 97
Width: 497
GlyphClass: 2
Flags: W
LayerCount: 2
Fore
SplineSet
386 236 m 1,0,1
 345 232 345 232 310 203 c 0,2,3
 270 170 270 170 270 125 c 0,4,5
 270 106 270 106 281 51 c 0,6,7
 293 -1 293 -1 293 -28 c 0,8,9
 293 -103 293 -103 236 -158 c 0,10,11
 178 -216 178 -216 104 -223 c 1,12,-1
 104 -205 l 1,13,14
 217 -176 217 -176 217 -71 c 0,15,16
 217 -59 217 -59 214 -41.5 c 128,-1,17
 211 -24 211 -24 206 -1 c 0,18,19
 195 45 195 45 195 67 c 0,20,21
 195 200 195 200 334 249 c 1,22,23
 195 298 195 298 195 429 c 0,24,25
 195 442 195 442 198 459.5 c 128,-1,26
 201 477 201 477 206 500 c 256,27,28
 211 523 211 523 214 540.5 c 128,-1,29
 217 558 217 558 217 570 c 0,30,31
 217 675 217 675 104 704 c 1,32,-1
 104 722 l 1,33,34
 176 715 176 715 234 661 c 0,35,36
 293 605 293 605 293 534 c 0,37,38
 293 503 293 503 281 448 c 0,39,40
 276 420 276 420 273 401 c 128,-1,41
 270 382 270 382 270 371 c 0,42,43
 270 326 270 326 310 295 c 0,44,45
 345 266 345 266 386 262 c 1,46,-1
 386 236 l 1,0,1
EndSplineSet
Validated: 1
EndChar

StartChar: asciitilde
Encoding: 126 126 98
Width: 566
GlyphClass: 2
Flags: W
LayerCount: 2
Fore
SplineSet
546 320 m 1,0,1
 487 209 487 209 403 209 c 0,2,3
 361 209 361 209 278 246 c 0,4,5
 194 284 194 284 159 284 c 0,6,7
 122 284 122 284 92 252 c 0,8,9
 84 244 84 244 73 227.5 c 128,-1,10
 62 211 62 211 48 188 c 1,11,-1
 20 225 l 1,12,13
 52 283 52 283 76 307 c 0,14,15
 116 345 116 345 164 345 c 0,16,17
 202 345 202 345 292 306 c 0,18,19
 383 268 383 268 408 268 c 0,20,21
 472 268 472 268 517 358 c 1,22,-1
 546 320 l 1,0,1
EndSplineSet
Validated: 1
EndChar

StartChar: exclamdown
Encoding: 161 161 100
Width: 346
GlyphClass: 2
Flags: W
LayerCount: 2
Fore
SplineSet
230 437 m 0,0,1
 230 412 230 412 212.5 397 c 128,-1,2
 195 382 195 382 173 382 c 0,3,4
 152 382 152 382 134.5 397.5 c 128,-1,5
 117 413 117 413 117 437 c 256,6,7
 117 461 117 461 133.5 478 c 128,-1,8
 150 495 150 495 173 495 c 0,9,10
 193 495 193 495 210 481 c 0,11,12
 230 464 230 464 230 437 c 0,0,1
231 -152 m 0,13,14
 231 -185 231 -185 214.5 -204 c 128,-1,15
 198 -223 198 -223 172 -223 c 0,16,17
 151 -223 151 -223 134 -206 c 0,18,19
 115 -186 115 -186 115 -147 c 0,20,21
 115 -139 115 -139 115.5 -130.5 c 128,-1,22
 116 -122 116 -122 117 -113 c 2,23,-1
 163 298 l 1,24,-1
 183 298 l 1,25,-1
 227 -113 l 2,26,27
 229 -132 229 -132 230 -141.5 c 128,-1,28
 231 -151 231 -151 231 -152 c 0,13,14
EndSplineSet
Validated: 1
EndChar

StartChar: cent
Encoding: 162 162 101
Width: 520
GlyphClass: 2
Flags: W
LayerCount: 2
Fore
SplineSet
456 177 m 1,0,1
 442 93 442 93 387 39 c 0,2,3
 333 -14 333 -14 262 -14 c 0,4,5
 225 -14 225 -14 191 0 c 1,6,-1
 122 -191 l 1,7,-1
 86 -191 l 1,8,-1
 162 16 l 1,9,10
 64 84 64 84 64 232 c 0,11,12
 64 339 64 339 130 410 c 0,13,14
 193 478 193 478 286 478 c 0,15,16
 313 478 313 478 328 474 c 1,17,-1
 400 673 l 1,18,-1
 436 673 l 1,19,-1
 361 465 l 1,20,21
 377 458 377 458 390.5 448 c 128,-1,22
 404 438 404 438 416 426 c 0,23,24
 444 395 444 395 444 367 c 0,25,26
 444 324 444 324 396 324 c 0,27,28
 344 324 344 324 340 384 c 1,29,-1
 337 400 l 1,30,-1
 224 89 l 1,31,32
 259 66 259 66 298 66 c 0,33,34
 393 66 393 66 442 184 c 1,35,-1
 456 177 l 1,0,1
313 434 m 1,36,37
 296 445 296 445 269 445 c 0,38,39
 241 445 241 445 218.5 432.5 c 128,-1,40
 196 420 196 420 180 397.5 c 128,-1,41
 164 375 164 375 155.5 344 c 128,-1,42
 147 313 147 313 147 276 c 0,43,44
 147 174 147 174 197 115 c 1,45,46
 235 218 235 218 264 297.5 c 128,-1,47
 293 377 293 377 313 434 c 1,36,37
EndSplineSet
Validated: 1
EndChar

StartChar: sterling
Encoding: 163 163 102
Width: 520
GlyphClass: 2
Flags: W
LayerCount: 2
Fore
SplineSet
496 154 m 1,0,1
 489 90 489 90 453 42 c 0,2,3
 413 -11 413 -11 350 -11 c 0,4,5
 308 -11 308 -11 271 9 c 0,6,7
 259 16 259 16 185 70 c 1,8,9
 147 -11 147 -11 90 -11 c 0,10,11
 31 -11 31 -11 31 53 c 0,12,13
 31 96 31 96 62 117 c 0,14,15
 84 132 84 132 114 132 c 0,16,17
 141 132 141 132 157 128 c 1,18,19
 161 176 161 176 148 335 c 1,20,-1
 50 335 l 1,21,-1
 50 383 l 1,22,-1
 148 383 l 1,23,24
 147 395 147 395 146 410.5 c 128,-1,25
 145 426 145 426 143 446 c 0,26,27
 141 460 141 460 141 469.5 c 128,-1,28
 141 479 141 479 141 484 c 0,29,30
 141 588 141 588 203 650 c 0,31,32
 258 703 258 703 330 703 c 0,33,34
 385 703 385 703 422 671 c 0,35,36
 458 639 458 639 458 599 c 0,37,38
 458 584 458 584 446 570.5 c 128,-1,39
 434 557 434 557 419 557 c 0,40,41
 379 557 379 557 379 616 c 256,42,43
 379 675 379 675 317 675 c 0,44,45
 225 675 225 675 225 532 c 0,46,47
 225 518 225 518 228 481 c 128,-1,48
 231 444 231 444 236 383 c 1,49,-1
 367 383 l 1,50,-1
 367 335 l 1,51,-1
 236 335 l 1,52,53
 236 301 236 301 236 281.5 c 128,-1,54
 236 262 236 262 235 256 c 0,55,56
 231 184 231 184 205 119 c 1,57,58
 331 77 331 77 370 77 c 0,59,60
 455 77 455 77 477 159 c 1,61,-1
 496 154 l 1,0,1
152 87 m 1,62,63
 132 101 132 101 108 101 c 0,64,65
 60 101 60 101 60 57 c 0,66,67
 60 18 60 18 94 18 c 0,68,69
 134 18 134 18 152 87 c 1,62,63
EndSplineSet
Validated: 33
EndChar

StartChar: currency
Encoding: 164 164 103
Width: 600
GlyphClass: 2
Flags: W
LayerCount: 2
Fore
SplineSet
570 196 m 1,0,-1
 534 160 l 1,1,-1
 431 263 l 1,2,3
 375 216 375 216 302 216 c 0,4,5
 224 216 224 216 169 263 c 1,6,-1
 66 160 l 1,7,-1
 30 196 l 1,8,-1
 133 299 l 1,9,10
 89 355 89 355 89 427 c 0,11,12
 89 510 89 510 135 559 c 1,13,-1
 30 664 l 1,14,-1
 66 700 l 1,15,-1
 171 595 l 1,16,17
 227 639 227 639 302 639 c 0,18,19
 375 639 375 639 428 594 c 1,20,-1
 534 700 l 1,21,-1
 570 664 l 1,22,-1
 466 560 l 1,23,24
 511 504 511 504 511 428 c 256,25,26
 511 352 511 352 467 299 c 1,27,-1
 570 196 l 1,0,-1
454 428 m 0,28,29
 454 489 454 489 409 536 c 0,30,31
 364 582 364 582 302 582 c 0,32,33
 237 582 237 582 191 537 c 0,34,35
 146 492 146 492 146 427 c 0,36,37
 146 363 146 363 191 318 c 0,38,39
 237 273 237 273 302 273 c 0,40,41
 366 273 366 273 409 319 c 0,42,43
 454 365 454 365 454 428 c 0,28,29
EndSplineSet
Validated: 1
EndChar

StartChar: yen
Encoding: 165 165 104
Width: 520
GlyphClass: 2
Flags: W
LayerCount: 2
Fore
SplineSet
520 670 m 1,0,1
 489 670 489 670 475 657 c 0,2,3
 453 638 453 638 432 591 c 2,4,-1
 322 344 l 1,5,-1
 510 344 l 1,6,-1
 510 307 l 1,7,-1
 307 307 l 1,8,-1
 303 298 l 1,9,-1
 303 216 l 1,10,-1
 510 216 l 1,11,-1
 510 179 l 1,12,-1
 303 179 l 1,13,-1
 303 124 l 2,14,15
 303 55 303 55 316 41 c 0,16,17
 333 21 333 21 369 21 c 2,18,-1
 390 21 l 1,19,-1
 390 0 l 1,20,-1
 128 0 l 1,21,-1
 128 21 l 1,22,-1
 145 21 l 2,23,24
 186 21 186 21 206 42 c 0,25,26
 216 52 216 52 216 124 c 2,27,-1
 216 179 l 1,28,-1
 10 179 l 1,29,-1
 10 216 l 1,30,-1
 216 216 l 1,31,-1
 216 289 l 1,32,-1
 209 307 l 1,33,-1
 10 307 l 1,34,-1
 10 344 l 1,35,-1
 192 344 l 1,36,-1
 84 596 l 2,37,38
 65 642 65 642 48 654 c 0,39,40
 32 667 32 667 1 670 c 1,41,-1
 1 688 l 1,42,-1
 226 688 l 1,43,-1
 226 670 l 1,44,45
 192 667 192 667 177.5 658 c 128,-1,46
 163 649 163 649 163 638 c 0,47,48
 163 635 163 635 174 608 c 2,49,-1
 282 344 l 1,50,-1
 390 600 l 2,51,52
 400 623 400 623 400 638 c 0,53,54
 400 652 400 652 390 659 c 0,55,56
 376 668 376 668 344 670 c 1,57,-1
 344 688 l 1,58,-1
 520 688 l 1,59,-1
 520 670 l 1,0,1
EndSplineSet
Validated: 1
EndChar

StartChar: brokenbar
Encoding: 166 166 105
Width: 315
GlyphClass: 2
Flags: W
LayerCount: 2
Fore
SplineSet
183 336 m 1,0,-1
 132 336 l 1,1,-1
 132 736 l 1,2,-1
 183 736 l 1,3,-1
 183 336 l 1,0,-1
183 -197 m 1,4,-1
 132 -197 l 1,5,-1
 132 202 l 1,6,-1
 183 202 l 1,7,-1
 183 -197 l 1,4,-1
EndSplineSet
Validated: 1
EndChar

StartChar: section
Encoding: 167 167 106
Width: 520
GlyphClass: 2
Flags: W
LayerCount: 2
Fore
SplineSet
441 244 m 0,0,1
 441 140 441 140 329 71 c 1,2,3
 391 3 391 3 391 -57 c 0,4,5
 391 -121 391 -121 348 -161 c 0,6,7
 305 -202 305 -202 246 -202 c 0,8,9
 199 -202 199 -202 162 -173 c 0,10,11
 120 -140 120 -140 120 -88 c 0,12,13
 120 -67 120 -67 132 -55 c 128,-1,14
 144 -43 144 -43 159 -43 c 0,15,16
 176 -43 176 -43 187 -56 c 128,-1,17
 198 -69 198 -69 198 -87 c 0,18,19
 198 -92 198 -92 193 -115 c 0,20,21
 189 -134 189 -134 189 -143 c 0,22,23
 189 -161 189 -161 208 -171.5 c 128,-1,24
 227 -182 227 -182 250 -182 c 0,25,26
 282 -182 282 -182 311 -155 c 0,27,28
 339 -128 339 -128 339 -99 c 0,29,30
 339 -32 339 -32 235 43 c 0,31,32
 155 102 155 102 121 146 c 0,33,34
 79 200 79 200 79 256 c 0,35,36
 79 361 79 361 191 428 c 1,37,38
 128 503 128 503 128 560 c 0,39,40
 128 627 128 627 180 669 c 0,41,42
 223 703 223 703 272 703 c 0,43,44
 325 703 325 703 362 672 c 0,45,46
 401 640 401 640 401 591 c 0,47,48
 401 545 401 545 361 545 c 0,49,50
 344 545 344 545 332.5 557.5 c 128,-1,51
 321 570 321 570 321 584 c 0,52,53
 321 586 321 586 322 592 c 128,-1,54
 323 598 323 598 324.5 605.5 c 128,-1,55
 326 613 326 613 327 620.5 c 128,-1,56
 328 628 328 628 328 633 c 0,57,58
 328 681 328 681 272 681 c 0,59,60
 232 681 232 681 208 655 c 128,-1,61
 184 629 184 629 184 593 c 0,62,63
 184 553 184 553 211 520 c 0,64,65
 227 500 227 500 275 464 c 0,66,67
 353 405 353 405 383 372 c 0,68,69
 441 310 441 310 441 244 c 0,0,1
389 198 m 0,70,71
 389 214 389 214 384 230.5 c 128,-1,72
 379 247 379 247 367 265.5 c 128,-1,73
 355 284 355 284 334 305.5 c 128,-1,74
 313 327 313 327 281 353 c 0,75,76
 263 368 263 368 244.5 382.5 c 128,-1,77
 226 397 226 397 208 412 c 1,78,79
 130 365 130 365 130 299 c 0,80,81
 130 268 130 268 150 234 c 0,82,83
 172 196 172 196 233 150 c 0,84,85
 268 124 268 124 287.5 107.5 c 128,-1,86
 307 91 307 91 312 85 c 1,87,88
 389 135 389 135 389 198 c 0,70,71
EndSplineSet
Validated: 1
EndChar

StartChar: dieresis
Encoding: 168 168 107
Width: 311
GlyphClass: 2
Flags: W
LayerCount: 2
Fore
SplineSet
311 623 m 256,0,1
 311 602 311 602 295.5 586.5 c 128,-1,2
 280 571 280 571 259 571 c 256,3,4
 238 571 238 571 222.5 587 c 128,-1,5
 207 603 207 603 207 623 c 256,6,7
 207 643 207 643 223.5 659 c 128,-1,8
 240 675 240 675 259 675 c 0,9,10
 280 675 280 675 295.5 659.5 c 128,-1,11
 311 644 311 644 311 623 c 256,0,1
103 623 m 256,12,13
 103 602 103 602 87.5 586.5 c 128,-1,14
 72 571 72 571 51 571 c 0,15,16
 31 571 31 571 15.5 587 c 128,-1,17
 0 603 0 603 0 623 c 256,18,19
 0 643 0 643 16 659 c 128,-1,20
 32 675 32 675 51 675 c 0,21,22
 72 675 72 675 87.5 659.5 c 128,-1,23
 103 644 103 644 103 623 c 256,12,13
EndSplineSet
Validated: 1
EndChar

StartChar: copyright
Encoding: 169 169 108
Width: 790
GlyphClass: 2
Flags: W
LayerCount: 2
Fore
SplineSet
756 344 m 0,0,1
 756 193 756 193 650 88 c 0,2,3
 546 -15 546 -15 395 -15 c 0,4,5
 243 -15 243 -15 140 87 c 0,6,7
 35 190 35 190 35 344 c 0,8,9
 35 504 35 504 148 608 c 0,10,11
 253 704 253 704 395 704 c 0,12,13
 547 704 547 704 651 600 c 0,14,15
 756 496 756 496 756 344 c 0,0,1
724 344 m 0,16,17
 724 481 724 481 627 577 c 0,18,19
 529 673 529 673 395 673 c 0,20,21
 266 673 266 673 171 585 c 0,22,23
 67 489 67 489 67 344 c 0,24,25
 67 204 67 204 165 109 c 0,26,27
 259 16 259 16 395 16 c 0,28,29
 528 16 528 16 625 108 c 0,30,31
 724 204 724 204 724 344 c 0,16,17
592 218 m 1,32,33
 520 115 520 115 397 115 c 0,34,35
 299 115 299 115 231 179 c 0,36,37
 162 243 162 243 162 341 c 0,38,39
 162 449 162 449 239 515 c 0,40,41
 310 576 310 576 415 576 c 0,42,43
 434 576 434 576 452.5 572.5 c 128,-1,44
 471 569 471 569 488 564 c 0,45,46
 506 558 506 558 516 555.5 c 128,-1,47
 526 553 526 553 528 553 c 0,48,49
 542 553 542 553 553 576 c 1,50,-1
 573 576 l 1,51,-1
 583 434 l 1,52,-1
 564 434 l 1,53,54
 523 553 523 553 410 553 c 0,55,56
 332 553 332 553 289 500 c 128,-1,57
 246 447 246 447 246 356 c 0,58,59
 246 254 246 254 293 199 c 0,60,61
 336 147 336 147 415 147 c 0,62,63
 515 147 515 147 573 229 c 1,64,-1
 592 218 l 1,32,33
EndSplineSet
Validated: 1
EndChar

StartChar: ordfeminine
Encoding: 170 170 109
Width: 331
GlyphClass: 2
Flags: W
LayerCount: 2
Fore
SplineSet
330 449 m 1,0,1
 289 404 289 404 251 404 c 0,2,3
 212 404 212 404 212 449 c 1,4,5
 191 435 191 435 178.5 427.5 c 128,-1,6
 166 420 166 420 162 418 c 0,7,8
 132 404 132 404 106 404 c 0,9,10
 70 404 70 404 48 423.5 c 128,-1,11
 26 443 26 443 26 475 c 0,12,13
 26 509 26 509 59 533 c 0,14,15
 79 547 79 547 117 562.5 c 128,-1,16
 155 578 155 578 212 594 c 1,17,-1
 212 605 l 2,18,19
 212 678 212 678 149 678 c 0,20,21
 103 678 103 678 99 644 c 1,22,-1
 100 626 l 2,23,24
 102 597 102 597 70 597 c 0,25,26
 39 597 39 597 39 626 c 0,27,28
 39 642 39 642 48.5 655 c 128,-1,29
 58 668 58 668 74.5 677 c 128,-1,30
 91 686 91 686 113.5 691 c 128,-1,31
 136 696 136 696 161 696 c 0,32,33
 229 696 229 696 253 670 c 0,34,35
 273 650 273 650 273 601 c 2,36,-1
 273 506 l 2,37,38
 273 465 273 465 275 457 c 0,39,40
 276 442 276 442 291 442 c 0,41,42
 302 442 302 442 330 467 c 1,43,-1
 330 449 l 1,0,1
324 332 m 1,44,-1
 30 332 l 1,45,-1
 30 354 l 1,46,-1
 324 354 l 1,47,-1
 324 332 l 1,44,-1
212 469 m 1,48,-1
 212 576 l 1,49,50
 173 563 173 563 147 551.5 c 128,-1,51
 121 540 121 540 108 529 c 0,52,53
 88 512 88 512 88 489 c 0,54,55
 88 468 88 468 103 453.5 c 128,-1,56
 118 439 118 439 139 438 c 0,57,58
 163 437 163 437 212 469 c 1,48,-1
EndSplineSet
Validated: 33
EndChar

StartChar: guillemotleft
Encoding: 171 171 110
Width: 520
GlyphClass: 2
Flags: W
LayerCount: 2
Fore
SplineSet
487 -3 m 1,0,-1
 458 -3 l 1,1,-1
 258 236 l 1,2,-1
 458 474 l 1,3,-1
 487 474 l 1,4,-1
 363 236 l 1,5,-1
 487 -3 l 1,0,-1
257 -3 m 1,6,-1
 229 -3 l 1,7,-1
 32 236 l 1,8,-1
 229 474 l 1,9,-1
 257 474 l 1,10,-1
 133 236 l 1,11,-1
 257 -3 l 1,6,-1
EndSplineSet
Validated: 1
EndChar

StartChar: logicalnot
Encoding: 172 172 111
Width: 620
GlyphClass: 2
Flags: W
LayerCount: 2
Fore
SplineSet
580 189 m 1,0,-1
 520 189 l 1,1,-1
 520 360 l 1,2,-1
 40 360 l 1,3,-1
 40 420 l 1,4,-1
 580 420 l 1,5,-1
 580 189 l 1,0,-1
EndSplineSet
Validated: 1
EndChar

StartChar: uni00AD
Encoding: 173 173 112
Width: 346
GlyphClass: 2
Flags: W
LayerCount: 2
Fore
SplineSet
304 194 m 1,0,-1
 42 194 l 1,1,-1
 42 271 l 1,2,-1
 304 271 l 1,3,-1
 304 194 l 1,0,-1
EndSplineSet
Validated: 1
EndChar

StartChar: registered
Encoding: 174 174 113
Width: 790
GlyphClass: 2
Flags: W
LayerCount: 2
Fore
SplineSet
756 344 m 0,0,1
 756 193 756 193 650 88 c 0,2,3
 546 -15 546 -15 395 -15 c 0,4,5
 243 -15 243 -15 140 87 c 0,6,7
 35 190 35 190 35 344 c 0,8,9
 35 504 35 504 148 608 c 0,10,11
 253 704 253 704 395 704 c 0,12,13
 547 704 547 704 651 600 c 0,14,15
 756 496 756 496 756 344 c 0,0,1
724 344 m 0,16,17
 724 481 724 481 627 577 c 0,18,19
 529 673 529 673 395 673 c 0,20,21
 266 673 266 673 171 585 c 0,22,23
 67 489 67 489 67 344 c 0,24,25
 67 204 67 204 165 109 c 0,26,27
 259 16 259 16 395 16 c 0,28,29
 528 16 528 16 625 108 c 0,30,31
 724 204 724 204 724 344 c 0,16,17
598 127 m 1,32,-1
 504 127 l 1,33,-1
 355 332 l 1,34,-1
 316 332 l 1,35,-1
 316 175 l 2,36,37
 316 161 316 161 331 151 c 0,38,39
 341 144 341 144 376 144 c 1,40,-1
 376 127 l 1,41,-1
 190 127 l 1,42,-1
 190 144 l 1,43,44
 224 144 224 144 234 157 c 0,45,46
 242 168 242 168 242 213 c 2,47,-1
 242 478 l 2,48,49
 242 520 242 520 241 523 c 0,50,51
 233 547 233 547 196 547 c 1,52,-1
 196 566 l 1,53,-1
 392 566 l 2,54,55
 463 566 463 566 504 532 c 0,56,57
 543 500 543 500 543 452 c 0,58,59
 543 367 543 367 431 339 c 1,60,-1
 536 188 l 2,61,62
 565 147 565 147 598 144 c 1,63,-1
 598 127 l 1,32,-1
462 446 m 0,64,65
 462 487 462 487 435 514 c 0,66,67
 406 543 406 543 359 543 c 0,68,69
 337 543 337 543 316 536 c 1,70,-1
 316 354 l 1,71,72
 462 354 462 354 462 446 c 0,64,65
EndSplineSet
Validated: 1
EndChar

StartChar: macron
Encoding: 175 175 114
Width: 326
GlyphClass: 2
Flags: W
LayerCount: 2
Fore
SplineSet
326 571 m 1,0,-1
 0 571 l 1,1,-1
 0 627 l 1,2,-1
 326 627 l 1,3,-1
 326 571 l 1,0,-1
EndSplineSet
Validated: 1
EndChar

StartChar: degree
Encoding: 176 176 115
Width: 320
GlyphClass: 2
Flags: W
LayerCount: 2
Fore
SplineSet
270 610 m 256,0,1
 270 587 270 587 261.5 567 c 128,-1,2
 253 547 253 547 238 532 c 128,-1,3
 223 517 223 517 203 508.5 c 128,-1,4
 183 500 183 500 160 500 c 256,5,6
 137 500 137 500 117 508.5 c 128,-1,7
 97 517 97 517 82 532 c 128,-1,8
 67 547 67 547 58.5 567 c 128,-1,9
 50 587 50 587 50 610 c 256,10,11
 50 633 50 633 58.5 653 c 128,-1,12
 67 673 67 673 82 688 c 128,-1,13
 97 703 97 703 117 711.5 c 128,-1,14
 137 720 137 720 160 720 c 256,15,16
 183 720 183 720 203 711.5 c 128,-1,17
 223 703 223 703 238 688 c 128,-1,18
 253 673 253 673 261.5 653 c 128,-1,19
 270 633 270 633 270 610 c 256,0,1
230 610 m 256,20,21
 230 639 230 639 209.5 659.5 c 128,-1,22
 189 680 189 680 160 680 c 256,23,24
 131 680 131 680 110.5 659.5 c 128,-1,25
 90 639 90 639 90 610 c 256,26,27
 90 581 90 581 110.5 560.5 c 128,-1,28
 131 540 131 540 160 540 c 256,29,30
 189 540 189 540 209.5 560.5 c 128,-1,31
 230 581 230 581 230 610 c 256,20,21
EndSplineSet
Validated: 1
EndChar

StartChar: plusminus
Encoding: 177 177 116
Width: 1000
GlyphClass: 2
Flags: W
LayerCount: 2
Fore
SplineSet
800 358 m 1,0,-1
 531 358 l 1,1,-1
 531 178 l 1,2,-1
 469 178 l 1,3,-1
 469 358 l 1,4,-1
 200 358 l 1,5,-1
 200 420 l 1,6,-1
 469 420 l 1,7,-1
 469 600 l 1,8,-1
 531 600 l 1,9,-1
 531 420 l 1,10,-1
 800 420 l 1,11,-1
 800 358 l 1,0,-1
800 0 m 1,12,-1
 200 0 l 1,13,-1
 200 62 l 1,14,-1
 800 62 l 1,15,-1
 800 0 l 1,12,-1
EndSplineSet
Validated: 1
EndChar

StartChar: twosuperior
Encoding: 178 178 117
Width: 366
GlyphClass: 2
Flags: W
LayerCount: 2
Fore
SplineSet
339 488 m 1,0,-1
 304 409 l 1,1,-1
 12 409 l 1,2,-1
 12 420 l 1,3,4
 47 447 47 447 70.5 466 c 128,-1,5
 94 485 94 485 107 496 c 0,6,7
 162 542 162 542 194 581 c 0,8,9
 246 643 246 643 246 694 c 0,10,11
 246 741 246 741 209 766 c 0,12,13
 180 784 180 784 148 784 c 0,14,15
 67 784 67 784 40 714 c 1,16,-1
 27 714 l 1,17,18
 45 831 45 831 167 831 c 0,19,20
 222 831 222 831 266 801 c 0,21,22
 309 771 309 771 309 722 c 0,23,24
 309 652 309 652 203 555 c 0,25,26
 159 515 159 515 131 490.5 c 128,-1,27
 103 466 103 466 90 455 c 1,28,-1
 220 455 l 2,29,30
 265 455 265 455 279 458 c 0,31,32
 305 463 305 463 326 488 c 1,33,-1
 339 488 l 1,0,-1
EndSplineSet
Validated: 1
EndChar

StartChar: threesuperior
Encoding: 179 179 118
Width: 366
GlyphClass: 2
Flags: W
LayerCount: 2
Fore
SplineSet
308 549 m 0,0,1
 308 517 308 517 294 490.5 c 128,-1,2
 280 464 280 464 254.5 445 c 128,-1,3
 229 426 229 426 193 415.5 c 128,-1,4
 157 405 157 405 112 405 c 0,5,6
 27 405 27 405 27 438 c 0,7,8
 27 459 27 459 56 459 c 0,9,10
 70 459 70 459 103 445 c 256,11,12
 136 431 136 431 161 431 c 0,13,14
 179 431 179 431 195.5 437 c 128,-1,15
 212 443 212 443 225 454 c 128,-1,16
 238 465 238 465 246 479.5 c 128,-1,17
 254 494 254 494 254 512 c 0,18,19
 254 612 254 612 110 617 c 1,20,-1
 110 626 l 1,21,22
 145 631 145 631 173 646 c 0,23,24
 223 675 223 675 223 722 c 0,25,26
 223 757 223 757 194 777 c 0,27,28
 171 792 171 792 141 792 c 0,29,30
 83 792 83 792 46 741 c 1,31,-1
 34 746 l 1,32,33
 80 834 80 834 168 834 c 0,34,35
 231 834 231 834 262 800 c 0,36,37
 283 776 283 776 283 750 c 0,38,39
 283 705 283 705 216 657 c 1,40,41
 308 628 308 628 308 549 c 0,0,1
EndSplineSet
Validated: 1
EndChar

StartChar: acute
Encoding: 180 180 119
Width: 356
GlyphClass: 2
Flags: W
LayerCount: 2
Fore
SplineSet
293 675 m 0,0,1
 293 651 293 651 251 624 c 2,2,-1
 101 529 l 1,3,-1
 59 529 l 1,4,-1
 203 674 l 2,5,6
 237 708 237 708 266 708 c 0,7,8
 274 708 274 708 283.5 696.5 c 128,-1,9
 293 685 293 685 293 675 c 0,0,1
EndSplineSet
Validated: 1
EndChar

StartChar: mu
Encoding: 181 181 120
Width: 589
GlyphClass: 2
Flags: W
LayerCount: 2
Fore
SplineSet
550 105 m 1,0,1
 543 -14 543 -14 449 -14 c 0,2,3
 382 -14 382 -14 369 82 c 1,4,5
 286 -14 286 -14 210 -14 c 0,6,7
 156 -14 156 -14 131 29 c 1,8,-1
 131 5 l 2,9,10
 131 -29 131 -29 143 -89 c 256,11,12
 155 -149 155 -149 155 -167 c 0,13,14
 155 -191 155 -191 140.5 -207.5 c 128,-1,15
 126 -224 126 -224 107 -224 c 0,16,17
 89 -224 89 -224 76 -208 c 128,-1,18
 63 -192 63 -192 63 -169 c 0,19,20
 63 -152 63 -152 79 -84 c 256,21,22
 95 -16 95 -16 95 97 c 2,23,-1
 95 464 l 1,24,-1
 178 464 l 1,25,-1
 178 194 l 2,26,27
 178 122 178 122 187 94 c 0,28,29
 202 48 202 48 250 48 c 0,30,31
 309 48 309 48 369 116 c 1,32,-1
 369 464 l 1,33,-1
 454 464 l 1,34,-1
 454 134 l 2,35,36
 454 73 454 73 464 54 c 0,37,38
 470 42 470 42 488 42 c 0,39,40
 516 42 516 42 530 105 c 1,41,-1
 550 105 l 1,0,1
EndSplineSet
Validated: 1
EndChar

StartChar: paragraph
Encoding: 182 182 121
Width: 471
GlyphClass: 2
Flags: W
LayerCount: 2
Fore
SplineSet
473 660 m 1,0,-1
 406 660 l 1,1,-1
 406 -224 l 1,2,-1
 368 -224 l 1,3,-1
 368 660 l 1,4,-1
 274 660 l 1,5,-1
 274 -224 l 1,6,-1
 237 -224 l 1,7,-1
 237 306 l 1,8,9
 -6 312 -6 312 -6 498 c 0,10,11
 -6 599 -6 599 67 648 c 0,12,13
 125 688 125 688 222 688 c 2,14,-1
 473 688 l 1,15,-1
 473 660 l 1,0,-1
EndSplineSet
Validated: 1
EndChar

StartChar: periodcentered
Encoding: 183 183 122
Width: 188
GlyphClass: 2
Flags: W
LayerCount: 2
Fore
SplineSet
153 340 m 256,0,1
 153 315 153 315 136 298 c 128,-1,2
 119 281 119 281 94 281 c 256,3,4
 69 281 69 281 52 298 c 128,-1,5
 35 315 35 315 35 340 c 256,6,7
 35 365 35 365 52 382 c 128,-1,8
 69 399 69 399 94 399 c 256,9,10
 119 399 119 399 136 382 c 128,-1,11
 153 365 153 365 153 340 c 256,0,1
EndSplineSet
Validated: 1
EndChar

StartChar: cedilla
Encoding: 184 184 123
Width: 244
GlyphClass: 2
Flags: W
LayerCount: 2
Fore
SplineSet
231 -136 m 0,0,1
 231 -176 231 -176 190 -199 c 0,2,3
 149 -223 149 -223 97 -223 c 0,4,5
 58 -223 58 -223 13 -207 c 1,6,-1
 28 -174 l 1,7,8
 60 -187 60 -187 92 -187 c 0,9,10
 153 -187 153 -187 153 -143 c 0,11,12
 153 -106 153 -106 115 -103 c 0,13,14
 104 -102 104 -102 92 -103 c 128,-1,15
 80 -104 80 -104 68 -108 c 1,16,-1
 60 -102 l 1,17,-1
 104 0 l 1,18,-1
 141 0 l 1,19,-1
 114 -67 l 1,20,21
 127 -64 127 -64 144 -64 c 0,22,23
 181 -64 181 -64 204 -81 c 0,24,25
 231 -101 231 -101 231 -136 c 0,0,1
EndSplineSet
Validated: 1
EndChar

StartChar: onesuperior
Encoding: 185 185 124
Width: 366
GlyphClass: 2
Flags: W
LayerCount: 2
Fore
SplineSet
279 409 m 1,0,-1
 92 409 l 1,1,-1
 92 420 l 1,2,3
 134 420 134 420 145 429 c 0,4,5
 156 440 156 440 156 482 c 2,6,-1
 156 705 l 2,7,8
 156 727 156 727 155.5 740.5 c 128,-1,9
 155 754 155 754 154 759 c 0,10,11
 150 781 150 781 127 781 c 0,12,13
 113 781 113 781 89 772 c 1,14,-1
 84 782 l 1,15,-1
 204 831 l 1,16,-1
 217 831 l 1,17,-1
 217 482 l 2,18,19
 217 438 217 438 227 429 c 256,20,21
 237 420 237 420 279 420 c 1,22,-1
 279 409 l 1,0,-1
EndSplineSet
Validated: 1
EndChar

StartChar: ordmasculine
Encoding: 186 186 125
Width: 381
GlyphClass: 2
Flags: W
LayerCount: 2
Fore
SplineSet
352 554 m 256,0,1
 352 494 352 494 311 450 c 0,2,3
 264 400 264 400 188 400 c 0,4,5
 118 400 118 400 74 443 c 0,6,7
 29 486 29 486 29 546 c 256,8,9
 29 606 29 606 72 649 c 0,10,11
 119 696 119 696 191 696 c 0,12,13
 261 696 261 696 307 655 c 0,14,15
 352 614 352 614 352 554 c 256,0,1
347 332 m 1,16,-1
 35 332 l 1,17,-1
 35 354 l 1,18,-1
 347 354 l 1,19,-1
 347 332 l 1,16,-1
284 530 m 0,20,21
 284 594 284 594 256 635.5 c 128,-1,22
 228 677 228 677 180 677 c 0,23,24
 147 677 147 677 124 654 c 0,25,26
 97 625 97 625 97 571 c 0,27,28
 97 510 97 510 126 467 c 0,29,30
 156 422 156 422 203 422 c 0,31,32
 284 422 284 422 284 530 c 0,20,21
EndSplineSet
Validated: 1
EndChar

StartChar: guillemotright
Encoding: 187 187 126
Width: 520
GlyphClass: 2
Flags: W
LayerCount: 2
Fore
SplineSet
488 235 m 1,0,-1
 291 -3 l 1,1,-1
 263 -3 l 1,2,-1
 387 235 l 1,3,-1
 263 474 l 1,4,-1
 291 474 l 1,5,-1
 488 235 l 1,0,-1
262 235 m 1,6,-1
 62 -3 l 1,7,-1
 33 -3 l 1,8,-1
 157 235 l 1,9,-1
 33 474 l 1,10,-1
 62 474 l 1,11,-1
 262 235 l 1,6,-1
EndSplineSet
Validated: 1
EndChar

StartChar: onequarter
Encoding: 188 188 127
Width: 800
GlyphClass: 2
Flags: W
LayerCount: 2
Fore
SplineSet
701 107 m 1,0,-1
 646 107 l 1,1,-1
 646 -3 l 1,2,-1
 595 -3 l 1,3,-1
 595 107 l 1,4,-1
 418 107 l 1,5,-1
 418 145 l 1,6,-1
 612 422 l 1,7,-1
 646 422 l 1,8,-1
 646 150 l 1,9,-1
 701 150 l 1,10,-1
 701 107 l 1,0,-1
663 701 m 1,11,-1
 193 -7 l 1,12,-1
 143 -7 l 1,13,-1
 616 701 l 1,14,-1
 663 701 l 1,11,-1
264 266 m 1,15,-1
 106 266 l 1,16,-1
 106 278 l 1,17,18
 145 278 145 278 152 288 c 0,19,20
 160 299 160 299 160 340 c 2,21,-1
 160 564 l 2,22,23
 160 587 160 587 159.5 600.5 c 128,-1,24
 159 614 159 614 158 619 c 0,25,26
 153 642 153 642 136 642 c 0,27,28
 123 642 123 642 103 632 c 1,29,-1
 99 643 l 1,30,-1
 200 692 l 1,31,-1
 211 692 l 1,32,-1
 211 340 l 2,33,34
 211 297 211 297 218 287 c 0,35,36
 225 278 225 278 264 278 c 1,37,-1
 264 266 l 1,15,-1
595 150 m 1,38,-1
 595 357 l 1,39,-1
 448 150 l 1,40,-1
 595 150 l 1,38,-1
EndSplineSet
Validated: 1
EndChar

StartChar: onehalf
Encoding: 189 189 128
Width: 800
GlyphClass: 2
Flags: W
LayerCount: 2
Fore
SplineSet
716 76 m 1,0,-1
 686 -3 l 1,1,-1
 440 -3 l 1,2,-1
 440 8 l 1,3,4
 485 49 485 49 515.5 79.5 c 128,-1,5
 546 110 546 110 564 131 c 0,6,7
 637 219 637 219 637 284 c 0,8,9
 637 331 637 331 606 356 c 0,10,11
 583 375 583 375 555 375 c 0,12,13
 487 375 487 375 463 305 c 1,14,-1
 453 305 l 1,15,16
 457 346 457 346 479 377 c 0,17,18
 510 422 510 422 571 422 c 0,19,20
 618 422 618 422 653 393 c 0,21,22
 690 362 690 362 690 312 c 0,23,24
 690 240 690 240 601 143 c 0,25,26
 581 121 581 121 557 96 c 128,-1,27
 533 71 533 71 506 43 c 1,28,-1
 615 43 l 2,29,30
 655 43 655 43 666 46 c 0,31,32
 688 52 688 52 704 76 c 1,33,-1
 716 76 l 1,0,-1
621 701 m 1,34,-1
 184 -7 l 1,35,-1
 134 -7 l 1,36,-1
 572 701 l 1,37,-1
 621 701 l 1,34,-1
249 266 m 1,38,-1
 91 266 l 1,39,-1
 91 278 l 1,40,41
 130 278 130 278 137 288 c 0,42,43
 145 299 145 299 145 340 c 2,44,-1
 145 564 l 2,45,46
 145 587 145 587 144.5 600.5 c 128,-1,47
 144 614 144 614 143 619 c 0,48,49
 138 642 138 642 121 642 c 0,50,51
 108 642 108 642 88 632 c 1,52,-1
 84 643 l 1,53,-1
 185 692 l 1,54,-1
 196 692 l 1,55,-1
 196 340 l 2,56,57
 196 297 196 297 203 287 c 0,58,59
 210 278 210 278 249 278 c 1,60,-1
 249 266 l 1,38,-1
EndSplineSet
Validated: 1
EndChar

StartChar: threequarters
Encoding: 190 190 129
Width: 800
GlyphClass: 2
Flags: W
LayerCount: 2
Fore
SplineSet
714 107 m 1,0,-1
 659 107 l 1,1,-1
 659 -3 l 1,2,-1
 608 -3 l 1,3,-1
 608 107 l 1,4,-1
 431 107 l 1,5,-1
 431 145 l 1,6,-1
 625 422 l 1,7,-1
 659 422 l 1,8,-1
 659 150 l 1,9,-1
 714 150 l 1,10,-1
 714 107 l 1,0,-1
686 701 m 1,11,-1
 216 -7 l 1,12,-1
 166 -7 l 1,13,-1
 639 701 l 1,14,-1
 686 701 l 1,11,-1
323 404 m 0,15,16
 323 338 323 338 278.5 298 c 128,-1,17
 234 258 234 258 158 258 c 0,18,19
 86 258 86 258 86 292 c 0,20,21
 86 313 86 313 111 313 c 0,22,23
 124 313 124 313 150 299 c 0,24,25
 178 285 178 285 200 285 c 0,26,27
 215 285 215 285 229 291 c 128,-1,28
 243 297 243 297 254 308 c 128,-1,29
 265 319 265 319 271.5 333.5 c 128,-1,30
 278 348 278 348 278 366 c 0,31,32
 278 469 278 469 156 472 c 1,33,-1
 156 482 l 1,34,35
 184 485 184 485 210 502 c 0,36,37
 251 531 251 531 251 579 c 0,38,39
 251 614 251 614 227 634 c 0,40,41
 207 649 207 649 183 649 c 0,42,43
 134 649 134 649 103 598 c 1,44,-1
 92 603 l 1,45,46
 111 643 111 643 125 657 c 0,47,48
 157 692 157 692 205 692 c 0,49,50
 259 692 259 692 284 658 c 0,51,52
 302 634 302 634 302 607 c 0,53,54
 302 563 302 563 246 513 c 1,55,56
 323 483 323 483 323 404 c 0,15,16
608 150 m 1,57,-1
 608 357 l 1,58,-1
 461 150 l 1,59,-1
 608 150 l 1,57,-1
EndSplineSet
Validated: 1
EndChar

StartChar: questiondown
Encoding: 191 191 130
Width: 462
GlyphClass: 2
Flags: W
LayerCount: 2
Fore
SplineSet
293 437 m 0,0,1
 293 413 293 413 275.5 396.5 c 128,-1,2
 258 380 258 380 235 380 c 0,3,4
 213 380 213 380 196 396 c 128,-1,5
 179 412 179 412 179 437 c 0,6,7
 179 463 179 463 196.5 478.5 c 128,-1,8
 214 494 214 494 235 494 c 0,9,10
 258 494 258 494 275.5 478.5 c 128,-1,11
 293 463 293 463 293 437 c 0,0,1
412 -77 m 0,12,13
 412 -137 412 -137 365 -179 c 0,14,15
 313 -223 313 -223 229 -223 c 0,16,17
 187 -223 187 -223 152 -212 c 128,-1,18
 117 -201 117 -201 92 -180 c 128,-1,19
 67 -159 67 -159 53 -129.5 c 128,-1,20
 39 -100 39 -100 39 -63 c 0,21,22
 39 16 39 16 118 104 c 0,23,24
 150 139 150 139 169.5 164.5 c 128,-1,25
 189 190 189 190 198 206 c 0,26,27
 211 229 211 229 218.5 257.5 c 128,-1,28
 226 286 226 286 228 318 c 1,29,-1
 250 318 l 1,30,31
 244 200 244 200 181 95 c 0,32,33
 133 15 133 15 133 -55 c 0,34,35
 133 -126 133 -126 172 -163 c 0,36,37
 206 -195 206 -195 251 -195 c 0,38,39
 297 -195 297 -195 323 -173 c 0,40,41
 347 -154 347 -154 347 -128 c 0,42,43
 347 -113 347 -113 331 -82 c 0,44,45
 315 -53 315 -53 315 -41 c 0,46,47
 315 -21 315 -21 328 -9.5 c 128,-1,48
 341 2 341 2 356 2 c 0,49,50
 374 2 374 2 389 -12 c 0,51,52
 412 -35 412 -35 412 -77 c 0,12,13
EndSplineSet
Validated: 1
EndChar

StartChar: Agrave
Encoding: 192 192 131
Width: 634
GlyphClass: 2
Flags: W
LayerCount: 2
Fore
SplineSet
429 752 m 1,0,-1
 387 752 l 1,1,-1
 237 847 l 2,2,3
 192 875 192 875 192 892 c 0,4,5
 192 931 192 931 224 931 c 0,6,7
 251 931 251 931 285 897 c 2,8,-1
 429 752 l 1,0,-1
739 0 m 1,9,-1
 468 0 l 1,10,-1
 468 19 l 1,11,12
 537 20 537 20 537 63 c 0,13,14
 537 85 537 85 517 132 c 2,15,-1
 476 231 l 1,16,-1
 209 231 l 1,17,-1
 162 121 l 2,18,19
 145 79 145 79 145 64 c 0,20,21
 145 27 145 27 225 19 c 1,22,-1
 225 0 l 1,23,-1
 8 0 l 1,24,-1
 8 19 l 1,25,26
 49 22 49 22 75 51 c 0,27,28
 97 76 97 76 122 137 c 2,29,-1
 364 704 l 1,30,-1
 382 704 l 1,31,-1
 621 132 l 2,32,33
 651 61 651 61 674 41 c 0,34,35
 693 22 693 22 739 19 c 1,36,-1
 739 0 l 1,9,-1
462 268 m 1,37,-1
 345 547 l 1,38,-1
 225 268 l 1,39,-1
 462 268 l 1,37,-1
EndSplineSet
Validated: 1
EndChar

StartChar: Aacute
Encoding: 193 193 132
Width: 634
GlyphClass: 2
Flags: W
LayerCount: 2
Fore
SplineSet
551 898 m 0,0,1
 551 874 551 874 509 847 c 2,2,-1
 359 752 l 1,3,-1
 317 752 l 1,4,-1
 461 897 l 2,5,6
 495 931 495 931 524 931 c 0,7,8
 532 931 532 931 541.5 919.5 c 128,-1,9
 551 908 551 908 551 898 c 0,0,1
739 0 m 1,10,-1
 468 0 l 1,11,-1
 468 19 l 1,12,13
 537 20 537 20 537 63 c 0,14,15
 537 85 537 85 517 132 c 2,16,-1
 476 231 l 1,17,-1
 209 231 l 1,18,-1
 162 121 l 2,19,20
 145 79 145 79 145 64 c 0,21,22
 145 27 145 27 225 19 c 1,23,-1
 225 0 l 1,24,-1
 8 0 l 1,25,-1
 8 19 l 1,26,27
 49 22 49 22 75 51 c 0,28,29
 97 76 97 76 122 137 c 2,30,-1
 364 704 l 1,31,-1
 382 704 l 1,32,-1
 621 132 l 2,33,34
 651 61 651 61 674 41 c 0,35,36
 693 22 693 22 739 19 c 1,37,-1
 739 0 l 1,10,-1
462 268 m 1,38,-1
 345 547 l 1,39,-1
 225 268 l 1,40,-1
 462 268 l 1,38,-1
EndSplineSet
Validated: 1
EndChar

StartChar: Acircumflex
Encoding: 194 194 133
Width: 634
GlyphClass: 2
Flags: W
LayerCount: 2
Fore
SplineSet
536 752 m 1,0,-1
 500 752 l 1,1,-1
 373 860 l 1,2,-1
 246 752 l 1,3,-1
 210 752 l 1,4,-1
 341 926 l 1,5,-1
 406 926 l 1,6,-1
 536 752 l 1,0,-1
739 0 m 1,7,-1
 468 0 l 1,8,-1
 468 19 l 1,9,10
 537 20 537 20 537 63 c 0,11,12
 537 85 537 85 517 132 c 2,13,-1
 476 231 l 1,14,-1
 209 231 l 1,15,-1
 162 121 l 2,16,17
 145 79 145 79 145 64 c 0,18,19
 145 27 145 27 225 19 c 1,20,-1
 225 0 l 1,21,-1
 8 0 l 1,22,-1
 8 19 l 1,23,24
 49 22 49 22 75 51 c 0,25,26
 97 76 97 76 122 137 c 2,27,-1
 364 704 l 1,28,-1
 382 704 l 1,29,-1
 621 132 l 2,30,31
 651 61 651 61 674 41 c 0,32,33
 693 22 693 22 739 19 c 1,34,-1
 739 0 l 1,7,-1
462 268 m 1,35,-1
 345 547 l 1,36,-1
 225 268 l 1,37,-1
 462 268 l 1,35,-1
EndSplineSet
Validated: 1
EndChar

StartChar: Atilde
Encoding: 195 195 134
Width: 634
GlyphClass: 2
Flags: W
LayerCount: 2
Fore
SplineSet
546 905 m 1,0,1
 541 860 541 860 510 829 c 0,2,3
 477 794 477 794 436 794 c 0,4,5
 397 794 397 794 358 818 c 0,6,7
 317 842 317 842 286 842 c 0,8,9
 265 842 265 842 247 827 c 128,-1,10
 229 812 229 812 227 794 c 1,11,-1
 200 794 l 1,12,13
 225 900 225 900 315 900 c 0,14,15
 340 900 340 900 381 877 c 0,16,17
 421 854 421 854 447 854 c 0,18,19
 507 854 507 854 519 905 c 1,20,-1
 546 905 l 1,0,1
739 0 m 1,21,-1
 468 0 l 1,22,-1
 468 19 l 1,23,24
 537 20 537 20 537 63 c 0,25,26
 537 85 537 85 517 132 c 2,27,-1
 476 231 l 1,28,-1
 209 231 l 1,29,-1
 162 121 l 2,30,31
 145 79 145 79 145 64 c 0,32,33
 145 27 145 27 225 19 c 1,34,-1
 225 0 l 1,35,-1
 8 0 l 1,36,-1
 8 19 l 1,37,38
 49 22 49 22 75 51 c 0,39,40
 97 76 97 76 122 137 c 2,41,-1
 364 704 l 1,42,-1
 382 704 l 1,43,-1
 621 132 l 2,44,45
 651 61 651 61 674 41 c 0,46,47
 693 22 693 22 739 19 c 1,48,-1
 739 0 l 1,21,-1
462 268 m 1,49,-1
 345 547 l 1,50,-1
 225 268 l 1,51,-1
 462 268 l 1,49,-1
EndSplineSet
Validated: 1
EndChar

StartChar: Adieresis
Encoding: 196 196 135
Width: 634
GlyphClass: 2
Flags: W
LayerCount: 2
Fore
SplineSet
529 846 m 256,0,1
 529 825 529 825 513.5 809.5 c 128,-1,2
 498 794 498 794 477 794 c 256,3,4
 456 794 456 794 440.5 810 c 128,-1,5
 425 826 425 826 425 846 c 256,6,7
 425 866 425 866 441 882 c 128,-1,8
 457 898 457 898 477 898 c 0,9,10
 498 898 498 898 513.5 882.5 c 128,-1,11
 529 867 529 867 529 846 c 256,0,1
321 846 m 256,12,13
 321 825 321 825 305.5 809.5 c 128,-1,14
 290 794 290 794 269 794 c 0,15,16
 249 794 249 794 233.5 810 c 128,-1,17
 218 826 218 826 218 846 c 256,18,19
 218 866 218 866 234 882 c 128,-1,20
 250 898 250 898 269 898 c 0,21,22
 290 898 290 898 305.5 882.5 c 128,-1,23
 321 867 321 867 321 846 c 256,12,13
739 0 m 1,24,-1
 468 0 l 1,25,-1
 468 19 l 1,26,27
 537 20 537 20 537 63 c 0,28,29
 537 85 537 85 517 132 c 2,30,-1
 476 231 l 1,31,-1
 209 231 l 1,32,-1
 162 121 l 2,33,34
 145 79 145 79 145 64 c 0,35,36
 145 27 145 27 225 19 c 1,37,-1
 225 0 l 1,38,-1
 8 0 l 1,39,-1
 8 19 l 1,40,41
 49 22 49 22 75 51 c 0,42,43
 97 76 97 76 122 137 c 2,44,-1
 364 704 l 1,45,-1
 382 704 l 1,46,-1
 621 132 l 2,47,48
 651 61 651 61 674 41 c 0,49,50
 693 22 693 22 739 19 c 1,51,-1
 739 0 l 1,24,-1
462 268 m 1,52,-1
 345 547 l 1,53,-1
 225 268 l 1,54,-1
 462 268 l 1,52,-1
EndSplineSet
Validated: 1
EndChar

StartChar: Aring
Encoding: 197 197 136
Width: 634
GlyphClass: 2
Flags: W
LayerCount: 2
Fore
SplineSet
470 849 m 256,0,1
 470 828 470 828 462 810 c 128,-1,2
 454 792 454 792 441 779.5 c 128,-1,3
 428 767 428 767 410.5 759.5 c 128,-1,4
 393 752 393 752 374 752 c 0,5,6
 336 752 336 752 306 779 c 0,7,8
 276 807 276 807 276 849 c 0,9,10
 276 870 276 870 284 888 c 128,-1,11
 292 906 292 906 305.5 918.5 c 128,-1,12
 319 931 319 931 336.5 938.5 c 128,-1,13
 354 946 354 946 374 946 c 0,14,15
 393 946 393 946 410.5 939 c 128,-1,16
 428 932 428 932 441 919 c 128,-1,17
 454 906 454 906 462 888 c 128,-1,18
 470 870 470 870 470 849 c 256,0,1
739 0 m 1,19,-1
 468 0 l 1,20,-1
 468 19 l 1,21,22
 537 20 537 20 537 63 c 0,23,24
 537 85 537 85 517 132 c 2,25,-1
 476 231 l 1,26,-1
 209 231 l 1,27,-1
 162 121 l 2,28,29
 145 79 145 79 145 64 c 0,30,31
 145 27 145 27 225 19 c 1,32,-1
 225 0 l 1,33,-1
 8 0 l 1,34,-1
 8 19 l 1,35,36
 49 22 49 22 75 51 c 0,37,38
 97 76 97 76 122 137 c 2,39,-1
 364 704 l 1,40,-1
 382 704 l 1,41,-1
 621 132 l 2,42,43
 651 61 651 61 674 41 c 0,44,45
 693 22 693 22 739 19 c 1,46,-1
 739 0 l 1,19,-1
435 849 m 0,47,48
 435 876 435 876 416.5 893.5 c 128,-1,49
 398 911 398 911 374 911 c 0,50,51
 348 911 348 911 329.5 893.5 c 128,-1,52
 311 876 311 876 311 849 c 0,53,54
 311 821 311 821 330 804 c 128,-1,55
 349 787 349 787 374 787 c 256,56,57
 399 787 399 787 417 805.5 c 128,-1,58
 435 824 435 824 435 849 c 0,47,48
462 268 m 1,59,-1
 345 547 l 1,60,-1
 225 268 l 1,61,-1
 462 268 l 1,59,-1
EndSplineSet
Validated: 1
EndChar

StartChar: AE
Encoding: 198 198 137
Width: 925
GlyphClass: 2
Flags: W
LayerCount: 2
Fore
SplineSet
895 174 m 1,0,-1
 841 0 l 1,1,-1
 324 0 l 1,2,-1
 324 19 l 1,3,-1
 349 19 l 2,4,5
 393 19 393 19 412 44 c 0,6,7
 424 59 424 59 424 122 c 2,8,-1
 424 266 l 1,9,-1
 223 266 l 1,10,-1
 160 148 l 2,11,12
 124 80 124 80 124 59 c 0,13,14
 124 27 124 27 204 19 c 1,15,-1
 204 0 l 1,16,-1
 -11 0 l 1,17,-1
 -11 19 l 1,18,19
 11 19 11 19 26 28 c 0,20,21
 58 47 58 47 108 139 c 2,22,-1
 318 530 l 2,23,24
 357 603 357 603 357 628 c 0,25,26
 357 666 357 666 269 670 c 1,27,-1
 269 688 l 1,28,-1
 833 688 l 1,29,-1
 841 538 l 1,30,-1
 824 538 l 1,31,32
 808 610 808 610 788 630 c 0,33,34
 765 651 765 651 690 651 c 2,35,-1
 521 651 l 1,36,-1
 521 379 l 1,37,-1
 652 379 l 2,38,39
 681 379 681 379 700.5 384 c 128,-1,40
 720 389 720 389 733 400.5 c 128,-1,41
 746 412 746 412 752.5 431 c 128,-1,42
 759 450 759 450 762 478 c 1,43,-1
 780 478 l 1,44,-1
 780 240 l 1,45,-1
 762 240 l 1,46,47
 755 302 755 302 736 321 c 0,48,49
 714 341 714 341 652 341 c 2,50,-1
 521 341 l 1,51,-1
 521 113 l 2,52,53
 521 63 521 63 525 58 c 0,54,55
 538 37 538 37 580 37 c 2,56,-1
 672 37 l 2,57,58
 754 37 754 37 800 69 c 0,59,60
 839 96 839 96 877 174 c 1,61,-1
 895 174 l 1,0,-1
424 304 m 1,62,-1
 424 651 l 1,63,-1
 242 304 l 1,64,-1
 424 304 l 1,62,-1
EndSplineSet
Validated: 1
EndChar

StartChar: Ccedilla
Encoding: 199 199 138
Width: 694
GlyphClass: 2
Flags: W
LayerCount: 2
Fore
SplineSet
657 161 m 1,0,1
 557 -15 557 -15 372 -15 c 0,2,3
 365 -15 365 -15 355 -14.5 c 128,-1,4
 345 -14 345 -14 332 -13 c 1,5,-1
 311 -67 l 1,6,7
 324 -64 324 -64 341 -64 c 0,8,9
 378 -64 378 -64 401 -81 c 0,10,11
 428 -101 428 -101 428 -136 c 0,12,13
 428 -176 428 -176 387 -199 c 0,14,15
 346 -223 346 -223 294 -223 c 0,16,17
 255 -223 255 -223 210 -207 c 1,18,-1
 225 -174 l 1,19,20
 257 -187 257 -187 289 -187 c 0,21,22
 350 -187 350 -187 350 -143 c 0,23,24
 350 -106 350 -106 312 -103 c 0,25,26
 301 -102 301 -102 289 -103 c 128,-1,27
 277 -104 277 -104 265 -108 c 1,28,-1
 257 -102 l 1,29,-1
 297 -8 l 1,30,31
 176 14 176 14 105 113 c 0,32,33
 37 208 37 208 37 334 c 0,34,35
 37 487 37 487 133 594 c 0,36,37
 234 704 234 704 388 704 c 0,38,39
 449 704 449 704 508 680 c 0,40,41
 522 674 522 674 533 669.5 c 128,-1,42
 544 665 544 665 552 662 c 0,43,44
 561 658 561 658 566 656 c 0,45,46
 596 656 596 656 608 704 c 1,47,-1
 626 704 l 1,48,-1
 642 470 l 1,49,-1
 626 470 l 1,50,51
 567 668 567 668 396 668 c 0,52,53
 286 668 286 668 222 586 c 0,54,55
 153 497 153 497 153 333 c 0,56,57
 153 189 153 189 224 107 c 0,58,59
 291 29 291 29 411 29 c 0,60,61
 483 29 483 29 530 57 c 0,62,63
 583 89 583 89 642 172 c 1,64,-1
 657 161 l 1,0,1
EndSplineSet
Validated: 1
EndChar

StartChar: Egrave
Encoding: 200 200 139
Width: 578
GlyphClass: 2
Flags: W
LayerCount: 2
Fore
SplineSet
373 752 m 1,0,-1
 331 752 l 1,1,-1
 181 847 l 2,2,3
 136 875 136 875 136 892 c 0,4,5
 136 931 136 931 168 931 c 0,6,7
 195 931 195 931 229 897 c 2,8,-1
 373 752 l 1,0,-1
612 173 m 1,9,-1
 552 0 l 1,10,-1
 22 0 l 1,11,-1
 22 19 l 1,12,-1
 46 19 l 2,13,14
 81 19 81 19 100 35 c 0,15,16
 120 52 120 52 120 122 c 2,17,-1
 120 569 l 2,18,19
 120 636 120 636 107 649 c 0,20,21
 87 670 87 670 46 670 c 2,22,-1
 22 670 l 1,23,-1
 22 688 l 1,24,-1
 552 688 l 1,25,-1
 560 538 l 1,26,-1
 540 538 l 1,27,28
 524 602 524 602 514 617 c 0,29,30
 487 651 487 651 407 651 c 2,31,-1
 217 651 l 1,32,-1
 217 379 l 1,33,-1
 368 379 l 2,34,35
 433 379 433 379 454 402 c 0,36,37
 469 419 469 419 477 478 c 1,38,-1
 496 478 l 1,39,-1
 496 239 l 1,40,-1
 477 239 l 1,41,42
 470 300 470 300 454 317 c 0,43,44
 433 341 433 341 368 341 c 2,45,-1
 217 341 l 1,46,-1
 217 114 l 2,47,48
 217 71 217 71 222 59 c 0,49,50
 232 37 232 37 275 37 c 2,51,-1
 391 37 l 2,52,53
 472 37 472 37 509 63 c 0,54,55
 525 74 525 74 545.5 101 c 128,-1,56
 566 128 566 128 591 173 c 1,57,-1
 612 173 l 1,9,-1
EndSplineSet
Validated: 1
EndChar

StartChar: Eacute
Encoding: 201 201 140
Width: 578
GlyphClass: 2
Flags: W
LayerCount: 2
Fore
SplineSet
495 898 m 0,0,1
 495 874 495 874 453 847 c 2,2,-1
 303 752 l 1,3,-1
 261 752 l 1,4,-1
 405 897 l 2,5,6
 439 931 439 931 468 931 c 0,7,8
 476 931 476 931 485.5 919.5 c 128,-1,9
 495 908 495 908 495 898 c 0,0,1
612 173 m 1,10,-1
 552 0 l 1,11,-1
 22 0 l 1,12,-1
 22 19 l 1,13,-1
 46 19 l 2,14,15
 81 19 81 19 100 35 c 0,16,17
 120 52 120 52 120 122 c 2,18,-1
 120 569 l 2,19,20
 120 636 120 636 107 649 c 0,21,22
 87 670 87 670 46 670 c 2,23,-1
 22 670 l 1,24,-1
 22 688 l 1,25,-1
 552 688 l 1,26,-1
 560 538 l 1,27,-1
 540 538 l 1,28,29
 524 602 524 602 514 617 c 0,30,31
 487 651 487 651 407 651 c 2,32,-1
 217 651 l 1,33,-1
 217 379 l 1,34,-1
 368 379 l 2,35,36
 433 379 433 379 454 402 c 0,37,38
 469 419 469 419 477 478 c 1,39,-1
 496 478 l 1,40,-1
 496 239 l 1,41,-1
 477 239 l 1,42,43
 470 300 470 300 454 317 c 0,44,45
 433 341 433 341 368 341 c 2,46,-1
 217 341 l 1,47,-1
 217 114 l 2,48,49
 217 71 217 71 222 59 c 0,50,51
 232 37 232 37 275 37 c 2,52,-1
 391 37 l 2,53,54
 472 37 472 37 509 63 c 0,55,56
 525 74 525 74 545.5 101 c 128,-1,57
 566 128 566 128 591 173 c 1,58,-1
 612 173 l 1,10,-1
EndSplineSet
Validated: 1
EndChar

StartChar: Ecircumflex
Encoding: 202 202 141
Width: 578
GlyphClass: 2
Flags: W
LayerCount: 2
Fore
SplineSet
480 752 m 1,0,-1
 444 752 l 1,1,-1
 317 860 l 1,2,-1
 190 752 l 1,3,-1
 154 752 l 1,4,-1
 285 926 l 1,5,-1
 350 926 l 1,6,-1
 480 752 l 1,0,-1
612 173 m 1,7,-1
 552 0 l 1,8,-1
 22 0 l 1,9,-1
 22 19 l 1,10,-1
 46 19 l 2,11,12
 81 19 81 19 100 35 c 0,13,14
 120 52 120 52 120 122 c 2,15,-1
 120 569 l 2,16,17
 120 636 120 636 107 649 c 0,18,19
 87 670 87 670 46 670 c 2,20,-1
 22 670 l 1,21,-1
 22 688 l 1,22,-1
 552 688 l 1,23,-1
 560 538 l 1,24,-1
 540 538 l 1,25,26
 524 602 524 602 514 617 c 0,27,28
 487 651 487 651 407 651 c 2,29,-1
 217 651 l 1,30,-1
 217 379 l 1,31,-1
 368 379 l 2,32,33
 433 379 433 379 454 402 c 0,34,35
 469 419 469 419 477 478 c 1,36,-1
 496 478 l 1,37,-1
 496 239 l 1,38,-1
 477 239 l 1,39,40
 470 300 470 300 454 317 c 0,41,42
 433 341 433 341 368 341 c 2,43,-1
 217 341 l 1,44,-1
 217 114 l 2,45,46
 217 71 217 71 222 59 c 0,47,48
 232 37 232 37 275 37 c 2,49,-1
 391 37 l 2,50,51
 472 37 472 37 509 63 c 0,52,53
 525 74 525 74 545.5 101 c 128,-1,54
 566 128 566 128 591 173 c 1,55,-1
 612 173 l 1,7,-1
EndSplineSet
Validated: 1
EndChar

StartChar: Edieresis
Encoding: 203 203 142
Width: 578
GlyphClass: 2
Flags: W
LayerCount: 2
Fore
SplineSet
473 846 m 256,0,1
 473 825 473 825 457.5 809.5 c 128,-1,2
 442 794 442 794 421 794 c 256,3,4
 400 794 400 794 384.5 810 c 128,-1,5
 369 826 369 826 369 846 c 256,6,7
 369 866 369 866 385 882 c 128,-1,8
 401 898 401 898 421 898 c 0,9,10
 442 898 442 898 457.5 882.5 c 128,-1,11
 473 867 473 867 473 846 c 256,0,1
265 846 m 256,12,13
 265 825 265 825 249.5 809.5 c 128,-1,14
 234 794 234 794 213 794 c 0,15,16
 193 794 193 794 177.5 810 c 128,-1,17
 162 826 162 826 162 846 c 256,18,19
 162 866 162 866 178 882 c 128,-1,20
 194 898 194 898 213 898 c 0,21,22
 234 898 234 898 249.5 882.5 c 128,-1,23
 265 867 265 867 265 846 c 256,12,13
612 173 m 1,24,-1
 552 0 l 1,25,-1
 22 0 l 1,26,-1
 22 19 l 1,27,-1
 46 19 l 2,28,29
 81 19 81 19 100 35 c 0,30,31
 120 52 120 52 120 122 c 2,32,-1
 120 569 l 2,33,34
 120 636 120 636 107 649 c 0,35,36
 87 670 87 670 46 670 c 2,37,-1
 22 670 l 1,38,-1
 22 688 l 1,39,-1
 552 688 l 1,40,-1
 560 538 l 1,41,-1
 540 538 l 1,42,43
 524 602 524 602 514 617 c 0,44,45
 487 651 487 651 407 651 c 2,46,-1
 217 651 l 1,47,-1
 217 379 l 1,48,-1
 368 379 l 2,49,50
 433 379 433 379 454 402 c 0,51,52
 469 419 469 419 477 478 c 1,53,-1
 496 478 l 1,54,-1
 496 239 l 1,55,-1
 477 239 l 1,56,57
 470 300 470 300 454 317 c 0,58,59
 433 341 433 341 368 341 c 2,60,-1
 217 341 l 1,61,-1
 217 114 l 2,62,63
 217 71 217 71 222 59 c 0,64,65
 232 37 232 37 275 37 c 2,66,-1
 391 37 l 2,67,68
 472 37 472 37 509 63 c 0,69,70
 525 74 525 74 545.5 101 c 128,-1,71
 566 128 566 128 591 173 c 1,72,-1
 612 173 l 1,24,-1
EndSplineSet
Validated: 1
EndChar

StartChar: Igrave
Encoding: 204 204 143
Width: 346
GlyphClass: 2
Flags: W
LayerCount: 2
Fore
SplineSet
229 752 m 1,0,-1
 187 752 l 1,1,-1
 37 847 l 2,2,3
 -7 875 -7 875 -7 892 c 0,4,5
 -7 931 -7 931 24 931 c 0,6,7
 51 931 51 931 85 897 c 2,8,-1
 229 752 l 1,0,-1
321 0 m 1,9,-1
 26 0 l 1,10,-1
 26 19 l 1,11,-1
 51 19 l 2,12,13
 93 19 93 19 112 44 c 0,14,15
 124 59 124 59 124 122 c 2,16,-1
 124 567 l 2,17,18
 124 630 124 630 113 644 c 0,19,20
 92 670 92 670 51 670 c 2,21,-1
 26 670 l 1,22,-1
 26 688 l 1,23,-1
 321 688 l 1,24,-1
 321 670 l 1,25,-1
 296 670 l 2,26,27
 254 670 254 670 235 645 c 0,28,29
 222 629 222 629 222 567 c 2,30,-1
 222 122 l 2,31,32
 222 61 222 61 234 43 c 0,33,34
 240 35 240 35 259 27 c 128,-1,35
 278 19 278 19 296 19 c 2,36,-1
 321 19 l 1,37,-1
 321 0 l 1,9,-1
EndSplineSet
Validated: 1
EndChar

StartChar: Iacute
Encoding: 205 205 144
Width: 346
GlyphClass: 2
Flags: W
LayerCount: 2
Fore
SplineSet
351 898 m 0,0,1
 351 874 351 874 309 847 c 2,2,-1
 159 752 l 1,3,-1
 117 752 l 1,4,-1
 261 897 l 2,5,6
 295 931 295 931 324 931 c 0,7,8
 332 931 332 931 341.5 919.5 c 128,-1,9
 351 908 351 908 351 898 c 0,0,1
321 0 m 1,10,-1
 26 0 l 1,11,-1
 26 19 l 1,12,-1
 51 19 l 2,13,14
 93 19 93 19 112 44 c 0,15,16
 124 59 124 59 124 122 c 2,17,-1
 124 567 l 2,18,19
 124 630 124 630 113 644 c 0,20,21
 92 670 92 670 51 670 c 2,22,-1
 26 670 l 1,23,-1
 26 688 l 1,24,-1
 321 688 l 1,25,-1
 321 670 l 1,26,-1
 296 670 l 2,27,28
 254 670 254 670 235 645 c 0,29,30
 222 629 222 629 222 567 c 2,31,-1
 222 122 l 2,32,33
 222 61 222 61 234 43 c 0,34,35
 240 35 240 35 259 27 c 128,-1,36
 278 19 278 19 296 19 c 2,37,-1
 321 19 l 1,38,-1
 321 0 l 1,10,-1
EndSplineSet
Validated: 1
EndChar

StartChar: Icircumflex
Encoding: 206 206 145
Width: 346
GlyphClass: 2
Flags: W
LayerCount: 2
Fore
SplineSet
336 752 m 1,0,-1
 300 752 l 1,1,-1
 173 860 l 1,2,-1
 46 752 l 1,3,-1
 10 752 l 1,4,-1
 141 926 l 1,5,-1
 206 926 l 1,6,-1
 336 752 l 1,0,-1
321 0 m 1,7,-1
 26 0 l 1,8,-1
 26 19 l 1,9,-1
 51 19 l 2,10,11
 93 19 93 19 112 44 c 0,12,13
 124 59 124 59 124 122 c 2,14,-1
 124 567 l 2,15,16
 124 630 124 630 113 644 c 0,17,18
 92 670 92 670 51 670 c 2,19,-1
 26 670 l 1,20,-1
 26 688 l 1,21,-1
 321 688 l 1,22,-1
 321 670 l 1,23,-1
 296 670 l 2,24,25
 254 670 254 670 235 645 c 0,26,27
 222 629 222 629 222 567 c 2,28,-1
 222 122 l 2,29,30
 222 61 222 61 234 43 c 0,31,32
 240 35 240 35 259 27 c 128,-1,33
 278 19 278 19 296 19 c 2,34,-1
 321 19 l 1,35,-1
 321 0 l 1,7,-1
EndSplineSet
Validated: 1
EndChar

StartChar: Idieresis
Encoding: 207 207 146
Width: 346
GlyphClass: 2
Flags: W
LayerCount: 2
Fore
SplineSet
329 846 m 256,0,1
 329 825 329 825 313.5 809.5 c 128,-1,2
 298 794 298 794 277 794 c 256,3,4
 256 794 256 794 240.5 810 c 128,-1,5
 225 826 225 826 225 846 c 256,6,7
 225 866 225 866 241 882 c 128,-1,8
 257 898 257 898 277 898 c 0,9,10
 298 898 298 898 313.5 882.5 c 128,-1,11
 329 867 329 867 329 846 c 256,0,1
121 846 m 256,12,13
 121 825 121 825 105.5 809.5 c 128,-1,14
 90 794 90 794 69 794 c 0,15,16
 49 794 49 794 33.5 810 c 128,-1,17
 18 826 18 826 18 846 c 256,18,19
 18 866 18 866 34 882 c 128,-1,20
 50 898 50 898 69 898 c 0,21,22
 90 898 90 898 105.5 882.5 c 128,-1,23
 121 867 121 867 121 846 c 256,12,13
321 0 m 1,24,-1
 26 0 l 1,25,-1
 26 19 l 1,26,-1
 51 19 l 2,27,28
 93 19 93 19 112 44 c 0,29,30
 124 59 124 59 124 122 c 2,31,-1
 124 567 l 2,32,33
 124 630 124 630 113 644 c 0,34,35
 92 670 92 670 51 670 c 2,36,-1
 26 670 l 1,37,-1
 26 688 l 1,38,-1
 321 688 l 1,39,-1
 321 670 l 1,40,-1
 296 670 l 2,41,42
 254 670 254 670 235 645 c 0,43,44
 222 629 222 629 222 567 c 2,45,-1
 222 122 l 2,46,47
 222 61 222 61 234 43 c 0,48,49
 240 35 240 35 259 27 c 128,-1,50
 278 19 278 19 296 19 c 2,51,-1
 321 19 l 1,52,-1
 321 0 l 1,24,-1
EndSplineSet
Validated: 1
EndChar

StartChar: Eth
Encoding: 208 208 147
Width: 751
GlyphClass: 2
Flags: W
LayerCount: 2
Fore
SplineSet
710 349 m 0,0,1
 710 193 710 193 620 102 c 0,2,3
 519 0 519 0 326 0 c 2,4,-1
 18 0 l 1,5,-1
 18 19 l 1,6,-1
 44 19 l 2,7,8
 88 19 88 19 106 47 c 0,9,10
 116 63 116 63 116 122 c 2,11,-1
 116 344 l 1,12,-1
 18 344 l 1,13,-1
 18 402 l 1,14,-1
 116 402 l 1,15,-1
 116 567 l 2,16,17
 116 632 116 632 103 648 c 0,18,19
 81 670 81 670 44 670 c 2,20,-1
 18 670 l 1,21,-1
 18 688 l 1,22,-1
 298 688 l 2,23,24
 459 688 459 688 536 651 c 0,25,26
 615 615 615 615 661 537 c 0,27,28
 710 455 710 455 710 349 c 0,0,1
596 344 m 0,29,30
 596 485 596 485 519 568 c 256,31,32
 442 651 442 651 318 651 c 0,33,34
 269 651 269 651 214 636 c 1,35,-1
 214 402 l 1,36,-1
 415 402 l 1,37,-1
 415 344 l 1,38,-1
 214 344 l 1,39,-1
 214 51 l 1,40,41
 284 36 284 36 322 36 c 0,42,43
 442 34 442 34 519 119 c 256,44,45
 596 204 596 204 596 344 c 0,29,30
EndSplineSet
Validated: 33
EndChar

StartChar: Ntilde
Encoding: 209 209 148
Width: 646
GlyphClass: 2
Flags: W
LayerCount: 2
Fore
SplineSet
558 905 m 1,0,1
 553 860 553 860 522 829 c 0,2,3
 489 794 489 794 448 794 c 0,4,5
 409 794 409 794 370 818 c 0,6,7
 329 842 329 842 298 842 c 0,8,9
 277 842 277 842 259 827 c 128,-1,10
 241 812 241 812 239 794 c 1,11,-1
 212 794 l 1,12,13
 237 900 237 900 327 900 c 0,14,15
 352 900 352 900 393 877 c 0,16,17
 433 854 433 854 459 854 c 0,18,19
 519 854 519 854 531 905 c 1,20,-1
 558 905 l 1,0,1
736 670 m 1,21,-1
 712 670 l 2,22,23
 667 670 667 670 650 644 c 0,24,25
 639 627 639 627 639 569 c 2,26,-1
 639 -10 l 1,27,-1
 621 -10 l 1,28,-1
 166 543 l 1,29,-1
 166 120 l 2,30,31
 166 57 166 57 180 40 c 0,32,33
 198 19 198 19 240 19 c 2,34,-1
 264 19 l 1,35,-1
 264 0 l 1,36,-1
 24 0 l 1,37,-1
 24 19 l 1,38,-1
 48 19 l 2,39,40
 93 19 93 19 110 46 c 0,41,42
 122 61 122 61 122 120 c 2,43,-1
 122 598 l 1,44,-1
 90 640 l 1,45,46
 57 670 57 670 6 670 c 1,47,-1
 6 688 l 1,48,-1
 174 688 l 1,49,-1
 594 172 l 1,50,-1
 594 569 l 2,51,52
 594 632 594 632 580 648 c 0,53,54
 561 670 561 670 520 670 c 2,55,-1
 497 670 l 1,56,-1
 497 688 l 1,57,-1
 736 688 l 1,58,-1
 736 670 l 1,21,-1
EndSplineSet
Validated: 1
EndChar

StartChar: Ograve
Encoding: 210 210 149
Width: 636
GlyphClass: 2
Flags: W
LayerCount: 2
Fore
SplineSet
431 752 m 1,0,-1
 389 752 l 1,1,-1
 239 847 l 2,2,3
 194 875 194 875 194 892 c 0,4,5
 194 931 194 931 226 931 c 0,6,7
 253 931 253 931 287 897 c 2,8,-1
 431 752 l 1,0,-1
710 348 m 0,9,10
 710 191 710 191 613 88 c 256,11,12
 516 -15 516 -15 372 -15 c 0,13,14
 227 -15 227 -15 134 84 c 0,15,16
 36 188 36 188 36 346 c 0,17,18
 36 500 36 500 135 602 c 256,19,20
 234 704 234 704 381 704 c 0,21,22
 518 704 518 704 614 602 c 0,23,24
 710 501 710 501 710 348 c 0,9,10
595 335 m 0,25,26
 596 496 596 496 539 581.5 c 128,-1,27
 482 667 482 667 370 668 c 0,28,29
 319 668 319 668 278.5 646.5 c 128,-1,30
 238 625 238 625 210 583.5 c 128,-1,31
 182 542 182 542 167.5 483 c 128,-1,32
 153 424 153 424 153 349 c 0,33,34
 153 201 153 201 209 112 c 0,35,36
 267 22 267 22 371 20 c 0,37,38
 473 19 473 19 532 96 c 0,39,40
 594 179 594 179 595 335 c 0,25,26
EndSplineSet
Validated: 33
EndChar

StartChar: Oacute
Encoding: 211 211 150
Width: 636
GlyphClass: 2
Flags: W
LayerCount: 2
Fore
SplineSet
553 898 m 0,0,1
 553 874 553 874 511 847 c 2,2,-1
 361 752 l 1,3,-1
 319 752 l 1,4,-1
 463 897 l 2,5,6
 497 931 497 931 526 931 c 0,7,8
 534 931 534 931 543.5 919.5 c 128,-1,9
 553 908 553 908 553 898 c 0,0,1
710 348 m 0,10,11
 710 191 710 191 613 88 c 256,12,13
 516 -15 516 -15 372 -15 c 0,14,15
 227 -15 227 -15 134 84 c 0,16,17
 36 188 36 188 36 346 c 0,18,19
 36 500 36 500 135 602 c 256,20,21
 234 704 234 704 381 704 c 0,22,23
 518 704 518 704 614 602 c 0,24,25
 710 501 710 501 710 348 c 0,10,11
595 335 m 0,26,27
 596 496 596 496 539 581.5 c 128,-1,28
 482 667 482 667 370 668 c 0,29,30
 319 668 319 668 278.5 646.5 c 128,-1,31
 238 625 238 625 210 583.5 c 128,-1,32
 182 542 182 542 167.5 483 c 128,-1,33
 153 424 153 424 153 349 c 0,34,35
 153 201 153 201 209 112 c 0,36,37
 267 22 267 22 371 20 c 0,38,39
 473 19 473 19 532 96 c 0,40,41
 594 179 594 179 595 335 c 0,26,27
EndSplineSet
Validated: 33
EndChar

StartChar: Ocircumflex
Encoding: 212 212 151
Width: 636
GlyphClass: 2
Flags: W
LayerCount: 2
Fore
SplineSet
538 752 m 1,0,-1
 502 752 l 1,1,-1
 375 860 l 1,2,-1
 248 752 l 1,3,-1
 212 752 l 1,4,-1
 343 926 l 1,5,-1
 408 926 l 1,6,-1
 538 752 l 1,0,-1
710 348 m 0,7,8
 710 191 710 191 613 88 c 256,9,10
 516 -15 516 -15 372 -15 c 0,11,12
 227 -15 227 -15 134 84 c 0,13,14
 36 188 36 188 36 346 c 0,15,16
 36 500 36 500 135 602 c 256,17,18
 234 704 234 704 381 704 c 0,19,20
 518 704 518 704 614 602 c 0,21,22
 710 501 710 501 710 348 c 0,7,8
595 335 m 0,23,24
 596 496 596 496 539 581.5 c 128,-1,25
 482 667 482 667 370 668 c 0,26,27
 319 668 319 668 278.5 646.5 c 128,-1,28
 238 625 238 625 210 583.5 c 128,-1,29
 182 542 182 542 167.5 483 c 128,-1,30
 153 424 153 424 153 349 c 0,31,32
 153 201 153 201 209 112 c 0,33,34
 267 22 267 22 371 20 c 0,35,36
 473 19 473 19 532 96 c 0,37,38
 594 179 594 179 595 335 c 0,23,24
EndSplineSet
Validated: 33
EndChar

StartChar: Otilde
Encoding: 213 213 152
Width: 636
GlyphClass: 2
Flags: W
LayerCount: 2
Fore
SplineSet
548 905 m 1,0,1
 543 860 543 860 512 829 c 0,2,3
 479 794 479 794 438 794 c 0,4,5
 399 794 399 794 360 818 c 0,6,7
 319 842 319 842 288 842 c 0,8,9
 267 842 267 842 249 827 c 128,-1,10
 231 812 231 812 229 794 c 1,11,-1
 202 794 l 1,12,13
 227 900 227 900 317 900 c 0,14,15
 342 900 342 900 383 877 c 0,16,17
 423 854 423 854 449 854 c 0,18,19
 509 854 509 854 521 905 c 1,20,-1
 548 905 l 1,0,1
710 348 m 0,21,22
 710 191 710 191 613 88 c 256,23,24
 516 -15 516 -15 372 -15 c 0,25,26
 227 -15 227 -15 134 84 c 0,27,28
 36 188 36 188 36 346 c 0,29,30
 36 500 36 500 135 602 c 256,31,32
 234 704 234 704 381 704 c 0,33,34
 518 704 518 704 614 602 c 0,35,36
 710 501 710 501 710 348 c 0,21,22
595 335 m 0,37,38
 596 496 596 496 539 581.5 c 128,-1,39
 482 667 482 667 370 668 c 0,40,41
 319 668 319 668 278.5 646.5 c 128,-1,42
 238 625 238 625 210 583.5 c 128,-1,43
 182 542 182 542 167.5 483 c 128,-1,44
 153 424 153 424 153 349 c 0,45,46
 153 201 153 201 209 112 c 0,47,48
 267 22 267 22 371 20 c 0,49,50
 473 19 473 19 532 96 c 0,51,52
 594 179 594 179 595 335 c 0,37,38
EndSplineSet
Validated: 33
EndChar

StartChar: Odieresis
Encoding: 214 214 153
Width: 636
GlyphClass: 2
Flags: W
LayerCount: 2
Fore
SplineSet
531 846 m 256,0,1
 531 825 531 825 515.5 809.5 c 128,-1,2
 500 794 500 794 479 794 c 256,3,4
 458 794 458 794 442.5 810 c 128,-1,5
 427 826 427 826 427 846 c 256,6,7
 427 866 427 866 443 882 c 128,-1,8
 459 898 459 898 479 898 c 0,9,10
 500 898 500 898 515.5 882.5 c 128,-1,11
 531 867 531 867 531 846 c 256,0,1
323 846 m 256,12,13
 323 825 323 825 307.5 809.5 c 128,-1,14
 292 794 292 794 271 794 c 0,15,16
 251 794 251 794 235.5 810 c 128,-1,17
 220 826 220 826 220 846 c 256,18,19
 220 866 220 866 236 882 c 128,-1,20
 252 898 252 898 271 898 c 0,21,22
 292 898 292 898 307.5 882.5 c 128,-1,23
 323 867 323 867 323 846 c 256,12,13
710 348 m 0,24,25
 710 191 710 191 613 88 c 256,26,27
 516 -15 516 -15 372 -15 c 0,28,29
 227 -15 227 -15 134 84 c 0,30,31
 36 188 36 188 36 346 c 0,32,33
 36 500 36 500 135 602 c 256,34,35
 234 704 234 704 381 704 c 0,36,37
 518 704 518 704 614 602 c 0,38,39
 710 501 710 501 710 348 c 0,24,25
595 335 m 0,40,41
 596 496 596 496 539 581.5 c 128,-1,42
 482 667 482 667 370 668 c 0,43,44
 319 668 319 668 278.5 646.5 c 128,-1,45
 238 625 238 625 210 583.5 c 128,-1,46
 182 542 182 542 167.5 483 c 128,-1,47
 153 424 153 424 153 349 c 0,48,49
 153 201 153 201 209 112 c 0,50,51
 267 22 267 22 371 20 c 0,52,53
 473 19 473 19 532 96 c 0,54,55
 594 179 594 179 595 335 c 0,40,41
EndSplineSet
Validated: 33
EndChar

StartChar: multiply
Encoding: 215 215 154
Width: 1000
GlyphClass: 2
Flags: W
LayerCount: 2
Fore
SplineSet
770 69 m 1,0,-1
 731 30 l 1,1,-1
 500 262 l 1,2,-1
 269 30 l 1,3,-1
 230 69 l 1,4,-1
 460 300 l 1,5,-1
 230 531 l 1,6,-1
 269 570 l 1,7,-1
 500 338 l 1,8,-1
 731 570 l 1,9,-1
 770 531 l 1,10,-1
 540 300 l 1,11,-1
 770 69 l 1,0,-1
EndSplineSet
Validated: 1
EndChar

StartChar: Oslash
Encoding: 216 216 155
Width: 751
GlyphClass: 2
Flags: W
LayerCount: 2
Fore
SplineSet
711 349 m 0,0,1
 711 194 711 194 610 87 c 0,2,3
 514 -15 514 -15 378 -15 c 0,4,5
 257 -15 257 -15 167 57 c 1,6,-1
 102 -23 l 1,7,-1
 72 0 l 1,8,-1
 139 83 l 1,9,10
 37 188 37 188 37 352 c 0,11,12
 37 499 37 499 135 602 c 0,13,14
 232 704 232 704 376 704 c 0,15,16
 491 704 491 704 582 628 c 1,17,-1
 649 710 l 1,18,-1
 679 688 l 1,19,-1
 610 604 l 1,20,21
 711 497 711 497 711 349 c 0,0,1
540 576 m 1,22,23
 481 668 481 668 373 668 c 0,24,25
 257 668 257 668 199 565 c 0,26,27
 153 483 153 483 153 354 c 0,28,29
 153 234 153 234 190 147 c 1,30,-1
 540 576 l 1,22,23
594 333 m 0,31,32
 594 448 594 448 558 540 c 1,33,-1
 211 110 l 1,34,35
 273 21 273 21 370 21 c 0,36,37
 470 21 470 21 529 92 c 0,38,39
 594 172 594 172 594 333 c 0,31,32
EndSplineSet
Validated: 1
EndChar

StartChar: Ugrave
Encoding: 217 217 156
Width: 638
GlyphClass: 2
Flags: W
LayerCount: 2
Fore
SplineSet
433 752 m 1,0,-1
 391 752 l 1,1,-1
 241 847 l 2,2,3
 196 875 196 875 196 892 c 0,4,5
 196 931 196 931 228 931 c 0,6,7
 255 931 255 931 289 897 c 2,8,-1
 433 752 l 1,0,-1
740 670 m 1,9,-1
 714 670 l 2,10,11
 676 670 676 670 652 635 c 0,12,13
 647 628 647 628 644 610 c 128,-1,14
 641 592 641 592 641 563 c 2,15,-1
 641 283 l 2,16,17
 641 121 641 121 581 60 c 0,18,19
 541 18 541 18 498 2 c 0,20,21
 451 -15 451 -15 375 -15 c 0,22,23
 192 -15 192 -15 134 100 c 0,24,25
 105 160 105 160 105 297 c 2,26,-1
 105 567 l 2,27,28
 105 619 105 619 94 641 c 0,29,30
 77 670 77 670 31 670 c 2,31,-1
 15 670 l 1,32,-1
 15 688 l 1,33,-1
 293 688 l 1,34,-1
 293 670 l 1,35,-1
 267 670 l 2,36,37
 232 670 232 670 216 643 c 0,38,39
 203 624 203 624 203 567 c 2,40,-1
 203 266 l 2,41,42
 203 164 203 164 227 113 c 0,43,44
 268 27 268 27 382 27 c 0,45,46
 480 27 480 27 547 89 c 0,47,48
 595 134 595 134 595 288 c 2,49,-1
 595 567 l 2,50,51
 595 631 595 631 581 648 c 0,52,53
 562 670 562 670 522 670 c 2,54,-1
 496 670 l 1,55,-1
 496 688 l 1,56,-1
 740 688 l 1,57,-1
 740 670 l 1,9,-1
EndSplineSet
Validated: 1
EndChar

StartChar: Uacute
Encoding: 218 218 157
Width: 638
GlyphClass: 2
Flags: W
LayerCount: 2
Fore
SplineSet
555 898 m 0,0,1
 555 874 555 874 513 847 c 2,2,-1
 363 752 l 1,3,-1
 321 752 l 1,4,-1
 465 897 l 2,5,6
 499 931 499 931 528 931 c 0,7,8
 536 931 536 931 545.5 919.5 c 128,-1,9
 555 908 555 908 555 898 c 0,0,1
740 670 m 1,10,-1
 714 670 l 2,11,12
 676 670 676 670 652 635 c 0,13,14
 647 628 647 628 644 610 c 128,-1,15
 641 592 641 592 641 563 c 2,16,-1
 641 283 l 2,17,18
 641 121 641 121 581 60 c 0,19,20
 541 18 541 18 498 2 c 0,21,22
 451 -15 451 -15 375 -15 c 0,23,24
 192 -15 192 -15 134 100 c 0,25,26
 105 160 105 160 105 297 c 2,27,-1
 105 567 l 2,28,29
 105 619 105 619 94 641 c 0,30,31
 77 670 77 670 31 670 c 2,32,-1
 15 670 l 1,33,-1
 15 688 l 1,34,-1
 293 688 l 1,35,-1
 293 670 l 1,36,-1
 267 670 l 2,37,38
 232 670 232 670 216 643 c 0,39,40
 203 624 203 624 203 567 c 2,41,-1
 203 266 l 2,42,43
 203 164 203 164 227 113 c 0,44,45
 268 27 268 27 382 27 c 0,46,47
 480 27 480 27 547 89 c 0,48,49
 595 134 595 134 595 288 c 2,50,-1
 595 567 l 2,51,52
 595 631 595 631 581 648 c 0,53,54
 562 670 562 670 522 670 c 2,55,-1
 496 670 l 1,56,-1
 496 688 l 1,57,-1
 740 688 l 1,58,-1
 740 670 l 1,10,-1
EndSplineSet
Validated: 1
EndChar

StartChar: Ucircumflex
Encoding: 219 219 158
Width: 638
GlyphClass: 2
Flags: W
LayerCount: 2
Fore
SplineSet
540 752 m 1,0,-1
 504 752 l 1,1,-1
 377 860 l 1,2,-1
 250 752 l 1,3,-1
 214 752 l 1,4,-1
 345 926 l 1,5,-1
 410 926 l 1,6,-1
 540 752 l 1,0,-1
740 670 m 1,7,-1
 714 670 l 2,8,9
 676 670 676 670 652 635 c 0,10,11
 647 628 647 628 644 610 c 128,-1,12
 641 592 641 592 641 563 c 2,13,-1
 641 283 l 2,14,15
 641 121 641 121 581 60 c 0,16,17
 541 18 541 18 498 2 c 0,18,19
 451 -15 451 -15 375 -15 c 0,20,21
 192 -15 192 -15 134 100 c 0,22,23
 105 160 105 160 105 297 c 2,24,-1
 105 567 l 2,25,26
 105 619 105 619 94 641 c 0,27,28
 77 670 77 670 31 670 c 2,29,-1
 15 670 l 1,30,-1
 15 688 l 1,31,-1
 293 688 l 1,32,-1
 293 670 l 1,33,-1
 267 670 l 2,34,35
 232 670 232 670 216 643 c 0,36,37
 203 624 203 624 203 567 c 2,38,-1
 203 266 l 2,39,40
 203 164 203 164 227 113 c 0,41,42
 268 27 268 27 382 27 c 0,43,44
 480 27 480 27 547 89 c 0,45,46
 595 134 595 134 595 288 c 2,47,-1
 595 567 l 2,48,49
 595 631 595 631 581 648 c 0,50,51
 562 670 562 670 522 670 c 2,52,-1
 496 670 l 1,53,-1
 496 688 l 1,54,-1
 740 688 l 1,55,-1
 740 670 l 1,7,-1
EndSplineSet
Validated: 1
EndChar

StartChar: Udieresis
Encoding: 220 220 159
Width: 638
GlyphClass: 2
Flags: W
LayerCount: 2
Fore
SplineSet
533 846 m 256,0,1
 533 825 533 825 517.5 809.5 c 128,-1,2
 502 794 502 794 481 794 c 256,3,4
 460 794 460 794 444.5 810 c 128,-1,5
 429 826 429 826 429 846 c 256,6,7
 429 866 429 866 445 882 c 128,-1,8
 461 898 461 898 481 898 c 0,9,10
 502 898 502 898 517.5 882.5 c 128,-1,11
 533 867 533 867 533 846 c 256,0,1
325 846 m 256,12,13
 325 825 325 825 309.5 809.5 c 128,-1,14
 294 794 294 794 273 794 c 0,15,16
 253 794 253 794 237.5 810 c 128,-1,17
 222 826 222 826 222 846 c 256,18,19
 222 866 222 866 238 882 c 128,-1,20
 254 898 254 898 273 898 c 0,21,22
 294 898 294 898 309.5 882.5 c 128,-1,23
 325 867 325 867 325 846 c 256,12,13
740 670 m 1,24,-1
 714 670 l 2,25,26
 676 670 676 670 652 635 c 0,27,28
 647 628 647 628 644 610 c 128,-1,29
 641 592 641 592 641 563 c 2,30,-1
 641 283 l 2,31,32
 641 121 641 121 581 60 c 0,33,34
 541 18 541 18 498 2 c 0,35,36
 451 -15 451 -15 375 -15 c 0,37,38
 192 -15 192 -15 134 100 c 0,39,40
 105 160 105 160 105 297 c 2,41,-1
 105 567 l 2,42,43
 105 619 105 619 94 641 c 0,44,45
 77 670 77 670 31 670 c 2,46,-1
 15 670 l 1,47,-1
 15 688 l 1,48,-1
 293 688 l 1,49,-1
 293 670 l 1,50,-1
 267 670 l 2,51,52
 232 670 232 670 216 643 c 0,53,54
 203 624 203 624 203 567 c 2,55,-1
 203 266 l 2,56,57
 203 164 203 164 227 113 c 0,58,59
 268 27 268 27 382 27 c 0,60,61
 480 27 480 27 547 89 c 0,62,63
 595 134 595 134 595 288 c 2,64,-1
 595 567 l 2,65,66
 595 631 595 631 581 648 c 0,67,68
 562 670 562 670 522 670 c 2,69,-1
 496 670 l 1,70,-1
 496 688 l 1,71,-1
 740 688 l 1,72,-1
 740 670 l 1,24,-1
EndSplineSet
Validated: 1
EndChar

StartChar: Yacute
Encoding: 221 221 160
Width: 636
GlyphClass: 2
Flags: W
LayerCount: 2
Fore
SplineSet
553 898 m 0,0,1
 553 874 553 874 511 847 c 2,2,-1
 361 752 l 1,3,-1
 319 752 l 1,4,-1
 463 897 l 2,5,6
 497 931 497 931 526 931 c 0,7,8
 534 931 534 931 543.5 919.5 c 128,-1,9
 553 908 553 908 553 898 c 0,0,1
736 670 m 1,10,-1
 723 670 l 2,11,12
 678 670 678 670 638 625 c 0,13,14
 621 607 621 607 587 553 c 2,15,-1
 420 292 l 1,16,-1
 420 120 l 2,17,18
 420 56 420 56 435 40 c 0,19,20
 453 19 453 19 496 19 c 2,21,-1
 518 19 l 1,22,-1
 518 0 l 1,23,-1
 226 0 l 1,24,-1
 226 19 l 1,25,-1
 250 19 l 2,26,27
 292 19 292 19 312 46 c 0,28,29
 322 62 322 62 322 120 c 2,30,-1
 322 283 l 1,31,-1
 134 571 l 2,32,33
 123 588 123 588 116.5 598 c 128,-1,34
 110 608 110 608 106 613 c 0,35,36
 99 623 99 623 92.5 630 c 128,-1,37
 86 637 86 637 79 642 c 0,38,39
 44 670 44 670 9 670 c 1,40,-1
 9 688 l 1,41,-1
 304 688 l 1,42,-1
 304 670 l 1,43,-1
 289 670 l 2,44,45
 264 670 264 670 247 660 c 0,46,47
 225 647 225 647 225 625 c 0,48,49
 225 605 225 605 256 558 c 2,50,-1
 399 337 l 1,51,-1
 535 549 l 2,52,53
 566 598 566 598 566 620 c 0,54,55
 566 634 566 634 557 646 c 0,56,57
 542 670 542 670 496 670 c 1,58,-1
 496 688 l 1,59,-1
 736 688 l 1,60,-1
 736 670 l 1,10,-1
EndSplineSet
Validated: 1
EndChar

StartChar: Thorn
Encoding: 222 222 161
Width: 578
GlyphClass: 2
Flags: W
LayerCount: 2
Fore
SplineSet
539 345 m 0,0,1
 539 271 539 271 484 216 c 0,2,3
 452 184 452 184 414 172 c 0,4,5
 358 155 358 155 249 155 c 2,6,-1
 213 155 l 1,7,-1
 213 124 l 2,8,9
 213 68 213 68 225 47 c 0,10,11
 241 19 241 19 291 19 c 2,12,-1
 312 19 l 1,13,-1
 312 0 l 1,14,-1
 19 0 l 1,15,-1
 19 19 l 1,16,-1
 37 19 l 2,17,18
 86 19 86 19 105 47 c 0,19,20
 115 60 115 60 115 122 c 2,21,-1
 115 563 l 2,22,23
 115 621 115 621 109 633 c 0,24,25
 99 670 99 670 38 670 c 2,26,-1
 19 670 l 1,27,-1
 19 688 l 1,28,-1
 312 688 l 1,29,-1
 312 670 l 1,30,-1
 291 670 l 2,31,32
 234 670 234 670 222 633 c 0,33,34
 213 604 213 604 213 566 c 2,35,-1
 213 532 l 1,36,-1
 251 532 l 2,37,38
 339 532 339 532 383 523 c 0,39,40
 423 516 423 516 456 493 c 0,41,42
 539 437 539 437 539 345 c 0,0,1
421 344 m 0,43,44
 421 423 421 423 364 464 c 0,45,46
 341 481 341 481 325 486 c 0,47,48
 301 493 301 493 237 493 c 2,49,-1
 213 493 l 1,50,-1
 213 190 l 1,51,-1
 236 190 l 2,52,53
 421 190 421 190 421 344 c 0,43,44
EndSplineSet
Validated: 1
EndChar

StartChar: germandbls
Encoding: 223 223 162
Width: 520
GlyphClass: 2
Flags: W
LayerCount: 2
Fore
SplineSet
487 214 m 0,0,1
 487 124 487 124 441 61 c 0,2,3
 393 -5 393 -5 316 -5 c 0,4,5
 274 -5 274 -5 246.5 17.5 c 128,-1,6
 219 40 219 40 218 76 c 0,7,8
 216 120 216 120 259 120 c 0,9,10
 300 120 300 120 301 80 c 0,11,12
 301 75 301 75 298 61.5 c 128,-1,13
 295 48 295 48 295 46 c 0,14,15
 295 25 295 25 324 22 c 0,16,17
 400 22 400 22 400 159 c 0,18,19
 400 381 400 381 251 393 c 1,20,-1
 251 422 l 1,21,22
 360 422 360 422 360 560 c 0,23,24
 360 688 360 688 262 688 c 0,25,26
 217 688 217 688 196 658 c 0,27,28
 170 620 170 620 170 526 c 2,29,-1
 170 0 l 1,30,-1
 18 0 l 1,31,-1
 18 19 l 1,32,33
 58 20 58 20 71 38 c 0,34,35
 85 57 85 57 85 114 c 2,36,-1
 85 491 l 2,37,38
 85 722 85 722 266 722 c 0,39,40
 306 722 306 722 339.5 710 c 128,-1,41
 373 698 373 698 396 676.5 c 128,-1,42
 419 655 419 655 432 624.5 c 128,-1,43
 445 594 445 594 445 557 c 0,44,45
 445 457 445 457 348 417 c 1,46,47
 487 378 487 378 487 214 c 0,0,1
EndSplineSet
Validated: 33
EndChar

StartChar: agrave
Encoding: 224 224 163
Width: 462
GlyphClass: 2
Flags: W
LayerCount: 2
Fore
SplineSet
285 529 m 1,0,-1
 243 529 l 1,1,-1
 93 624 l 2,2,3
 48 652 48 652 48 669 c 0,4,5
 48 708 48 708 80 708 c 0,6,7
 107 708 107 708 141 674 c 2,8,-1
 285 529 l 1,0,-1
461 67 m 1,9,10
 405 -8 405 -8 350 -8 c 0,11,12
 296 -8 296 -8 296 67 c 1,13,14
 264 42 264 42 242.5 26.5 c 128,-1,15
 221 11 221 11 210 5 c 0,16,17
 181 -8 181 -8 148 -8 c 0,18,19
 97 -8 97 -8 67 24 c 128,-1,20
 37 56 37 56 37 110 c 0,21,22
 37 167 37 167 84 206 c 0,23,24
 141 255 141 255 296 308 c 1,25,-1
 296 327 l 2,26,27
 296 393 296 393 275 420.5 c 128,-1,28
 254 448 254 448 209 448 c 0,29,30
 178 448 178 448 159.5 432 c 128,-1,31
 141 416 141 416 139 391 c 2,32,-1
 140 361 l 2,33,34
 141 313 141 313 98 313 c 256,35,36
 55 313 55 313 55 362 c 0,37,38
 55 414 55 414 107 447 c 0,39,40
 157 478 157 478 225 478 c 0,41,42
 320 478 320 478 354 435 c 0,43,44
 381 402 381 402 381 320 c 2,45,-1
 381 161 l 2,46,47
 381 63 381 63 397 56 c 0,48,49
 400 55 400 55 406 55 c 0,50,51
 420 55 420 55 461 96 c 1,52,-1
 461 67 l 1,9,10
296 100 m 1,53,-1
 296 278 l 1,54,55
 189 236 189 236 151 200 c 0,56,57
 123 173 123 173 123 134 c 0,58,59
 123 98 123 98 143.5 74 c 128,-1,60
 164 50 164 50 194 49 c 0,61,62
 231 47 231 47 296 100 c 1,53,-1
EndSplineSet
Validated: 33
EndChar

StartChar: aacute
Encoding: 225 225 164
Width: 462
GlyphClass: 2
Flags: W
LayerCount: 2
Fore
SplineSet
407 675 m 0,0,1
 407 651 407 651 365 624 c 2,2,-1
 215 529 l 1,3,-1
 173 529 l 1,4,-1
 317 674 l 2,5,6
 351 708 351 708 380 708 c 0,7,8
 388 708 388 708 397.5 696.5 c 128,-1,9
 407 685 407 685 407 675 c 0,0,1
461 67 m 1,10,11
 405 -8 405 -8 350 -8 c 0,12,13
 296 -8 296 -8 296 67 c 1,14,15
 264 42 264 42 242.5 26.5 c 128,-1,16
 221 11 221 11 210 5 c 0,17,18
 181 -8 181 -8 148 -8 c 0,19,20
 97 -8 97 -8 67 24 c 128,-1,21
 37 56 37 56 37 110 c 0,22,23
 37 167 37 167 84 206 c 0,24,25
 141 255 141 255 296 308 c 1,26,-1
 296 327 l 2,27,28
 296 393 296 393 275 420.5 c 128,-1,29
 254 448 254 448 209 448 c 0,30,31
 178 448 178 448 159.5 432 c 128,-1,32
 141 416 141 416 139 391 c 2,33,-1
 140 361 l 2,34,35
 141 313 141 313 98 313 c 256,36,37
 55 313 55 313 55 362 c 0,38,39
 55 414 55 414 107 447 c 0,40,41
 157 478 157 478 225 478 c 0,42,43
 320 478 320 478 354 435 c 0,44,45
 381 402 381 402 381 320 c 2,46,-1
 381 161 l 2,47,48
 381 63 381 63 397 56 c 0,49,50
 400 55 400 55 406 55 c 0,51,52
 420 55 420 55 461 96 c 1,53,-1
 461 67 l 1,10,11
296 100 m 1,54,-1
 296 278 l 1,55,56
 189 236 189 236 151 200 c 0,57,58
 123 173 123 173 123 134 c 0,59,60
 123 98 123 98 143.5 74 c 128,-1,61
 164 50 164 50 194 49 c 0,62,63
 231 47 231 47 296 100 c 1,54,-1
EndSplineSet
Validated: 33
EndChar

StartChar: acircumflex
Encoding: 226 226 165
Width: 462
GlyphClass: 2
Flags: W
LayerCount: 2
Fore
SplineSet
392 529 m 1,0,-1
 356 529 l 1,1,-1
 229 637 l 1,2,-1
 102 529 l 1,3,-1
 66 529 l 1,4,-1
 197 703 l 1,5,-1
 262 703 l 1,6,-1
 392 529 l 1,0,-1
461 67 m 1,7,8
 405 -8 405 -8 350 -8 c 0,9,10
 296 -8 296 -8 296 67 c 1,11,12
 264 42 264 42 242.5 26.5 c 128,-1,13
 221 11 221 11 210 5 c 0,14,15
 181 -8 181 -8 148 -8 c 0,16,17
 97 -8 97 -8 67 24 c 128,-1,18
 37 56 37 56 37 110 c 0,19,20
 37 167 37 167 84 206 c 0,21,22
 141 255 141 255 296 308 c 1,23,-1
 296 327 l 2,24,25
 296 393 296 393 275 420.5 c 128,-1,26
 254 448 254 448 209 448 c 0,27,28
 178 448 178 448 159.5 432 c 128,-1,29
 141 416 141 416 139 391 c 2,30,-1
 140 361 l 2,31,32
 141 313 141 313 98 313 c 256,33,34
 55 313 55 313 55 362 c 0,35,36
 55 414 55 414 107 447 c 0,37,38
 157 478 157 478 225 478 c 0,39,40
 320 478 320 478 354 435 c 0,41,42
 381 402 381 402 381 320 c 2,43,-1
 381 161 l 2,44,45
 381 63 381 63 397 56 c 0,46,47
 400 55 400 55 406 55 c 0,48,49
 420 55 420 55 461 96 c 1,50,-1
 461 67 l 1,7,8
296 100 m 1,51,-1
 296 278 l 1,52,53
 189 236 189 236 151 200 c 0,54,55
 123 173 123 173 123 134 c 0,56,57
 123 98 123 98 143.5 74 c 128,-1,58
 164 50 164 50 194 49 c 0,59,60
 231 47 231 47 296 100 c 1,51,-1
EndSplineSet
Validated: 33
EndChar

StartChar: atilde
Encoding: 227 227 166
Width: 462
GlyphClass: 2
Flags: W
LayerCount: 2
Fore
SplineSet
402 682 m 1,0,1
 397 637 397 637 366 606 c 0,2,3
 333 571 333 571 292 571 c 0,4,5
 253 571 253 571 214 595 c 0,6,7
 173 619 173 619 142 619 c 0,8,9
 121 619 121 619 103 604 c 128,-1,10
 85 589 85 589 83 571 c 1,11,-1
 56 571 l 1,12,13
 81 677 81 677 171 677 c 0,14,15
 196 677 196 677 237 654 c 0,16,17
 277 631 277 631 303 631 c 0,18,19
 363 631 363 631 375 682 c 1,20,-1
 402 682 l 1,0,1
461 67 m 1,21,22
 405 -8 405 -8 350 -8 c 0,23,24
 296 -8 296 -8 296 67 c 1,25,26
 264 42 264 42 242.5 26.5 c 128,-1,27
 221 11 221 11 210 5 c 0,28,29
 181 -8 181 -8 148 -8 c 0,30,31
 97 -8 97 -8 67 24 c 128,-1,32
 37 56 37 56 37 110 c 0,33,34
 37 167 37 167 84 206 c 0,35,36
 141 255 141 255 296 308 c 1,37,-1
 296 327 l 2,38,39
 296 393 296 393 275 420.5 c 128,-1,40
 254 448 254 448 209 448 c 0,41,42
 178 448 178 448 159.5 432 c 128,-1,43
 141 416 141 416 139 391 c 2,44,-1
 140 361 l 2,45,46
 141 313 141 313 98 313 c 256,47,48
 55 313 55 313 55 362 c 0,49,50
 55 414 55 414 107 447 c 0,51,52
 157 478 157 478 225 478 c 0,53,54
 320 478 320 478 354 435 c 0,55,56
 381 402 381 402 381 320 c 2,57,-1
 381 161 l 2,58,59
 381 63 381 63 397 56 c 0,60,61
 400 55 400 55 406 55 c 0,62,63
 420 55 420 55 461 96 c 1,64,-1
 461 67 l 1,21,22
296 100 m 1,65,-1
 296 278 l 1,66,67
 189 236 189 236 151 200 c 0,68,69
 123 173 123 173 123 134 c 0,70,71
 123 98 123 98 143.5 74 c 128,-1,72
 164 50 164 50 194 49 c 0,73,74
 231 47 231 47 296 100 c 1,65,-1
EndSplineSet
Validated: 33
EndChar

StartChar: adieresis
Encoding: 228 228 167
Width: 462
GlyphClass: 2
Flags: W
LayerCount: 2
Fore
SplineSet
385 623 m 256,0,1
 385 602 385 602 369.5 586.5 c 128,-1,2
 354 571 354 571 333 571 c 256,3,4
 312 571 312 571 296.5 587 c 128,-1,5
 281 603 281 603 281 623 c 256,6,7
 281 643 281 643 297 659 c 128,-1,8
 313 675 313 675 333 675 c 0,9,10
 354 675 354 675 369.5 659.5 c 128,-1,11
 385 644 385 644 385 623 c 256,0,1
177 623 m 256,12,13
 177 602 177 602 161.5 586.5 c 128,-1,14
 146 571 146 571 125 571 c 0,15,16
 105 571 105 571 89.5 587 c 128,-1,17
 74 603 74 603 74 623 c 256,18,19
 74 643 74 643 90 659 c 128,-1,20
 106 675 106 675 125 675 c 0,21,22
 146 675 146 675 161.5 659.5 c 128,-1,23
 177 644 177 644 177 623 c 256,12,13
461 67 m 1,24,25
 405 -8 405 -8 350 -8 c 0,26,27
 296 -8 296 -8 296 67 c 1,28,29
 264 42 264 42 242.5 26.5 c 128,-1,30
 221 11 221 11 210 5 c 0,31,32
 181 -8 181 -8 148 -8 c 0,33,34
 97 -8 97 -8 67 24 c 128,-1,35
 37 56 37 56 37 110 c 0,36,37
 37 167 37 167 84 206 c 0,38,39
 141 255 141 255 296 308 c 1,40,-1
 296 327 l 2,41,42
 296 393 296 393 275 420.5 c 128,-1,43
 254 448 254 448 209 448 c 0,44,45
 178 448 178 448 159.5 432 c 128,-1,46
 141 416 141 416 139 391 c 2,47,-1
 140 361 l 2,48,49
 141 313 141 313 98 313 c 256,50,51
 55 313 55 313 55 362 c 0,52,53
 55 414 55 414 107 447 c 0,54,55
 157 478 157 478 225 478 c 0,56,57
 320 478 320 478 354 435 c 0,58,59
 381 402 381 402 381 320 c 2,60,-1
 381 161 l 2,61,62
 381 63 381 63 397 56 c 0,63,64
 400 55 400 55 406 55 c 0,65,66
 420 55 420 55 461 96 c 1,67,-1
 461 67 l 1,24,25
296 100 m 1,68,-1
 296 278 l 1,69,70
 189 236 189 236 151 200 c 0,71,72
 123 173 123 173 123 134 c 0,73,74
 123 98 123 98 143.5 74 c 128,-1,75
 164 50 164 50 194 49 c 0,76,77
 231 47 231 47 296 100 c 1,68,-1
EndSplineSet
Validated: 33
EndChar

StartChar: aring
Encoding: 229 229 168
Width: 462
GlyphClass: 2
Flags: W
LayerCount: 2
Fore
SplineSet
326 626 m 256,0,1
 326 605 326 605 318 587 c 128,-1,2
 310 569 310 569 297 556.5 c 128,-1,3
 284 544 284 544 266.5 536.5 c 128,-1,4
 249 529 249 529 230 529 c 0,5,6
 192 529 192 529 162 556 c 0,7,8
 132 584 132 584 132 626 c 0,9,10
 132 647 132 647 140 665 c 128,-1,11
 148 683 148 683 161.5 695.5 c 128,-1,12
 175 708 175 708 192.5 715.5 c 128,-1,13
 210 723 210 723 230 723 c 0,14,15
 249 723 249 723 266.5 716 c 128,-1,16
 284 709 284 709 297 696 c 128,-1,17
 310 683 310 683 318 665 c 128,-1,18
 326 647 326 647 326 626 c 256,0,1
461 67 m 1,19,20
 405 -8 405 -8 350 -8 c 0,21,22
 296 -8 296 -8 296 67 c 1,23,24
 264 42 264 42 242.5 26.5 c 128,-1,25
 221 11 221 11 210 5 c 0,26,27
 181 -8 181 -8 148 -8 c 0,28,29
 97 -8 97 -8 67 24 c 128,-1,30
 37 56 37 56 37 110 c 0,31,32
 37 167 37 167 84 206 c 0,33,34
 141 255 141 255 296 308 c 1,35,-1
 296 327 l 2,36,37
 296 393 296 393 275 420.5 c 128,-1,38
 254 448 254 448 209 448 c 0,39,40
 178 448 178 448 159.5 432 c 128,-1,41
 141 416 141 416 139 391 c 2,42,-1
 140 361 l 2,43,44
 141 313 141 313 98 313 c 256,45,46
 55 313 55 313 55 362 c 0,47,48
 55 414 55 414 107 447 c 0,49,50
 157 478 157 478 225 478 c 0,51,52
 320 478 320 478 354 435 c 0,53,54
 381 402 381 402 381 320 c 2,55,-1
 381 161 l 2,56,57
 381 63 381 63 397 56 c 0,58,59
 400 55 400 55 406 55 c 0,60,61
 420 55 420 55 461 96 c 1,62,-1
 461 67 l 1,19,20
291 626 m 0,63,64
 291 653 291 653 272.5 670.5 c 128,-1,65
 254 688 254 688 230 688 c 0,66,67
 204 688 204 688 185.5 670.5 c 128,-1,68
 167 653 167 653 167 626 c 0,69,70
 167 598 167 598 186 581 c 128,-1,71
 205 564 205 564 230 564 c 256,72,73
 255 564 255 564 273 582.5 c 128,-1,74
 291 601 291 601 291 626 c 0,63,64
296 100 m 1,75,-1
 296 278 l 1,76,77
 189 236 189 236 151 200 c 0,78,79
 123 173 123 173 123 134 c 0,80,81
 123 98 123 98 143.5 74 c 128,-1,82
 164 50 164 50 194 49 c 0,83,84
 231 47 231 47 296 100 c 1,75,-1
EndSplineSet
Validated: 33
EndChar

StartChar: ae
Encoding: 230 230 169
Width: 694
GlyphClass: 2
Flags: W
LayerCount: 2
Fore
SplineSet
662 162 m 1,0,1
 614 -14 614 -14 474 -14 c 0,2,3
 431 -14 431 -14 404 -2 c 0,4,5
 365 14 365 14 324 67 c 1,6,7
 231 -14 231 -14 151 -14 c 0,8,9
 104 -14 104 -14 70 19 c 0,10,11
 37 53 37 53 37 102 c 0,12,13
 37 168 37 168 94 210 c 0,14,15
 137 243 137 243 286 303 c 1,16,-1
 286 349 l 2,17,18
 286 450 286 450 211 450 c 0,19,20
 179 450 179 450 159.5 434.5 c 128,-1,21
 140 419 140 419 139 396 c 0,22,23
 139 371 139 371 136.5 355.5 c 128,-1,24
 134 340 134 340 129.5 331.5 c 128,-1,25
 125 323 125 323 117.5 319.5 c 128,-1,26
 110 316 110 316 99 315 c 0,27,28
 53 315 53 315 53 364 c 0,29,30
 53 407 53 407 94 440 c 0,31,32
 143 478 143 478 224 478 c 0,33,34
 337 478 337 478 361 417 c 1,35,36
 406 478 406 478 497 478 c 0,37,38
 573 478 573 478 617 428.5 c 128,-1,39
 661 379 661 379 662 288 c 1,40,-1
 372 288 l 1,41,42
 372 165 372 165 398 121 c 0,43,44
 433 62 433 62 502 62 c 0,45,46
 600 62 600 62 646 174 c 1,47,-1
 662 162 l 1,0,1
565 321 m 1,48,49
 562 443 562 443 471 443 c 0,50,51
 428 443 428 443 403 413 c 0,52,53
 374 381 374 381 372 321 c 1,54,-1
 565 321 l 1,48,49
310 94 m 1,55,56
 286 140 286 140 286 225 c 2,57,-1
 286 270 l 1,58,59
 209 241 209 241 176 219 c 0,60,61
 123 181 123 181 123 131 c 0,62,63
 123 94 123 94 146.5 67.5 c 128,-1,64
 170 41 170 41 204 40 c 0,65,66
 240 39 240 39 310 94 c 1,55,56
EndSplineSet
Validated: 33
EndChar

StartChar: ccedilla
Encoding: 231 231 170
Width: 462
GlyphClass: 2
Flags: W
LayerCount: 2
Fore
SplineSet
427 177 m 1,0,1
 413 96 413 96 361 42 c 0,2,3
 309 -10 309 -10 242 -14 c 1,4,-1
 221 -67 l 1,5,6
 234 -64 234 -64 251 -64 c 0,7,8
 288 -64 288 -64 311 -81 c 0,9,10
 338 -101 338 -101 338 -136 c 0,11,12
 338 -176 338 -176 297 -199 c 0,13,14
 256 -223 256 -223 204 -223 c 0,15,16
 165 -223 165 -223 120 -207 c 1,17,-1
 135 -174 l 1,18,19
 167 -187 167 -187 199 -187 c 0,20,21
 260 -187 260 -187 260 -143 c 0,22,23
 260 -106 260 -106 222 -103 c 0,24,25
 211 -102 211 -102 199 -103 c 128,-1,26
 187 -104 187 -104 175 -108 c 1,27,-1
 167 -102 l 1,28,-1
 205 -12 l 1,29,30
 129 0 129 0 84 63 c 0,31,32
 35 130 35 130 35 232 c 0,33,34
 35 339 35 339 101 410 c 0,35,36
 164 478 164 478 257 478 c 0,37,38
 310 478 310 478 359 450 c 0,39,40
 415 417 415 417 415 367 c 0,41,42
 415 324 415 324 367 324 c 0,43,44
 315 324 315 324 311 384 c 0,45,46
 307 445 307 445 240 445 c 0,47,48
 212 445 212 445 189.5 432.5 c 128,-1,49
 167 420 167 420 151 397.5 c 128,-1,50
 135 375 135 375 126.5 344 c 128,-1,51
 118 313 118 313 118 276 c 0,52,53
 118 188 118 188 157 130 c 0,54,55
 199 66 199 66 269 66 c 0,56,57
 364 66 364 66 413 184 c 1,58,-1
 427 177 l 1,0,1
EndSplineSet
Validated: 1
EndChar

StartChar: egrave
Encoding: 232 232 171
Width: 511
GlyphClass: 2
Flags: W
LayerCount: 2
Fore
SplineSet
306 529 m 1,0,-1
 264 529 l 1,1,-1
 114 624 l 2,2,3
 69 652 69 652 69 669 c 0,4,5
 69 708 69 708 101 708 c 0,6,7
 128 708 128 708 162 674 c 2,8,-1
 306 529 l 1,0,-1
432 170 m 1,9,10
 422 97 422 97 371 43 c 0,11,12
 318 -14 318 -14 241 -14 c 0,13,14
 154 -14 154 -14 97 52 c 0,15,16
 38 120 38 120 38 227 c 0,17,18
 38 343 38 343 98 411 c 256,19,20
 158 479 158 479 254 479 c 0,21,22
 293 479 293 479 325.5 466 c 128,-1,23
 358 453 358 453 382 428 c 128,-1,24
 406 403 406 403 419 368 c 128,-1,25
 432 333 432 333 432 290 c 1,26,-1
 110 290 l 1,27,28
 110 189 110 189 161 128 c 0,29,30
 208 71 208 71 280 69 c 0,31,32
 373 68 373 68 416 180 c 1,33,-1
 432 170 l 1,9,10
326 319 m 1,34,35
 326 386 326 386 288 419 c 0,36,37
 261 443 261 443 225 443 c 0,38,39
 182 443 182 443 149 410 c 128,-1,40
 116 377 116 377 110 319 c 1,41,-1
 326 319 l 1,34,35
EndSplineSet
Validated: 33
EndChar

StartChar: eacute
Encoding: 233 233 172
Width: 511
GlyphClass: 2
Flags: W
LayerCount: 2
Fore
SplineSet
428 675 m 0,0,1
 428 651 428 651 386 624 c 2,2,-1
 236 529 l 1,3,-1
 194 529 l 1,4,-1
 338 674 l 2,5,6
 372 708 372 708 401 708 c 0,7,8
 409 708 409 708 418.5 696.5 c 128,-1,9
 428 685 428 685 428 675 c 0,0,1
432 170 m 1,10,11
 422 97 422 97 371 43 c 0,12,13
 318 -14 318 -14 241 -14 c 0,14,15
 154 -14 154 -14 97 52 c 0,16,17
 38 120 38 120 38 227 c 0,18,19
 38 343 38 343 98 411 c 256,20,21
 158 479 158 479 254 479 c 0,22,23
 293 479 293 479 325.5 466 c 128,-1,24
 358 453 358 453 382 428 c 128,-1,25
 406 403 406 403 419 368 c 128,-1,26
 432 333 432 333 432 290 c 1,27,-1
 110 290 l 1,28,29
 110 189 110 189 161 128 c 0,30,31
 208 71 208 71 280 69 c 0,32,33
 373 68 373 68 416 180 c 1,34,-1
 432 170 l 1,10,11
326 319 m 1,35,36
 326 386 326 386 288 419 c 0,37,38
 261 443 261 443 225 443 c 0,39,40
 182 443 182 443 149 410 c 128,-1,41
 116 377 116 377 110 319 c 1,42,-1
 326 319 l 1,35,36
EndSplineSet
Validated: 33
EndChar

StartChar: ecircumflex
Encoding: 234 234 173
Width: 511
GlyphClass: 2
Flags: W
LayerCount: 2
Fore
SplineSet
413 529 m 1,0,-1
 377 529 l 1,1,-1
 250 637 l 1,2,-1
 123 529 l 1,3,-1
 87 529 l 1,4,-1
 218 703 l 1,5,-1
 283 703 l 1,6,-1
 413 529 l 1,0,-1
432 170 m 1,7,8
 422 97 422 97 371 43 c 0,9,10
 318 -14 318 -14 241 -14 c 0,11,12
 154 -14 154 -14 97 52 c 0,13,14
 38 120 38 120 38 227 c 0,15,16
 38 343 38 343 98 411 c 256,17,18
 158 479 158 479 254 479 c 0,19,20
 293 479 293 479 325.5 466 c 128,-1,21
 358 453 358 453 382 428 c 128,-1,22
 406 403 406 403 419 368 c 128,-1,23
 432 333 432 333 432 290 c 1,24,-1
 110 290 l 1,25,26
 110 189 110 189 161 128 c 0,27,28
 208 71 208 71 280 69 c 0,29,30
 373 68 373 68 416 180 c 1,31,-1
 432 170 l 1,7,8
326 319 m 1,32,33
 326 386 326 386 288 419 c 0,34,35
 261 443 261 443 225 443 c 0,36,37
 182 443 182 443 149 410 c 128,-1,38
 116 377 116 377 110 319 c 1,39,-1
 326 319 l 1,32,33
EndSplineSet
Validated: 33
EndChar

StartChar: edieresis
Encoding: 235 235 174
Width: 511
GlyphClass: 2
Flags: W
LayerCount: 2
Fore
SplineSet
406 623 m 256,0,1
 406 602 406 602 390.5 586.5 c 128,-1,2
 375 571 375 571 354 571 c 256,3,4
 333 571 333 571 317.5 587 c 128,-1,5
 302 603 302 603 302 623 c 256,6,7
 302 643 302 643 318 659 c 128,-1,8
 334 675 334 675 354 675 c 0,9,10
 375 675 375 675 390.5 659.5 c 128,-1,11
 406 644 406 644 406 623 c 256,0,1
198 623 m 256,12,13
 198 602 198 602 182.5 586.5 c 128,-1,14
 167 571 167 571 146 571 c 0,15,16
 126 571 126 571 110.5 587 c 128,-1,17
 95 603 95 603 95 623 c 256,18,19
 95 643 95 643 111 659 c 128,-1,20
 127 675 127 675 146 675 c 0,21,22
 167 675 167 675 182.5 659.5 c 128,-1,23
 198 644 198 644 198 623 c 256,12,13
432 170 m 1,24,25
 422 97 422 97 371 43 c 0,26,27
 318 -14 318 -14 241 -14 c 0,28,29
 154 -14 154 -14 97 52 c 0,30,31
 38 120 38 120 38 227 c 0,32,33
 38 343 38 343 98 411 c 256,34,35
 158 479 158 479 254 479 c 0,36,37
 293 479 293 479 325.5 466 c 128,-1,38
 358 453 358 453 382 428 c 128,-1,39
 406 403 406 403 419 368 c 128,-1,40
 432 333 432 333 432 290 c 1,41,-1
 110 290 l 1,42,43
 110 189 110 189 161 128 c 0,44,45
 208 71 208 71 280 69 c 0,46,47
 373 68 373 68 416 180 c 1,48,-1
 432 170 l 1,24,25
326 319 m 1,49,50
 326 386 326 386 288 419 c 0,51,52
 261 443 261 443 225 443 c 0,53,54
 182 443 182 443 149 410 c 128,-1,55
 116 377 116 377 110 319 c 1,56,-1
 326 319 l 1,49,50
EndSplineSet
Validated: 33
EndChar

StartChar: igrave
Encoding: 236 236 175
Width: 289
GlyphClass: 2
Flags: W
LayerCount: 2
Fore
SplineSet
207 529 m 1,0,-1
 165 529 l 1,1,-1
 15 624 l 2,2,3
 -29 653 -29 653 -29 669 c 0,4,5
 -29 708 -29 708 2 708 c 0,6,7
 29 708 29 708 63 674 c 2,8,-1
 207 529 l 1,0,-1
264 0 m 1,9,-1
 37 0 l 1,10,-1
 37 19 l 1,11,12
 59 19 59 19 73 23 c 128,-1,13
 87 27 87 27 95 36.5 c 128,-1,14
 103 46 103 46 105.5 62.5 c 128,-1,15
 108 79 108 79 108 105 c 2,16,-1
 108 284 l 2,17,18
 108 318 108 318 107.5 339.5 c 128,-1,19
 107 361 107 361 106 371 c 0,20,21
 104 395 104 395 94 404 c 0,22,23
 77 417 77 417 37 404 c 1,24,-1
 30 422 l 1,25,-1
 171 478 l 1,26,-1
 193 478 l 1,27,-1
 193 105 l 2,28,29
 193 49 193 49 205 36 c 0,30,31
 220 19 220 19 264 19 c 1,32,-1
 264 0 l 1,9,-1
EndSplineSet
Validated: 33
EndChar

StartChar: iacute
Encoding: 237 237 176
Width: 289
GlyphClass: 2
Flags: W
LayerCount: 2
Fore
SplineSet
329 675 m 0,0,1
 329 651 329 651 287 624 c 2,2,-1
 137 529 l 1,3,-1
 95 529 l 1,4,-1
 239 674 l 2,5,6
 273 708 273 708 302 708 c 0,7,8
 310 708 310 708 319.5 696.5 c 128,-1,9
 329 685 329 685 329 675 c 0,0,1
264 0 m 1,10,-1
 37 0 l 1,11,-1
 37 19 l 1,12,13
 59 19 59 19 73 23 c 128,-1,14
 87 27 87 27 95 36.5 c 128,-1,15
 103 46 103 46 105.5 62.5 c 128,-1,16
 108 79 108 79 108 105 c 2,17,-1
 108 284 l 2,18,19
 108 318 108 318 107.5 339.5 c 128,-1,20
 107 361 107 361 106 371 c 0,21,22
 104 395 104 395 94 404 c 0,23,24
 77 417 77 417 37 404 c 1,25,-1
 30 422 l 1,26,-1
 171 478 l 1,27,-1
 193 478 l 1,28,-1
 193 105 l 2,29,30
 193 49 193 49 205 36 c 0,31,32
 220 19 220 19 264 19 c 1,33,-1
 264 0 l 1,10,-1
EndSplineSet
Validated: 33
EndChar

StartChar: icircumflex
Encoding: 238 238 177
Width: 289
GlyphClass: 2
Flags: W
LayerCount: 2
Fore
SplineSet
314 529 m 1,0,-1
 278 529 l 1,1,-1
 151 637 l 1,2,-1
 24 529 l 1,3,-1
 -11 529 l 1,4,-1
 119 703 l 1,5,-1
 184 703 l 1,6,-1
 314 529 l 1,0,-1
264 0 m 1,7,-1
 37 0 l 1,8,-1
 37 19 l 1,9,10
 59 19 59 19 73 23 c 128,-1,11
 87 27 87 27 95 36.5 c 128,-1,12
 103 46 103 46 105.5 62.5 c 128,-1,13
 108 79 108 79 108 105 c 2,14,-1
 108 284 l 2,15,16
 108 318 108 318 107.5 339.5 c 128,-1,17
 107 361 107 361 106 371 c 0,18,19
 104 395 104 395 94 404 c 0,20,21
 77 417 77 417 37 404 c 1,22,-1
 30 422 l 1,23,-1
 171 478 l 1,24,-1
 193 478 l 1,25,-1
 193 105 l 2,26,27
 193 49 193 49 205 36 c 0,28,29
 220 19 220 19 264 19 c 1,30,-1
 264 0 l 1,7,-1
EndSplineSet
Validated: 33
EndChar

StartChar: idieresis
Encoding: 239 239 178
Width: 289
GlyphClass: 2
Flags: W
LayerCount: 2
Fore
SplineSet
307 623 m 256,0,1
 307 602 307 602 291.5 586.5 c 128,-1,2
 276 571 276 571 255 571 c 256,3,4
 234 571 234 571 218.5 587 c 128,-1,5
 203 603 203 603 203 623 c 256,6,7
 203 643 203 643 219 659 c 128,-1,8
 235 675 235 675 255 675 c 0,9,10
 276 675 276 675 291.5 659.5 c 128,-1,11
 307 644 307 644 307 623 c 256,0,1
99 623 m 256,12,13
 99 602 99 602 83.5 586.5 c 128,-1,14
 68 571 68 571 47 571 c 0,15,16
 27 571 27 571 12 587 c 128,-1,17
 -3 603 -3 603 -3 623 c 256,18,19
 -3 643 -3 643 12.5 659 c 128,-1,20
 28 675 28 675 47 675 c 0,21,22
 68 675 68 675 83.5 659.5 c 128,-1,23
 99 644 99 644 99 623 c 256,12,13
264 0 m 1,24,-1
 37 0 l 1,25,-1
 37 19 l 1,26,27
 59 19 59 19 73 23 c 128,-1,28
 87 27 87 27 95 36.5 c 128,-1,29
 103 46 103 46 105.5 62.5 c 128,-1,30
 108 79 108 79 108 105 c 2,31,-1
 108 284 l 2,32,33
 108 318 108 318 107.5 339.5 c 128,-1,34
 107 361 107 361 106 371 c 0,35,36
 104 395 104 395 94 404 c 0,37,38
 77 417 77 417 37 404 c 1,39,-1
 30 422 l 1,40,-1
 171 478 l 1,41,-1
 193 478 l 1,42,-1
 193 105 l 2,43,44
 193 49 193 49 205 36 c 0,45,46
 220 19 220 19 264 19 c 1,47,-1
 264 0 l 1,24,-1
EndSplineSet
Validated: 33
EndChar

StartChar: eth
Encoding: 240 240 179
Width: 520
GlyphClass: 2
Flags: W
LayerCount: 2
Fore
SplineSet
482 240 m 0,0,1
 482 138 482 138 422 65 c 0,2,3
 358 -14 358 -14 254 -14 c 0,4,5
 160 -14 160 -14 97 53 c 256,6,7
 34 120 34 120 34 224 c 0,8,9
 34 325 34 325 95 399 c 0,10,11
 156 474 156 474 248 474 c 0,12,13
 293 474 293 474 334 445 c 1,14,15
 312 490 312 490 288 526.5 c 128,-1,16
 264 563 264 563 238 594 c 1,17,-1
 112 525 l 1,18,-1
 98 553 l 1,19,-1
 216 620 l 1,20,21
 173 662 173 662 121 700 c 1,22,-1
 134 722 l 1,23,24
 191 693 191 693 260 644 c 1,25,-1
 386 714 l 1,26,-1
 404 686 l 1,27,-1
 287 620 l 1,28,29
 333 578 333 578 369.5 531.5 c 128,-1,30
 406 485 406 485 431 436.5 c 128,-1,31
 456 388 456 388 469 338 c 128,-1,32
 482 288 482 288 482 240 c 0,0,1
388 191 m 0,33,34
 388 307 388 307 348 375 c 0,35,36
 307 444 307 444 243 444 c 0,37,38
 129 444 129 444 128 263 c 0,39,40
 127 162 127 162 169 91 c 0,41,42
 211 22 211 22 278 22 c 0,43,44
 388 22 388 22 388 191 c 0,33,34
EndSplineSet
Validated: 33
EndChar

StartChar: ntilde
Encoding: 241 241 180
Width: 527
GlyphClass: 2
Flags: W
LayerCount: 2
Fore
SplineSet
439 682 m 1,0,1
 434 637 434 637 403 606 c 0,2,3
 370 571 370 571 329 571 c 0,4,5
 290 571 290 571 251 595 c 0,6,7
 210 619 210 619 179 619 c 0,8,9
 158 619 158 619 140 604 c 128,-1,10
 122 589 122 589 120 571 c 1,11,-1
 93 571 l 1,12,13
 118 677 118 677 208 677 c 0,14,15
 233 677 233 677 274 654 c 0,16,17
 314 631 314 631 340 631 c 0,18,19
 400 631 400 631 412 682 c 1,20,-1
 439 682 l 1,0,1
518 0 m 1,21,-1
 285 0 l 1,22,-1
 285 19 l 1,23,24
 336 19 336 19 348 34 c 0,25,26
 361 50 361 50 361 105 c 2,27,-1
 361 295 l 2,28,29
 361 359 361 359 344.5 387.5 c 128,-1,30
 328 416 328 416 288 416 c 0,31,32
 228 416 228 416 168 350 c 1,33,-1
 168 105 l 2,34,35
 168 52 168 52 178 39 c 0,36,37
 192 19 192 19 244 19 c 1,38,-1
 244 0 l 1,39,-1
 13 0 l 1,40,-1
 13 19 l 1,41,42
 57 19 57 19 70 35 c 256,43,44
 83 51 83 51 83 105 c 2,45,-1
 83 278 l 2,46,47
 83 391 83 391 68 405 c 0,48,49
 51 419 51 419 13 404 c 1,50,-1
 5 422 l 1,51,-1
 147 478 l 1,52,-1
 168 478 l 1,53,-1
 168 381 l 1,54,55
 250 478 250 478 324 478 c 0,56,57
 446 478 446 478 446 304 c 2,58,-1
 446 105 l 2,59,60
 446 56 446 56 456 40 c 0,61,62
 469 19 469 19 518 19 c 1,63,-1
 518 0 l 1,21,-1
EndSplineSet
Validated: 33
EndChar

StartChar: ograve
Encoding: 242 242 181
Width: 521
GlyphClass: 2
Flags: W
LayerCount: 2
Fore
SplineSet
316 529 m 1,0,-1
 274 529 l 1,1,-1
 124 624 l 2,2,3
 79 652 79 652 79 669 c 0,4,5
 79 708 79 708 111 708 c 0,6,7
 138 708 138 708 172 674 c 2,8,-1
 316 529 l 1,0,-1
484 241 m 0,9,10
 484 141 484 141 427 68 c 0,11,12
 363 -14 363 -14 255 -14 c 0,13,14
 159 -14 159 -14 97 57 c 0,15,16
 35 130 35 130 35 228 c 256,17,18
 35 326 35 326 95 400 c 0,19,20
 159 478 159 478 260 478 c 0,21,22
 358 478 358 478 421 410 c 256,23,24
 484 342 484 342 484 241 c 0,9,10
389 202 m 0,25,26
 389 309 389 309 349 377 c 0,27,28
 310 446 310 446 244 446 c 0,29,30
 197 446 197 446 167 409 c 0,31,32
 129 362 129 362 129 270 c 0,33,34
 129 166 129 166 169 96 c 0,35,36
 211 22 211 22 276 22 c 0,37,38
 389 22 389 22 389 202 c 0,25,26
EndSplineSet
Validated: 1
EndChar

StartChar: oacute
Encoding: 243 243 182
Width: 521
GlyphClass: 2
Flags: W
LayerCount: 2
Fore
SplineSet
438 675 m 0,0,1
 438 651 438 651 396 624 c 2,2,-1
 246 529 l 1,3,-1
 204 529 l 1,4,-1
 348 674 l 2,5,6
 382 708 382 708 411 708 c 0,7,8
 419 708 419 708 428.5 696.5 c 128,-1,9
 438 685 438 685 438 675 c 0,0,1
484 241 m 0,10,11
 484 141 484 141 427 68 c 0,12,13
 363 -14 363 -14 255 -14 c 0,14,15
 159 -14 159 -14 97 57 c 0,16,17
 35 130 35 130 35 228 c 256,18,19
 35 326 35 326 95 400 c 0,20,21
 159 478 159 478 260 478 c 0,22,23
 358 478 358 478 421 410 c 256,24,25
 484 342 484 342 484 241 c 0,10,11
389 202 m 0,26,27
 389 309 389 309 349 377 c 0,28,29
 310 446 310 446 244 446 c 0,30,31
 197 446 197 446 167 409 c 0,32,33
 129 362 129 362 129 270 c 0,34,35
 129 166 129 166 169 96 c 0,36,37
 211 22 211 22 276 22 c 0,38,39
 389 22 389 22 389 202 c 0,26,27
EndSplineSet
Validated: 1
EndChar

StartChar: ocircumflex
Encoding: 244 244 183
Width: 521
GlyphClass: 2
Flags: W
LayerCount: 2
Fore
SplineSet
423 529 m 1,0,-1
 387 529 l 1,1,-1
 260 637 l 1,2,-1
 133 529 l 1,3,-1
 97 529 l 1,4,-1
 228 703 l 1,5,-1
 293 703 l 1,6,-1
 423 529 l 1,0,-1
484 241 m 0,7,8
 484 141 484 141 427 68 c 0,9,10
 363 -14 363 -14 255 -14 c 0,11,12
 159 -14 159 -14 97 57 c 0,13,14
 35 130 35 130 35 228 c 256,15,16
 35 326 35 326 95 400 c 0,17,18
 159 478 159 478 260 478 c 0,19,20
 358 478 358 478 421 410 c 256,21,22
 484 342 484 342 484 241 c 0,7,8
389 202 m 0,23,24
 389 309 389 309 349 377 c 0,25,26
 310 446 310 446 244 446 c 0,27,28
 197 446 197 446 167 409 c 0,29,30
 129 362 129 362 129 270 c 0,31,32
 129 166 129 166 169 96 c 0,33,34
 211 22 211 22 276 22 c 0,35,36
 389 22 389 22 389 202 c 0,23,24
EndSplineSet
Validated: 1
EndChar

StartChar: otilde
Encoding: 245 245 184
Width: 521
GlyphClass: 2
Flags: W
LayerCount: 2
Fore
SplineSet
433 682 m 1,0,1
 428 637 428 637 397 606 c 0,2,3
 364 571 364 571 323 571 c 0,4,5
 284 571 284 571 245 595 c 0,6,7
 204 619 204 619 173 619 c 0,8,9
 152 619 152 619 134 604 c 128,-1,10
 116 589 116 589 114 571 c 1,11,-1
 87 571 l 1,12,13
 112 677 112 677 202 677 c 0,14,15
 227 677 227 677 268 654 c 0,16,17
 308 631 308 631 334 631 c 0,18,19
 394 631 394 631 406 682 c 1,20,-1
 433 682 l 1,0,1
484 241 m 0,21,22
 484 141 484 141 427 68 c 0,23,24
 363 -14 363 -14 255 -14 c 0,25,26
 159 -14 159 -14 97 57 c 0,27,28
 35 130 35 130 35 228 c 256,29,30
 35 326 35 326 95 400 c 0,31,32
 159 478 159 478 260 478 c 0,33,34
 358 478 358 478 421 410 c 256,35,36
 484 342 484 342 484 241 c 0,21,22
389 202 m 0,37,38
 389 309 389 309 349 377 c 0,39,40
 310 446 310 446 244 446 c 0,41,42
 197 446 197 446 167 409 c 0,43,44
 129 362 129 362 129 270 c 0,45,46
 129 166 129 166 169 96 c 0,47,48
 211 22 211 22 276 22 c 0,49,50
 389 22 389 22 389 202 c 0,37,38
EndSplineSet
Validated: 1
EndChar

StartChar: odieresis
Encoding: 246 246 185
Width: 521
GlyphClass: 2
Flags: W
LayerCount: 2
Fore
SplineSet
416 623 m 256,0,1
 416 602 416 602 400.5 586.5 c 128,-1,2
 385 571 385 571 364 571 c 256,3,4
 343 571 343 571 327.5 587 c 128,-1,5
 312 603 312 603 312 623 c 256,6,7
 312 643 312 643 328 659 c 128,-1,8
 344 675 344 675 364 675 c 0,9,10
 385 675 385 675 400.5 659.5 c 128,-1,11
 416 644 416 644 416 623 c 256,0,1
208 623 m 256,12,13
 208 602 208 602 192.5 586.5 c 128,-1,14
 177 571 177 571 156 571 c 0,15,16
 136 571 136 571 120.5 587 c 128,-1,17
 105 603 105 603 105 623 c 256,18,19
 105 643 105 643 121 659 c 128,-1,20
 137 675 137 675 156 675 c 0,21,22
 177 675 177 675 192.5 659.5 c 128,-1,23
 208 644 208 644 208 623 c 256,12,13
484 241 m 0,24,25
 484 141 484 141 427 68 c 0,26,27
 363 -14 363 -14 255 -14 c 0,28,29
 159 -14 159 -14 97 57 c 0,30,31
 35 130 35 130 35 228 c 256,32,33
 35 326 35 326 95 400 c 0,34,35
 159 478 159 478 260 478 c 0,36,37
 358 478 358 478 421 410 c 256,38,39
 484 342 484 342 484 241 c 0,24,25
389 202 m 0,40,41
 389 309 389 309 349 377 c 0,42,43
 310 446 310 446 244 446 c 0,44,45
 197 446 197 446 167 409 c 0,46,47
 129 362 129 362 129 270 c 0,48,49
 129 166 129 166 169 96 c 0,50,51
 211 22 211 22 276 22 c 0,52,53
 389 22 389 22 389 202 c 0,40,41
EndSplineSet
Validated: 1
EndChar

StartChar: divide
Encoding: 247 247 186
Width: 1000
GlyphClass: 2
Flags: W
LayerCount: 2
Fore
SplineSet
560 461 m 256,0,1
 560 436 560 436 542.5 418.5 c 128,-1,2
 525 401 525 401 500 401 c 256,3,4
 475 401 475 401 457.5 418.5 c 128,-1,5
 440 436 440 436 440 461 c 256,6,7
 440 486 440 486 457.5 503.5 c 128,-1,8
 475 521 475 521 500 521 c 256,9,10
 525 521 525 521 542.5 503.5 c 128,-1,11
 560 486 560 486 560 461 c 256,0,1
800 269 m 1,12,-1
 200 269 l 1,13,-1
 200 331 l 1,14,-1
 800 331 l 1,15,-1
 800 269 l 1,12,-1
560 139 m 256,16,17
 560 114 560 114 542.5 97 c 128,-1,18
 525 80 525 80 500 80 c 256,19,20
 475 80 475 80 457.5 97 c 128,-1,21
 440 114 440 114 440 139 c 256,22,23
 440 164 440 164 457.5 181.5 c 128,-1,24
 475 199 475 199 500 199 c 256,25,26
 525 199 525 199 542.5 181.5 c 128,-1,27
 560 164 560 164 560 139 c 256,16,17
EndSplineSet
Validated: 1
EndChar

StartChar: oslash
Encoding: 248 248 187
Width: 520
GlyphClass: 2
Flags: W
LayerCount: 2
Fore
SplineSet
500 475 m 1,0,-1
 432 398 l 1,1,2
 484 329 484 329 486 240 c 0,3,4
 487 192 487 192 472.5 150 c 128,-1,5
 458 108 458 108 429 70 c 0,6,7
 363 -14 363 -14 257 -14 c 0,8,9
 182 -14 182 -14 112 44 c 1,10,-1
 44 -33 l 1,11,-1
 20 -11 l 1,12,-1
 92 69 l 1,13,14
 39 133 39 133 37 231 c 0,15,16
 36 323 36 323 96 397 c 0,17,18
 162 478 162 478 264 478 c 0,19,20
 343 478 343 478 410 422 c 1,21,-1
 477 497 l 1,22,-1
 500 475 l 1,0,-1
358 365 m 1,23,24
 310 445 310 445 248 445 c 0,25,26
 132 445 132 445 132 270 c 0,27,28
 132 206 132 206 152 137 c 1,29,-1
 358 365 l 1,23,24
392 204 m 0,30,31
 392 261 392 261 372 332 c 1,32,-1
 166 104 l 1,33,34
 179 80 179 80 191.5 64.5 c 128,-1,35
 204 49 204 49 217 39.5 c 128,-1,36
 230 30 230 30 245 26 c 128,-1,37
 260 22 260 22 278 22 c 0,38,39
 392 22 392 22 392 204 c 0,30,31
EndSplineSet
Validated: 33
EndChar

StartChar: ugrave
Encoding: 249 249 188
Width: 521
GlyphClass: 2
Flags: W
LayerCount: 2
Fore
SplineSet
316 529 m 1,0,-1
 274 529 l 1,1,-1
 124 624 l 2,2,3
 79 652 79 652 79 669 c 0,4,5
 79 708 79 708 111 708 c 0,6,7
 138 708 138 708 172 674 c 2,8,-1
 316 529 l 1,0,-1
521 43 m 1,9,-1
 380 -14 l 1,10,-1
 357 -14 l 1,11,-1
 357 84 l 1,12,13
 329 55 329 55 306.5 35 c 128,-1,14
 284 15 284 15 267 5 c 0,15,16
 232 -14 232 -14 199 -14 c 0,17,18
 79 -14 79 -14 79 166 c 2,19,-1
 79 374 l 2,20,21
 79 418 79 418 62 432 c 128,-1,22
 45 446 45 446 0 446 c 1,23,-1
 0 465 l 1,24,-1
 164 465 l 1,25,-1
 164 154 l 2,26,27
 164 48 164 48 241 48 c 0,28,29
 291 48 291 48 357 114 c 1,30,-1
 357 378 l 2,31,32
 357 419 357 419 339 433 c 0,33,34
 324 445 324 445 282 446 c 1,35,-1
 282 465 l 1,36,-1
 442 465 l 1,37,-1
 442 123 l 2,38,39
 442 53 442 53 473 53 c 0,40,41
 493 53 493 53 514 61 c 1,42,-1
 521 43 l 1,9,-1
EndSplineSet
Validated: 1
EndChar

StartChar: uacute
Encoding: 250 250 189
Width: 521
GlyphClass: 2
Flags: W
LayerCount: 2
Fore
SplineSet
438 675 m 0,0,1
 438 651 438 651 396 624 c 2,2,-1
 246 529 l 1,3,-1
 204 529 l 1,4,-1
 348 674 l 2,5,6
 382 708 382 708 411 708 c 0,7,8
 419 708 419 708 428.5 696.5 c 128,-1,9
 438 685 438 685 438 675 c 0,0,1
521 43 m 1,10,-1
 380 -14 l 1,11,-1
 357 -14 l 1,12,-1
 357 84 l 1,13,14
 329 55 329 55 306.5 35 c 128,-1,15
 284 15 284 15 267 5 c 0,16,17
 232 -14 232 -14 199 -14 c 0,18,19
 79 -14 79 -14 79 166 c 2,20,-1
 79 374 l 2,21,22
 79 418 79 418 62 432 c 128,-1,23
 45 446 45 446 0 446 c 1,24,-1
 0 465 l 1,25,-1
 164 465 l 1,26,-1
 164 154 l 2,27,28
 164 48 164 48 241 48 c 0,29,30
 291 48 291 48 357 114 c 1,31,-1
 357 378 l 2,32,33
 357 419 357 419 339 433 c 0,34,35
 324 445 324 445 282 446 c 1,36,-1
 282 465 l 1,37,-1
 442 465 l 1,38,-1
 442 123 l 2,39,40
 442 53 442 53 473 53 c 0,41,42
 493 53 493 53 514 61 c 1,43,-1
 521 43 l 1,10,-1
EndSplineSet
Validated: 1
EndChar

StartChar: ucircumflex
Encoding: 251 251 190
Width: 521
GlyphClass: 2
Flags: W
LayerCount: 2
Fore
SplineSet
423 529 m 1,0,-1
 387 529 l 1,1,-1
 260 637 l 1,2,-1
 133 529 l 1,3,-1
 97 529 l 1,4,-1
 228 703 l 1,5,-1
 293 703 l 1,6,-1
 423 529 l 1,0,-1
521 43 m 1,7,-1
 380 -14 l 1,8,-1
 357 -14 l 1,9,-1
 357 84 l 1,10,11
 329 55 329 55 306.5 35 c 128,-1,12
 284 15 284 15 267 5 c 0,13,14
 232 -14 232 -14 199 -14 c 0,15,16
 79 -14 79 -14 79 166 c 2,17,-1
 79 374 l 2,18,19
 79 418 79 418 62 432 c 128,-1,20
 45 446 45 446 0 446 c 1,21,-1
 0 465 l 1,22,-1
 164 465 l 1,23,-1
 164 154 l 2,24,25
 164 48 164 48 241 48 c 0,26,27
 291 48 291 48 357 114 c 1,28,-1
 357 378 l 2,29,30
 357 419 357 419 339 433 c 0,31,32
 324 445 324 445 282 446 c 1,33,-1
 282 465 l 1,34,-1
 442 465 l 1,35,-1
 442 123 l 2,36,37
 442 53 442 53 473 53 c 0,38,39
 493 53 493 53 514 61 c 1,40,-1
 521 43 l 1,7,-1
EndSplineSet
Validated: 1
EndChar

StartChar: udieresis
Encoding: 252 252 191
Width: 521
GlyphClass: 2
Flags: W
LayerCount: 2
Fore
SplineSet
416 623 m 256,0,1
 416 602 416 602 400.5 586.5 c 128,-1,2
 385 571 385 571 364 571 c 256,3,4
 343 571 343 571 327.5 587 c 128,-1,5
 312 603 312 603 312 623 c 256,6,7
 312 643 312 643 328 659 c 128,-1,8
 344 675 344 675 364 675 c 0,9,10
 385 675 385 675 400.5 659.5 c 128,-1,11
 416 644 416 644 416 623 c 256,0,1
208 623 m 256,12,13
 208 602 208 602 192.5 586.5 c 128,-1,14
 177 571 177 571 156 571 c 0,15,16
 136 571 136 571 120.5 587 c 128,-1,17
 105 603 105 603 105 623 c 256,18,19
 105 643 105 643 121 659 c 128,-1,20
 137 675 137 675 156 675 c 0,21,22
 177 675 177 675 192.5 659.5 c 128,-1,23
 208 644 208 644 208 623 c 256,12,13
521 43 m 1,24,-1
 380 -14 l 1,25,-1
 357 -14 l 1,26,-1
 357 84 l 1,27,28
 329 55 329 55 306.5 35 c 128,-1,29
 284 15 284 15 267 5 c 0,30,31
 232 -14 232 -14 199 -14 c 0,32,33
 79 -14 79 -14 79 166 c 2,34,-1
 79 374 l 2,35,36
 79 418 79 418 62 432 c 128,-1,37
 45 446 45 446 0 446 c 1,38,-1
 0 465 l 1,39,-1
 164 465 l 1,40,-1
 164 154 l 2,41,42
 164 48 164 48 241 48 c 0,43,44
 291 48 291 48 357 114 c 1,45,-1
 357 378 l 2,46,47
 357 419 357 419 339 433 c 0,48,49
 324 445 324 445 282 446 c 1,50,-1
 282 465 l 1,51,-1
 442 465 l 1,52,-1
 442 123 l 2,53,54
 442 53 442 53 473 53 c 0,55,56
 493 53 493 53 514 61 c 1,57,-1
 521 43 l 1,24,-1
EndSplineSet
Validated: 1
EndChar

StartChar: yacute
Encoding: 253 253 192
Width: 535
GlyphClass: 2
Flags: W
LayerCount: 2
Fore
SplineSet
452 675 m 0,0,1
 452 651 452 651 410 624 c 2,2,-1
 260 529 l 1,3,-1
 218 529 l 1,4,-1
 362 674 l 2,5,6
 396 708 396 708 425 708 c 0,7,8
 433 708 433 708 442.5 696.5 c 128,-1,9
 452 685 452 685 452 675 c 0,0,1
514 446 m 1,10,11
 491 445 491 445 478 433 c 0,12,13
 463 419 463 419 445 376 c 2,14,-1
 256 -87 l 2,15,16
 230 -151 230 -151 187 -187.5 c 128,-1,17
 144 -224 144 -224 99 -224 c 0,18,19
 69 -224 69 -224 49.5 -207 c 128,-1,20
 30 -190 30 -190 30 -166 c 0,21,22
 30 -120 30 -120 82 -120 c 0,23,24
 94 -120 94 -120 123 -129 c 0,25,26
 151 -138 151 -138 153 -138 c 0,27,28
 191 -138 191 -138 223 -61 c 2,29,-1
 256 19 l 1,30,-1
 89 369 l 2,31,32
 73 403 73 403 62 415 c 0,33,34
 39 443 39 443 6 446 c 1,35,-1
 6 465 l 1,36,-1
 223 465 l 1,37,-1
 223 446 l 1,38,-1
 212 446 l 2,39,40
 166 446 166 446 166 412 c 0,41,42
 166 393 166 393 183 357 c 2,43,-1
 296 123 l 1,44,-1
 400 380 l 2,45,46
 419 417 419 417 406 435 c 0,47,48
 398 446 398 446 363 446 c 1,49,-1
 363 465 l 1,50,-1
 514 465 l 1,51,-1
 514 446 l 1,10,11
EndSplineSet
Validated: 33
EndChar

StartChar: thorn
Encoding: 254 254 193
Width: 520
GlyphClass: 2
Flags: W
LayerCount: 2
Fore
SplineSet
485 250 m 0,0,1
 485 139 485 139 426 62 c 0,2,3
 397 24 397 24 358.5 5.5 c 128,-1,4
 320 -13 320 -13 272 -14 c 0,5,6
 237 -14 237 -14 218 -8 c 0,7,8
 191 2 191 2 161 27 c 1,9,-1
 161 -113 l 2,10,11
 161 -169 161 -169 173 -184 c 0,12,13
 187 -199 187 -199 240 -202 c 1,14,-1
 240 -221 l 1,15,-1
 -3 -221 l 1,16,-1
 -3 -202 l 1,17,18
 53 -199 53 -199 67 -182 c 0,19,20
 77 -169 77 -169 77 -111 c 2,21,-1
 77 573 l 1,22,-1
 77 614 l 2,23,24
 74 641 74 641 60 649 c 0,25,26
 42 662 42 662 5 648 c 1,27,-1
 0 665 l 1,28,-1
 142 722 l 1,29,-1
 161 722 l 1,30,-1
 161 368 l 1,31,32
 226 478 226 478 311 478 c 0,33,34
 386 478 386 478 436 413 c 0,35,36
 485 349 485 349 485 250 c 0,0,1
394 202 m 0,37,38
 394 293 394 293 360 349 c 0,39,40
 325 406 325 406 270 406 c 0,41,42
 245 406 245 406 229 397 c 0,43,44
 218 390 218 390 201 375.5 c 128,-1,45
 184 361 184 361 161 338 c 1,46,-1
 161 164 l 2,47,48
 161 112 161 112 166 90 c 0,49,50
 174 59 174 59 199 40 c 0,51,52
 227 18 227 18 270 16 c 0,53,54
 327 15 327 15 360.5 65.5 c 128,-1,55
 394 116 394 116 394 202 c 0,37,38
EndSplineSet
Validated: 33
EndChar

StartChar: ydieresis
Encoding: 255 255 194
Width: 535
GlyphClass: 2
Flags: W
LayerCount: 2
Fore
SplineSet
430 623 m 256,0,1
 430 602 430 602 414.5 586.5 c 128,-1,2
 399 571 399 571 378 571 c 256,3,4
 357 571 357 571 341.5 587 c 128,-1,5
 326 603 326 603 326 623 c 256,6,7
 326 643 326 643 342 659 c 128,-1,8
 358 675 358 675 378 675 c 0,9,10
 399 675 399 675 414.5 659.5 c 128,-1,11
 430 644 430 644 430 623 c 256,0,1
222 623 m 256,12,13
 222 602 222 602 206.5 586.5 c 128,-1,14
 191 571 191 571 170 571 c 0,15,16
 150 571 150 571 134.5 587 c 128,-1,17
 119 603 119 603 119 623 c 256,18,19
 119 643 119 643 135 659 c 128,-1,20
 151 675 151 675 170 675 c 0,21,22
 191 675 191 675 206.5 659.5 c 128,-1,23
 222 644 222 644 222 623 c 256,12,13
514 446 m 1,24,25
 491 445 491 445 478 433 c 0,26,27
 463 419 463 419 445 376 c 2,28,-1
 256 -87 l 2,29,30
 230 -151 230 -151 187 -187.5 c 128,-1,31
 144 -224 144 -224 99 -224 c 0,32,33
 69 -224 69 -224 49.5 -207 c 128,-1,34
 30 -190 30 -190 30 -166 c 0,35,36
 30 -120 30 -120 82 -120 c 0,37,38
 94 -120 94 -120 123 -129 c 0,39,40
 151 -138 151 -138 153 -138 c 0,41,42
 191 -138 191 -138 223 -61 c 2,43,-1
 256 19 l 1,44,-1
 89 369 l 2,45,46
 73 403 73 403 62 415 c 0,47,48
 39 443 39 443 6 446 c 1,49,-1
 6 465 l 1,50,-1
 223 465 l 1,51,-1
 223 446 l 1,52,-1
 212 446 l 2,53,54
 166 446 166 446 166 412 c 0,55,56
 166 393 166 393 183 357 c 2,57,-1
 296 123 l 1,58,-1
 400 380 l 2,59,60
 419 417 419 417 406 435 c 0,61,62
 398 446 398 446 363 446 c 1,63,-1
 363 465 l 1,64,-1
 514 465 l 1,65,-1
 514 446 l 1,24,25
EndSplineSet
Validated: 33
EndChar

StartChar: quoteleft
Encoding: 8216 8216 195
Width: 209
GlyphClass: 2
Flags: W
LayerCount: 2
Fore
SplineSet
181 481 m 0,0,1
 181 456 181 456 166 443 c 0,2,3
 146 424 146 424 117 424 c 0,4,5
 84 424 84 424 58 452 c 0,6,7
 32 479 32 479 32 521 c 0,8,9
 32 579 32 579 75 626 c 0,10,11
 103 657 103 657 158 677 c 1,12,-1
 158 656 l 1,13,14
 108 626 108 626 90 600 c 0,15,16
 77 579 77 579 77 555 c 0,17,18
 77 539 77 539 83 532 c 256,19,20
 89 525 89 525 96 525 c 0,21,22
 100 525 100 525 109 528 c 0,23,24
 124 533 124 533 131 533 c 0,25,26
 149 533 149 533 166 518 c 0,27,28
 181 503 181 503 181 481 c 0,0,1
EndSplineSet
Validated: 1
EndChar

StartChar: quoteright
Encoding: 8217 8217 196
Width: 211
GlyphClass: 2
Flags: W
LayerCount: 2
Fore
SplineSet
180 581 m 0,0,1
 180 525 180 525 136 476 c 0,2,3
 108 446 108 446 53 424 c 1,4,-1
 53 447 l 1,5,6
 103 477 103 477 121 503 c 0,7,8
 134 520 134 520 134 547 c 0,9,10
 134 562 134 562 128 570 c 0,11,12
 124 577 124 577 116 577 c 0,13,14
 109 577 109 577 102 574 c 0,15,16
 87 569 87 569 81 569 c 0,17,18
 61 569 61 569 46 584 c 256,19,20
 31 599 31 599 31 621 c 0,21,22
 31 645 31 645 46 659 c 0,23,24
 67 677 67 677 95 677 c 0,25,26
 127 677 127 677 154 650 c 0,27,28
 180 621 180 621 180 581 c 0,0,1
EndSplineSet
Validated: 1
EndChar

StartChar: quotereversed
Encoding: 8219 8219 198
Width: 210
GlyphClass: 2
Flags: W
LayerCount: 2
Fore
SplineSet
180 621 m 0,0,1
 180 596 180 596 164 583 c 0,2,3
 147 569 147 569 131 569 c 0,4,5
 124 569 124 569 109 574 c 0,6,7
 100 577 100 577 95 577 c 0,8,9
 77 577 77 577 77 547 c 0,10,11
 77 514 77 514 98 492 c 0,12,13
 119 469 119 469 158 447 c 1,14,-1
 158 424 l 1,15,16
 129 435 129 435 106.5 450 c 128,-1,17
 84 465 84 465 66 485 c 0,18,19
 31 526 31 526 31 581 c 0,20,21
 31 621 31 621 57 649 c 0,22,23
 82 677 82 677 116 677 c 0,24,25
 140 677 140 677 160 663 c 256,26,27
 180 649 180 649 180 621 c 0,0,1
EndSplineSet
Validated: 1
EndChar

StartChar: quotedblleft
Encoding: 8220 8220 199
Width: 444
GlyphClass: 2
Flags: W
LayerCount: 2
Fore
SplineSet
416 484 m 0,0,1
 416 462 416 462 397 443 c 0,2,3
 377 425 377 425 351 425 c 0,4,5
 320 425 320 425 292 453 c 0,6,7
 267 481 267 481 267 522 c 0,8,9
 267 573 267 573 299 616 c 0,10,11
 332 658 332 658 392 676 c 1,12,-1
 392 657 l 1,13,14
 344 629 344 629 327 606 c 0,15,16
 312 583 312 583 312 554 c 0,17,18
 312 539 312 539 317 533 c 0,19,20
 322 526 322 526 328 526 c 0,21,22
 331 526 331 526 335 527 c 128,-1,23
 339 528 339 528 344 530 c 0,24,25
 353 534 353 534 366 534 c 0,26,27
 385 534 385 534 401 520 c 0,28,29
 416 505 416 505 416 484 c 0,0,1
181 483 m 0,30,31
 181 459 181 459 163 443 c 0,32,33
 146 426 146 426 118 426 c 0,34,35
 86 426 86 426 59 454 c 0,36,37
 33 483 33 483 33 524 c 0,38,39
 33 572 33 572 65 615 c 0,40,41
 99 658 99 658 159 677 c 1,42,-1
 159 657 l 1,43,44
 138 646 138 646 122.5 634.5 c 128,-1,45
 107 623 107 623 98 610 c 0,46,47
 79 587 79 587 79 557 c 0,48,49
 79 541 79 541 84 534 c 0,50,51
 88 527 88 527 95 527 c 0,52,53
 103 527 103 527 112 531 c 0,54,55
 122 534 122 534 131 534 c 0,56,57
 151 534 151 534 166 519 c 256,58,59
 181 504 181 504 181 483 c 0,30,31
EndSplineSet
Validated: 1
EndChar

StartChar: quotedblbase
Encoding: 8222 8222 201
Width: 444
GlyphClass: 2
Flags: W
LayerCount: 2
Fore
SplineSet
416 0 m 0,0,1
 416 -49 416 -49 383 -91 c 0,2,3
 349 -134 349 -134 289 -153 c 1,4,-1
 289 -133 l 1,5,6
 310 -122 310 -122 325.5 -110.5 c 128,-1,7
 341 -99 341 -99 350 -86 c 0,8,9
 369 -63 369 -63 369 -33 c 0,10,11
 369 -14 369 -14 364 -9 c 0,12,13
 360 -2 360 -2 354 -2 c 0,14,15
 350 -2 350 -2 346 -3 c 128,-1,16
 342 -4 342 -4 336 -6 c 0,17,18
 327 -10 327 -10 317 -10 c 0,19,20
 298 -10 298 -10 282 4 c 0,21,22
 267 19 267 19 267 40 c 0,23,24
 267 63 267 63 285 81 c 0,25,26
 304 98 304 98 330 98 c 0,27,28
 363 98 363 98 389 69 c 0,29,30
 416 40 416 40 416 0 c 0,0,1
182 0 m 0,31,32
 182 -51 182 -51 149 -93 c 0,33,34
 116 -137 116 -137 56 -153 c 1,35,-1
 56 -133 l 1,36,37
 106 -104 106 -104 121 -82 c 256,38,39
 136 -60 136 -60 136 -30 c 0,40,41
 136 -15 136 -15 131 -9 c 0,42,43
 126 -2 126 -2 120 -2 c 0,44,45
 117 -2 117 -2 113 -3 c 128,-1,46
 109 -4 109 -4 104 -6 c 0,47,48
 95 -10 95 -10 83 -10 c 0,49,50
 63 -10 63 -10 47 3 c 0,51,52
 33 19 33 19 33 39 c 0,53,54
 33 62 33 62 52 80 c 0,55,56
 70 98 70 98 97 98 c 0,57,58
 128 98 128 98 156 70 c 0,59,60
 182 41 182 41 182 0 c 0,31,32
EndSplineSet
Validated: 1
EndChar

StartChar: u16AD0
Encoding: 92880 92880 202
Width: 634
GlyphClass: 2
Flags: W
LayerCount: 2
Fore
SplineSet
634 194 m 0,0,1
 634 136 634 136 611.5 97.5 c 128,-1,2
 589 59 589 59 551.5 36 c 128,-1,3
 514 13 514 13 465 3 c 128,-1,4
 416 -7 416 -7 363.5 -8 c 128,-1,5
 311 -9 311 -9 258.5 -3.5 c 128,-1,6
 206 2 206 2 161 9 c 0,7,8
 156 10 156 10 143.5 8.5 c 128,-1,9
 131 7 131 7 117 4 c 128,-1,10
 103 1 103 1 91.5 -3 c 128,-1,11
 80 -7 80 -7 77 -11 c 1,12,13
 56 -1 56 -1 47.5 20 c 128,-1,14
 39 41 39 41 47.5 62 c 128,-1,15
 56 83 56 83 83.5 98.5 c 128,-1,16
 111 114 111 114 161 114 c 0,17,18
 176 114 176 114 219 107 c 128,-1,19
 262 100 262 100 314.5 91.5 c 128,-1,20
 367 83 367 83 418 76 c 128,-1,21
 469 69 469 69 500 69 c 0,22,23
 529 69 529 69 546.5 81 c 128,-1,24
 564 93 564 93 573 111 c 128,-1,25
 582 129 582 129 585 151 c 128,-1,26
 588 173 588 173 588 193 c 256,27,28
 588 213 588 213 579 235.5 c 128,-1,29
 570 258 570 258 554.5 278 c 128,-1,30
 539 298 539 298 518.5 313.5 c 128,-1,31
 498 329 498 329 476 337 c 1,32,33
 437 326 437 326 398.5 324 c 128,-1,34
 360 322 360 322 329 331 c 0,35,36
 318 334 318 334 308.5 341 c 128,-1,37
 299 348 299 348 299 362 c 0,38,39
 299 377 299 377 314 386 c 128,-1,40
 329 395 329 395 354 398 c 128,-1,41
 379 401 379 401 410.5 398.5 c 128,-1,42
 442 396 442 396 474 387 c 1,43,44
 496 394 496 394 517 404.5 c 128,-1,45
 538 415 538 415 553.5 429 c 128,-1,46
 569 443 569 443 578.5 460.5 c 128,-1,47
 588 478 588 478 588 498 c 256,48,49
 588 518 588 518 583.5 539 c 128,-1,50
 579 560 579 560 569 577.5 c 128,-1,51
 559 595 559 595 542.5 606.5 c 128,-1,52
 526 618 526 618 501 618 c 0,53,54
 470 618 470 618 420 611.5 c 128,-1,55
 370 605 370 605 319.5 596.5 c 128,-1,56
 269 588 269 588 227.5 581.5 c 128,-1,57
 186 575 186 575 171 575 c 0,58,59
 121 575 121 575 93.5 590.5 c 128,-1,60
 66 606 66 606 57.5 626.5 c 128,-1,61
 49 647 49 647 57.5 667.5 c 128,-1,62
 66 688 66 688 87 699 c 1,63,64
 90 694 90 694 101.5 690.5 c 128,-1,65
 113 687 113 687 127 685 c 128,-1,66
 141 683 141 683 153.5 682.5 c 128,-1,67
 166 682 166 682 171 682 c 0,68,69
 216 687 216 687 268 691.5 c 128,-1,70
 320 696 320 696 371.5 695 c 128,-1,71
 423 694 423 694 470.5 685 c 128,-1,72
 518 676 518 676 554.5 654 c 128,-1,73
 591 632 591 632 612.5 594 c 128,-1,74
 634 556 634 556 634 498 c 0,75,76
 634 453 634 453 606 418.5 c 128,-1,77
 578 384 578 384 536 362 c 1,78,79
 556 351 556 351 574 332 c 128,-1,80
 592 313 592 313 605.5 290 c 128,-1,81
 619 267 619 267 626.5 242 c 128,-1,82
 634 217 634 217 634 194 c 0,0,1
EndSplineSet
Validated: 33
EndChar

StartChar: u16AD1
Encoding: 92881 92881 203
Width: 648
GlyphClass: 2
Flags: W
LayerCount: 2
Fore
SplineSet
648 0 m 1,0,-1
 543 0 l 1,1,-1
 553 413 l 2,2,3
 553 462 553 462 542.5 506 c 128,-1,4
 532 550 532 550 509 582 c 128,-1,5
 486 614 486 614 447.5 633 c 128,-1,6
 409 652 409 652 354 652 c 0,7,8
 297 652 297 652 259 633 c 128,-1,9
 221 614 221 614 197.5 582 c 128,-1,10
 174 550 174 550 164 506 c 128,-1,11
 154 462 154 462 154 413 c 2,12,-1
 164 0 l 1,13,-1
 59 0 l 1,14,-1
 59 413 l 2,15,16
 59 472 59 472 80.5 523.5 c 128,-1,17
 102 575 102 575 140.5 613.5 c 128,-1,18
 179 652 179 652 233.5 674.5 c 128,-1,19
 288 697 288 697 354 697 c 0,20,21
 419 697 419 697 473 674.5 c 128,-1,22
 527 652 527 652 566 613.5 c 128,-1,23
 605 575 605 575 626.5 523.5 c 128,-1,24
 648 472 648 472 648 413 c 2,25,-1
 648 0 l 1,0,-1
EndSplineSet
Validated: 1
EndChar

StartChar: u16AD2
Encoding: 92882 92882 204
Width: 759
GlyphClass: 2
Flags: W
LayerCount: 2
Fore
SplineSet
759 522 m 1,0,1
 739 522 739 522 726.5 510 c 128,-1,2
 714 498 714 498 715 485 c 2,3,-1
 718 43 l 2,4,5
 718 23 718 23 708 11.5 c 128,-1,6
 698 0 698 0 675 0 c 2,7,-1
 326 0 l 2,8,9
 296 0 296 0 284.5 13.5 c 128,-1,10
 273 27 273 27 274 53 c 2,11,-1
 278 369 l 1,12,-1
 162 369 l 1,13,-1
 162 414 l 1,14,-1
 278 414 l 1,15,-1
 278 544 l 2,16,17
 278 572 278 572 265 582.5 c 128,-1,18
 252 593 252 593 232.5 594.5 c 128,-1,19
 213 596 213 596 190 592.5 c 128,-1,20
 167 589 167 589 148 589 c 0,21,22
 101 589 101 589 75.5 604 c 128,-1,23
 50 619 50 619 42 639 c 128,-1,24
 34 659 34 659 41.5 679 c 128,-1,25
 49 699 49 699 69 709 c 1,26,27
 72 704 72 704 83 701.5 c 128,-1,28
 94 699 94 699 107 697 c 128,-1,29
 120 695 120 695 131.5 694.5 c 128,-1,30
 143 694 143 694 148 694 c 0,31,32
 176 694 176 694 207 696.5 c 128,-1,33
 238 699 238 699 264 693.5 c 128,-1,34
 290 688 290 688 306.5 668.5 c 128,-1,35
 323 649 323 649 323 604 c 2,36,-1
 323 414 l 1,37,-1
 430 414 l 1,38,-1
 430 369 l 1,39,-1
 323 369 l 1,40,-1
 327 87 l 2,41,42
 328 57 328 57 340.5 51.5 c 128,-1,43
 353 46 353 46 366 46 c 2,44,-1
 627 46 l 2,45,46
 633 46 633 46 640 47 c 128,-1,47
 647 48 647 48 653 51.5 c 128,-1,48
 659 55 659 55 662.5 63.5 c 128,-1,49
 666 72 666 72 666 87 c 2,50,-1
 670 485 l 2,51,52
 670 505 670 505 677.5 525 c 128,-1,53
 685 545 685 545 697.5 561 c 128,-1,54
 710 577 710 577 726 587 c 128,-1,55
 742 597 742 597 759 597 c 1,56,-1
 759 522 l 1,0,1
EndSplineSet
Validated: 33
EndChar

StartChar: u16AD3
Encoding: 92883 92883 205
Width: 859
GlyphClass: 2
Flags: W
LayerCount: 2
Fore
SplineSet
859 388 m 0,0,1
 859 313 859 313 844.5 265.5 c 128,-1,2
 830 218 830 218 805 189.5 c 128,-1,3
 780 161 780 161 747.5 148.5 c 128,-1,4
 715 136 715 136 679.5 132.5 c 128,-1,5
 644 129 644 129 607 130.5 c 128,-1,6
 570 132 570 132 537 131.5 c 128,-1,7
 504 131 504 131 476.5 124.5 c 128,-1,8
 449 118 449 118 432 99 c 1,9,10
 411 110 411 110 404.5 133.5 c 128,-1,11
 398 157 398 157 408.5 181.5 c 128,-1,12
 419 206 419 206 448 226 c 128,-1,13
 477 246 477 246 527 250 c 0,14,15
 554 252 554 252 574 252 c 128,-1,16
 594 252 594 252 612 252.5 c 128,-1,17
 630 253 630 253 649.5 255 c 128,-1,18
 669 257 669 257 696 263 c 0,19,20
 741 273 741 273 765 286.5 c 128,-1,21
 789 300 789 300 799.5 316 c 128,-1,22
 810 332 810 332 811.5 350 c 128,-1,23
 813 368 813 368 813 388 c 256,24,25
 813 408 813 408 800.5 431 c 128,-1,26
 788 454 788 454 760.5 473.5 c 128,-1,27
 733 493 733 493 688 506 c 128,-1,28
 643 519 643 519 579 519 c 2,29,-1
 101 519 l 1,30,-1
 101 433 l 1,31,-1
 56 433 l 1,32,-1
 56 641 l 1,33,-1
 101 641 l 1,34,-1
 101 564 l 1,35,-1
 580 564 l 2,36,37
 666 564 666 564 720.5 545 c 128,-1,38
 775 526 775 526 805.5 498.5 c 128,-1,39
 836 471 836 471 847.5 440.5 c 128,-1,40
 859 410 859 410 859 388 c 0,0,1
EndSplineSet
Validated: 33
EndChar

StartChar: u16AD4
Encoding: 92884 92884 206
Width: 594
GlyphClass: 2
Flags: W
LayerCount: 2
Fore
SplineSet
593 112 m 0,0,1
 593 92 593 92 590 72.5 c 128,-1,2
 587 53 587 53 577.5 36.5 c 128,-1,3
 568 20 568 20 548.5 10 c 128,-1,4
 529 0 529 0 496 0 c 2,5,-1
 243 0 l 1,6,-1
 243 103 l 1,7,-1
 494 103 l 2,8,9
 531 103 531 103 531 135 c 0,10,11
 531 157 531 157 523.5 178 c 128,-1,12
 516 199 516 199 504 219 c 128,-1,13
 492 239 492 239 476.5 258 c 128,-1,14
 461 277 461 277 446 295 c 1,15,16
 386 266 386 266 328 266 c 0,17,18
 281 266 281 266 233 277.5 c 128,-1,19
 185 289 185 289 146.5 313.5 c 128,-1,20
 108 338 108 338 83.5 377.5 c 128,-1,21
 59 417 59 417 59 474 c 0,22,23
 59 529 59 529 81 571.5 c 128,-1,24
 103 614 103 614 139 643.5 c 128,-1,25
 175 673 175 673 221 688 c 128,-1,26
 267 703 267 703 316 703 c 0,27,28
 343 703 343 703 375 699.5 c 128,-1,29
 407 696 407 696 438.5 686 c 128,-1,30
 470 676 470 676 497.5 658.5 c 128,-1,31
 525 641 525 641 542.5 613 c 128,-1,32
 560 585 560 585 565 545 c 128,-1,33
 570 505 570 505 555 451 c 1,34,35
 548 486 548 486 516.5 518 c 128,-1,36
 485 550 485 550 445 574 c 128,-1,37
 405 598 405 598 364 612.5 c 128,-1,38
 323 627 323 627 298 627 c 0,39,40
 262 627 262 627 227.5 619 c 128,-1,41
 193 611 193 611 165.5 593 c 128,-1,42
 138 575 138 575 121 546 c 128,-1,43
 104 517 104 517 104 474 c 0,44,45
 104 432 104 432 122.5 401.5 c 128,-1,46
 141 371 141 371 172 351 c 128,-1,47
 203 331 203 331 243.5 321 c 128,-1,48
 284 311 284 311 328 311 c 0,49,50
 348 311 348 311 370.5 315.5 c 128,-1,51
 393 320 393 320 415 330 c 1,52,53
 397 353 397 353 384 374 c 128,-1,54
 371 395 371 395 368 417 c 0,55,56
 365 435 365 435 371 454.5 c 128,-1,57
 377 474 377 474 389.5 490.5 c 128,-1,58
 402 507 402 507 420 517.5 c 128,-1,59
 438 528 438 528 459 528 c 0,60,61
 498 528 498 528 523.5 500.5 c 128,-1,62
 549 473 549 473 549 432 c 0,63,64
 549 397 549 397 531 368 c 128,-1,65
 513 339 513 339 484 318 c 1,66,67
 503 296 503 296 522 271.5 c 128,-1,68
 541 247 541 247 557 221 c 128,-1,69
 573 195 573 195 583 167.5 c 128,-1,70
 593 140 593 140 593 112 c 0,0,1
504 432 m 0,71,72
 504 456 504 456 490.5 469.5 c 128,-1,73
 477 483 477 483 459 483 c 0,74,75
 450 483 450 483 441 477.5 c 128,-1,76
 432 472 432 472 425 463 c 128,-1,77
 418 454 418 454 414.5 443.5 c 128,-1,78
 411 433 411 433 412 423 c 0,79,80
 414 409 414 409 426 391 c 128,-1,81
 438 373 438 373 455 352 c 1,82,83
 476 367 476 367 490 387 c 128,-1,84
 504 407 504 407 504 432 c 0,71,72
EndSplineSet
Validated: 33
EndChar

StartChar: u16AD5
Encoding: 92885 92885 207
Width: 816
GlyphClass: 2
Flags: W
LayerCount: 2
Fore
SplineSet
833 606 m 1,0,1
 826 592 826 592 813.5 580 c 128,-1,2
 801 568 801 568 786.5 559.5 c 128,-1,3
 772 551 772 551 757 546 c 128,-1,4
 742 541 742 541 731 541 c 0,5,6
 712 541 712 541 696 543.5 c 128,-1,7
 680 546 680 546 663.5 552 c 128,-1,8
 647 558 647 558 628.5 568 c 128,-1,9
 610 578 610 578 587 594 c 0,10,11
 568 607 568 607 549.5 617.5 c 128,-1,12
 531 628 531 628 506.5 635.5 c 128,-1,13
 482 643 482 643 448.5 647.5 c 128,-1,14
 415 652 415 652 366 652 c 256,15,16
 317 652 317 652 279.5 628.5 c 128,-1,17
 242 605 242 605 216.5 563.5 c 128,-1,18
 191 522 191 522 177.5 466 c 128,-1,19
 164 410 164 410 164 344 c 256,20,21
 164 278 164 278 175.5 221.5 c 128,-1,22
 187 165 187 165 211 123.5 c 128,-1,23
 235 82 235 82 271 58.5 c 128,-1,24
 307 35 307 35 356 35 c 0,25,26
 453 35 453 35 500.5 106.5 c 128,-1,27
 548 178 548 178 548 314 c 0,28,29
 548 361 548 361 545 400 c 128,-1,30
 542 439 542 439 531.5 470.5 c 128,-1,31
 521 502 521 502 501.5 527 c 128,-1,32
 482 552 482 552 449 572 c 1,33,-1
 449 601 l 1,34,35
 553 566 553 566 603 498.5 c 128,-1,36
 653 431 653 431 653 314 c 0,37,38
 653 239 653 239 629.5 179 c 128,-1,39
 606 119 606 119 565.5 77.5 c 128,-1,40
 525 36 525 36 471 13.5 c 128,-1,41
 417 -9 417 -9 356 -9 c 256,42,43
 295 -9 295 -9 241 12.5 c 128,-1,44
 187 34 187 34 146.5 77.5 c 128,-1,45
 106 121 106 121 82.5 187.5 c 128,-1,46
 59 254 59 254 59 344 c 0,47,48
 59 428 59 428 84 493.5 c 128,-1,49
 109 559 109 559 151.5 604.5 c 128,-1,50
 194 650 194 650 249.5 673.5 c 128,-1,51
 305 697 305 697 366 697 c 0,52,53
 423 697 423 697 461.5 693 c 128,-1,54
 500 689 500 689 529.5 681.5 c 128,-1,55
 559 674 559 674 585 662 c 128,-1,56
 611 650 611 650 644 635 c 0,57,58
 664 625 664 625 684.5 629 c 128,-1,59
 705 633 705 633 725 645 c 0,60,61
 743 656 743 656 753 673.5 c 128,-1,62
 763 691 763 691 767 699 c 1,63,-1
 833 606 l 1,0,1
EndSplineSet
Validated: 33
EndChar

StartChar: u16AD6
Encoding: 92886 92886 208
Width: 491
GlyphClass: 2
Flags: W
LayerCount: 2
Fore
SplineSet
491 173 m 256,0,1
 491 131 491 131 473.5 95.5 c 128,-1,2
 456 60 456 60 427 33.5 c 128,-1,3
 398 7 398 7 358.5 -8 c 128,-1,4
 319 -23 319 -23 276 -23 c 0,5,6
 232 -23 232 -23 193 -8 c 128,-1,7
 154 7 154 7 124.5 33.5 c 128,-1,8
 95 60 95 60 77.5 95.5 c 128,-1,9
 60 131 60 131 60 173 c 0,10,11
 60 212 60 212 75.5 246.5 c 128,-1,12
 91 281 91 281 118 307 c 1,13,-1
 150 275 l 1,14,15
 124 250 124 250 123.5 223 c 128,-1,16
 123 196 123 196 139 170 c 128,-1,17
 155 144 155 144 184 121.5 c 128,-1,18
 213 99 213 99 247 84.5 c 128,-1,19
 281 70 281 70 316.5 65.5 c 128,-1,20
 352 61 352 61 380.5 70 c 128,-1,21
 409 79 409 79 427.5 103.5 c 128,-1,22
 446 128 446 128 446 173 c 0,23,24
 446 204 446 204 433 231.5 c 128,-1,25
 420 259 420 259 397 280 c 128,-1,26
 374 301 374 301 343 313 c 128,-1,27
 312 325 312 325 276 325 c 0,28,29
 235 325 235 325 199.5 339.5 c 128,-1,30
 164 354 164 354 137 379.5 c 128,-1,31
 110 405 110 405 94.5 439.5 c 128,-1,32
 79 474 79 474 79 514 c 256,33,34
 79 554 79 554 94.5 588.5 c 128,-1,35
 110 623 110 623 137 648.5 c 128,-1,36
 164 674 164 674 199.5 689 c 128,-1,37
 235 704 235 704 276 704 c 0,38,39
 316 704 316 704 352 689 c 128,-1,40
 388 674 388 674 415 648.5 c 128,-1,41
 442 623 442 623 457.5 588.5 c 128,-1,42
 473 554 473 554 473 514 c 0,43,44
 473 490 473 490 467 468 c 128,-1,45
 461 446 461 446 450 426 c 1,46,-1
 410 447 l 1,47,48
 425 474 425 474 409.5 504 c 128,-1,49
 394 534 394 534 362 558.5 c 128,-1,50
 330 583 330 583 289 599 c 128,-1,51
 248 615 248 615 211.5 613.5 c 128,-1,52
 175 612 175 612 149.5 589 c 128,-1,53
 124 566 124 566 124 514 c 0,54,55
 124 484 124 484 136 458 c 128,-1,56
 148 432 148 432 168.5 412.5 c 128,-1,57
 189 393 189 393 216.5 381.5 c 128,-1,58
 244 370 244 370 276 370 c 0,59,60
 319 370 319 370 358.5 355 c 128,-1,61
 398 340 398 340 427 313.5 c 128,-1,62
 456 287 456 287 473.5 251 c 128,-1,63
 491 215 491 215 491 173 c 256,0,1
EndSplineSet
Validated: 33
EndChar

